ChamferedBeveledAngled-Lean.ufo
<glyph name="exclamation" format="2">
  <advance width="222.45"/>
  <unicode hex="0021"/>
  <outline>
    <contour>
      <point x="41.224998474121094" y="221.25" type="line"/>
      <point x="181.2249984741211" y="221.25" type="line"/>
      <point x="181.2249984741211" y="800" type="line"/>
      <point x="41.224998474121094" y="800" type="line"/>
    </contour>
    <contour>
      <point x="41.225" y="0" type="line"/>
      <point x="181.225" y="0" type="line"/>
      <point x="181.225" y="140.0" type="line"/>
      <point x="41.225" y="140.0" type="line"/>
    </contour>
  </outline>
</glyph>
<glyph name="quotedouble" format="2">
  <advance width="404.95"/>
  <unicode hex="0022"/>
  <outline>
    <contour>
      <point x="94.70024108886719" y="700" type="line"/>
      <point x="181.2249984741211" y="786.5247573852539" type="line"/>
      <point x="181.2249984741211" y="900" type="line"/>
      <point x="41.224998474121094" y="900" type="line"/>
      <point x="41.224998474121094" y="700" type="line"/>
    </contour>
    <contour>
      <point x="277.2002410888672" y="700" type="line"/>
      <point x="363.7249984741211" y="786.5247573852539" type="line"/>
      <point x="363.7249984741211" y="900" type="line"/>
      <point x="223.7249984741211" y="900" type="line"/>
      <point x="223.7249984741211" y="700" type="line"/>
    </contour>
  </outline>
</glyph>
<glyph name="numbersign" format="2">
  <advance width="649.95"/>
  <unicode hex="0023"/>
  <outline>
    <contour>
      <point x="432.74976348876953" y="805" type="line"/>
      <point x="346.2249984741211" y="718.4752426147461" type="line"/>
      <point x="346.2249984741211" y="620" type="line"/>
      <point x="303.7249984741211" y="620" type="line"/>
      <point x="303.7249984741211" y="805" type="line"/>
      <point x="250.24976348876953" y="805" type="line"/>
      <point x="163.7249984741211" y="718.4752426147461" type="line"/>
      <point x="163.7249984741211" y="620" type="line"/>
      <point x="127.74976348876953" y="620" type="line"/>
      <point x="41.224998474121094" y="533.4752426147461" type="line"/>
      <point x="41.224998474121094" y="480" type="line"/>
      <point x="163.7249984741211" y="480" type="line"/>
      <point x="163.7249984741211" y="320" type="line"/>
      <point x="127.74976348876953" y="320" type="line"/>
      <point x="41.224998474121094" y="233.4752426147461" type="line"/>
      <point x="41.224998474121094" y="180" type="line"/>
      <point x="163.7249984741211" y="180" type="line"/>
      <point x="163.7249984741211" y="-5" type="line"/>
      <point x="217.2002410888672" y="-5" type="line"/>
      <point x="303.7249984741211" y="81.5247573852539" type="line"/>
      <point x="303.7249984741211" y="180" type="line"/>
      <point x="346.2249984741211" y="180" type="line"/>
      <point x="346.2249984741211" y="-5" type="line"/>
      <point x="399.7002410888672" y="-5" type="line"/>
      <point x="486.2249984741211" y="81.5247573852539" type="line"/>
      <point x="486.2249984741211" y="180" type="line"/>
      <point x="522.2002410888672" y="180" type="line"/>
      <point x="608.7249984741211" y="266.5247573852539" type="line"/>
      <point x="608.7249984741211" y="320" type="line"/>
      <point x="486.2249984741211" y="320" type="line"/>
      <point x="486.2249984741211" y="480" type="line"/>
      <point x="522.2002410888672" y="480" type="line"/>
      <point x="608.7249984741211" y="566.5247573852539" type="line"/>
      <point x="608.7249984741211" y="620" type="line"/>
      <point x="486.2249984741211" y="620" type="line"/>
      <point x="486.2249984741211" y="805" type="line"/>
    </contour>
    <contour>
      <point x="346.2249984741211" y="480" type="line"/>
      <point x="346.2249984741211" y="320" type="line"/>
      <point x="303.7249984741211" y="320" type="line"/>
      <point x="303.7249984741211" y="480" type="line"/>
    </contour>
  </outline>
</glyph>
<glyph name="dollar" format="2">
  <advance width="404.95"/>
  <unicode hex="0024"/>
  <outline>
    <contour>
      <point x="41.224998474121094" y="613.4752426147461" type="line"/>
      <point x="41.224998474121094" y="416.5247573852539" type="line"/>
      <point x="127.74976348876953" y="330" type="line"/>
      <point x="181.2249984741211" y="330" type="line"/>
      <point x="181.2249984741211" y="800" type="line"/>
      <point x="111.2249984741211" y="800" type="line"/>
      <point x="111.2249984741211" y="683.4752349853516" type="line"/>
    </contour>
    <contour>
      <point x="359.3499984741211" y="700" type="line"/>
      <point x="289.3499984741211" y="700" type="line"/>
      <point x="289.3499984741211" y="800" type="line"/>
      <point x="219.3499984741211" y="800" type="line"/>
      <point x="219.3499984741211" y="646.5247573852539" type="line"/>
      <point x="305.87476348876953" y="560" type="line"/>
      <point x="359.3499984741211" y="560" type="line"/>
    </contour>
    <contour>
      <point x="223.7249984741211" y="0" type="line"/>
      <point x="293.7249984741211" y="0" type="line"/>
      <point x="293.7249984741211" y="116.5247573852539" type="line"/>
      <point x="363.7249984741211" y="186.5247573852539" type="line"/>
      <point x="363.7249984741211" y="383.4752426147461" type="line"/>
      <point x="277.2002410888672" y="470" type="line"/>
      <point x="223.7249984741211" y="470" type="line"/>
    </contour>
    <contour>
      <point x="41.224998474121094" y="100" type="line"/>
      <point x="111.2249984741211" y="100" type="line"/>
      <point x="111.2249984741211" y="0" type="line"/>
      <point x="181.2249984741211" y="0" type="line"/>
      <point x="181.2249984741211" y="153.4752426147461" type="line"/>
      <point x="94.70024108886719" y="240" type="line"/>
      <point x="41.224998474121094" y="240" type="line"/>
    </contour>
  </outline>
</glyph>
<glyph name="percent" format="2">
  <advance width="682.45"/>
  <unicode hex="0025"/>
  <outline>
    <contour>
      <point x="116.225" y="805.0" type="line"/>
      <point x="87.57755" y="805.0" type="line"/>
      <point x="41.225" y="758.64745" type="line"/>
      <point x="41.225" y="701.35255" type="line"/>
      <point x="87.57755" y="655.0" type="line"/>
      <point x="116.225" y="655.0" type="line"/>
    </contour>
    <contour>
      <point x="158.725" y="655.0" type="line"/>
      <point x="187.37245" y="655.0" type="line"/>
      <point x="233.725" y="701.35255" type="line"/>
      <point x="233.725" y="758.64745" type="line"/>
      <point x="187.37245" y="805.0" type="line"/>
      <point x="158.725" y="805.0" type="line"/>
    </contour>
    <contour>
      <point x="324.7002410888672" y="0" type="line"/>
      <point x="411.2249984741211" y="86.5247573852539" type="line"/>
      <point x="411.2249984741211" y="800" type="line"/>
      <point x="357.74976348876953" y="800" type="line"/>
      <point x="271.2249984741211" y="713.4752426147461" type="line"/>
      <point x="271.2249984741211" y="0" type="line"/>
    </contour>
    <contour>
      <point x="523.725" y="145.0" type="line"/>
      <point x="495.07755" y="145.0" type="line"/>
      <point x="448.725" y="98.64745" type="line"/>
      <point x="448.725" y="41.35255" type="line"/>
      <point x="495.07755" y="-5.0" type="line"/>
      <point x="523.725" y="-5.0" type="line"/>
    </contour>
    <contour>
      <point x="566.225" y="-5.0" type="line"/>
      <point x="594.8724500000001" y="-5.0" type="line"/>
      <point x="641.225" y="41.35255" type="line"/>
      <point x="641.225" y="98.64745" type="line"/>
      <point x="594.8724500000001" y="145.0" type="line"/>
      <point x="566.225" y="145.0" type="line"/>
    </contour>
  </outline>
</glyph>
<glyph name="ampersand" format="2">
  <advance width="544.95"/>
  <unicode hex="0026"/>
  <outline>
    <contour>
      <point x="127.74976348876953" y="400" type="line"/>
      <point x="41.224998474121094" y="313.4752426147461" type="line"/>
      <point x="41.224998474121094" y="81.5247573852539" type="line"/>
      <point x="127.74976348876953" y="-5" type="line"/>
      <point x="181.2249984741211" y="-5" type="line"/>
      <point x="181.2249984741211" y="800" type="line"/>
      <point x="127.74976348876953" y="800" type="line"/>
      <point x="41.224998474121094" y="713.4752426147461" type="line"/>
      <point x="41.224998474121094" y="486.5247573852539" type="line"/>
    </contour>
    <contour>
      <point x="354.975" y="800.0" type="line"/>
      <point x="214.975" y="800.0" type="line"/>
      <point x="214.975" y="746.52476" type="line"/>
      <point x="301.49976000000004" y="660.0" type="line"/>
      <point x="354.975" y="660.0" type="line"/>
    </contour>
    <contour>
      <point x="223.7249984741211" y="413.4752426147461" type="line"/>
      <point x="223.7249984741211" y="-5" type="line"/>
      <point x="277.2002410888672" y="-5" type="line"/>
      <point x="363.7249984741211" y="81.5247573852539" type="line"/>
      <point x="363.7249984741211" y="360" type="line"/>
      <point x="417.2002410888672" y="360" type="line"/>
      <point x="503.7249984741211" y="446.5247573852539" type="line"/>
      <point x="503.7249984741211" y="500" type="line"/>
      <point x="310.24976348876953" y="500" type="line"/>
    </contour>
  </outline>
</glyph>
<glyph name="parenleft" format="2">
  <advance width="222.45"/>
  <unicode hex="0028"/>
  <outline>
    <contour>
      <point x="127.74976348876953" y="-100" type="line"/>
      <point x="181.2249984741211" y="-100" type="line"/>
      <point x="181.2249984741211" y="900" type="line"/>
      <point x="127.74976348876953" y="900" type="line"/>
      <point x="41.224998474121094" y="813.4752426147461" type="line"/>
      <point x="41.224998474121094" y="-13.475242614746094" type="line"/>
    </contour>
  </outline>
</glyph>
<glyph name="asterisk" format="2">
  <advance width="452.4328174128571"/>
  <unicode hex="002A"/>
  <outline>
    <contour>
      <point x="179.54974365234375" y="426.66666412353516" type="line"/>
      <point x="272.88307189941406" y="426.66666412353516" type="line"/>
      <point x="272.88307189941406" y="532.5042953491211" type="line"/>
      <point x="364.54115295410156" y="479.5854797363281" type="line"/>
      <point x="411.2078170776367" y="560.4145202636719" type="line"/>
      <point x="319.54974365234375" y="613.3333358764648" type="line"/>
      <point x="411.2078170776367" y="666.2521514892578" type="line"/>
      <point x="364.54115295410156" y="747.081184387207" type="line"/>
      <point x="272.88307189941406" y="694.1623687744141" type="line"/>
      <point x="272.88307189941406" y="800" type="line"/>
      <point x="179.54974365234375" y="800" type="line"/>
      <point x="179.54974365234375" y="694.1623687744141" type="line"/>
      <point x="87.89167022705078" y="747.081184387207" type="line"/>
      <point x="41.224998474121094" y="666.2521514892578" type="line"/>
      <point x="132.8830795288086" y="613.3333358764648" type="line"/>
      <point x="41.224998474121094" y="560.4145202636719" type="line"/>
      <point x="87.89167022705078" y="479.5854797363281" type="line"/>
      <point x="179.54974365234375" y="532.5042953491211" type="line"/>
    </contour>
  </outline>
</glyph>
<glyph name="plus" format="2">
  <advance width="587.45"/>
  <unicode hex="002B"/>
  <outline>
    <contour>
      <point x="223.7249984741211" y="160" type="line"/>
      <point x="363.7249984741211" y="160" type="line"/>
      <point x="363.7249984741211" y="330" type="line"/>
      <point x="503.7249984741211" y="330" type="line"/>
      <point x="503.7249984741211" y="470" type="line"/>
      <point x="363.7249984741211" y="470" type="line"/>
      <point x="363.7249984741211" y="640" type="line"/>
      <point x="223.7249984741211" y="640" type="line"/>
      <point x="223.7249984741211" y="470" type="line"/>
      <point x="83.7249984741211" y="470" type="line"/>
      <point x="83.7249984741211" y="330" type="line"/>
      <point x="223.7249984741211" y="330" type="line"/>
    </contour>
  </outline>
</glyph>
<glyph name="comma" format="2">
  <advance width="222.45"/>
  <unicode hex="002C"/>
  <outline>
    <contour>
      <point x="94.70024108886719" y="-100" type="line"/>
      <point x="181.2249984741211" y="-13.475242614746094" type="line"/>
      <point x="181.2249984741211" y="140" type="line"/>
      <point x="41.224998474121094" y="140" type="line"/>
      <point x="41.224998474121094" y="-100" type="line"/>
    </contour>
  </outline>
</glyph>
<glyph name="hyphen" format="2">
  <advance width="404.95"/>
  <unicode hex="002D"/>
  <outline>
    <contour>
      <point x="41.224998474121094" y="330" type="line"/>
      <point x="363.7249984741211" y="330" type="line"/>
      <point x="363.7249984741211" y="470" type="line"/>
      <point x="41.224998474121094" y="470" type="line"/>
    </contour>
  </outline>
</glyph>
<glyph name="one" format="2">
  <advance width="222.45"/>
  <unicode hex="0031"/>
  <outline>
    <contour>
      <point x="41.224998474121094" y="0" type="line"/>
      <point x="181.2249984741211" y="0" type="line"/>
      <point x="181.2249984741211" y="800" type="line"/>
      <point x="127.74976348876953" y="800" type="line"/>
      <point x="41.224998474121094" y="713.4752426147461" type="line"/>
    </contour>
  </outline>
</glyph>
<glyph name="two" format="2">
  <advance width="404.95"/>
  <unicode hex="0032"/>
  <outline>
    <contour>
      <point x="181.225" y="665.0" type="line"/>
      <point x="181.225" y="805.0" type="line"/>
      <point x="127.74976000000001" y="805.0" type="line"/>
      <point x="41.225" y="718.47524" type="line"/>
      <point x="41.225" y="665.0" type="line"/>
    </contour>
    <contour>
      <point x="277.2002410888672" y="195" type="line"/>
      <point x="363.7249984741211" y="281.5247573852539" type="line"/>
      <point x="363.7249984741211" y="718.4752426147461" type="line"/>
      <point x="277.2002410888672" y="805" type="line"/>
      <point x="223.7249984741211" y="805" type="line"/>
      <point x="223.7249984741211" y="195" type="line"/>
    </contour>
    <contour>
      <point x="41.224998474121094" y="53.475242614746094" type="line"/>
      <point x="41.224998474121094" y="0" type="line"/>
      <point x="363.7249984741211" y="0" type="line"/>
      <point x="363.7249984741211" y="140" type="line"/>
      <point x="127.74976348876953" y="140" type="line"/>
    </contour>
  </outline>
</glyph>
<glyph name="three" format="2">
  <advance width="404.95"/>
  <unicode hex="0033"/>
  <outline>
    <contour>
      <point x="181.225" y="665.0" type="line"/>
      <point x="181.225" y="805.0" type="line"/>
      <point x="127.74976000000001" y="805.0" type="line"/>
      <point x="41.225" y="718.47524" type="line"/>
      <point x="41.225" y="665.0" type="line"/>
    </contour>
    <contour>
      <point x="277.2002410888672" y="-5" type="line"/>
      <point x="363.7249984741211" y="81.5247573852539" type="line"/>
      <point x="363.7249984741211" y="313.4752426147461" type="line"/>
      <point x="277.2002410888672" y="400" type="line"/>
      <point x="363.7249984741211" y="486.5247573852539" type="line"/>
      <point x="363.7249984741211" y="718.4752426147461" type="line"/>
      <point x="277.2002410888672" y="805" type="line"/>
      <point x="223.7249984741211" y="805" type="line"/>
      <point x="223.7249984741211" y="-5" type="line"/>
    </contour>
    <contour>
      <point x="181.225" y="135.0" type="line"/>
      <point x="41.225" y="135.0" type="line"/>
      <point x="41.225" y="81.52476" type="line"/>
      <point x="127.74976000000001" y="-5.0" type="line"/>
      <point x="181.225" y="-5.0" type="line"/>
    </contour>
  </outline>
</glyph>
<glyph name="five" format="2">
  <advance width="404.95"/>
  <unicode hex="0035"/>
  <outline>
    <contour>
      <point x="132.12476348876953" y="330" type="line"/>
      <point x="185.5999984741211" y="330" type="line"/>
      <point x="185.5999984741211" y="800" type="line"/>
      <point x="45.599998474121094" y="800" type="line"/>
      <point x="45.599998474121094" y="416.5247573852539" type="line"/>
    </contour>
    <contour>
      <point x="359.35" y="800.0" type="line"/>
      <point x="219.35" y="800.0" type="line"/>
      <point x="219.35" y="746.52476" type="line"/>
      <point x="305.87476000000004" y="660.0" type="line"/>
      <point x="359.35" y="660.0" type="line"/>
    </contour>
    <contour>
      <point x="277.2002410888672" y="-5" type="line"/>
      <point x="363.7249984741211" y="81.5247573852539" type="line"/>
      <point x="363.7249984741211" y="383.4752426147461" type="line"/>
      <point x="277.2002410888672" y="470" type="line"/>
      <point x="223.7249984741211" y="470" type="line"/>
      <point x="223.7249984741211" y="-5" type="line"/>
    </contour>
    <contour>
      <point x="181.225" y="135.0" type="line"/>
      <point x="41.225" y="135.0" type="line"/>
      <point x="41.225" y="81.52476" type="line"/>
      <point x="127.74976000000001" y="-5.0" type="line"/>
      <point x="181.225" y="-5.0" type="line"/>
    </contour>
  </outline>
</glyph>
<glyph name="six" format="2">
  <advance width="404.95"/>
  <unicode hex="0036"/>
  <outline>
    <contour>
      <point x="127.74976348876953" y="-5" type="line"/>
      <point x="181.2249984741211" y="-5" type="line"/>
      <point x="181.2249984741211" y="805" type="line"/>
      <point x="127.74976348876953" y="805" type="line"/>
      <point x="41.224998474121094" y="718.4752426147461" type="line"/>
      <point x="41.224998474121094" y="81.5247573852539" type="line"/>
    </contour>
    <contour>
      <point x="223.725" y="665.0" type="line"/>
      <point x="363.725" y="665.0" type="line"/>
      <point x="363.725" y="718.47524" type="line"/>
      <point x="277.20024" y="805.0" type="line"/>
      <point x="223.725" y="805.0" type="line"/>
    </contour>
    <contour>
      <point x="277.2002410888672" y="-5" type="line"/>
      <point x="363.7249984741211" y="81.5247573852539" type="line"/>
      <point x="363.7249984741211" y="413.4752426147461" type="line"/>
      <point x="277.2002410888672" y="500" type="line"/>
      <point x="223.7249984741211" y="500" type="line"/>
      <point x="223.7249984741211" y="-5" type="line"/>
    </contour>
  </outline>
</glyph>
<glyph name="colon" format="2">
  <advance width="222.45"/>
  <unicode hex="003A"/>
  <outline>
    <contour>
      <point x="41.225" y="460.0" type="line"/>
      <point x="181.225" y="460.0" type="line"/>
      <point x="181.225" y="600.0" type="line"/>
      <point x="41.225" y="600.0" type="line"/>
    </contour>
    <contour>
      <point x="41.225" y="0" type="line"/>
      <point x="181.225" y="0" type="line"/>
      <point x="181.225" y="140.0" type="line"/>
      <point x="41.225" y="140.0" type="line"/>
    </contour>
  </outline>
</glyph>
<glyph name="semicolon" format="2">
  <advance width="222.45"/>
  <unicode hex="003B"/>
  <outline>
    <contour>
      <point x="41.225" y="460.0" type="line"/>
      <point x="181.225" y="460.0" type="line"/>
      <point x="181.225" y="600.0" type="line"/>
      <point x="41.225" y="600.0" type="line"/>
    </contour>
    <contour>
      <point x="94.70024108886719" y="-100" type="line"/>
      <point x="181.2249984741211" y="-13.475242614746094" type="line"/>
      <point x="181.2249984741211" y="140" type="line"/>
      <point x="41.224998474121094" y="140" type="line"/>
      <point x="41.224998474121094" y="-100" type="line"/>
    </contour>
  </outline>
</glyph>
<glyph name="less" format="2">
  <advance width="362.45"/>
  <unicode hex="003C"/>
  <outline>
    <contour>
      <point x="41.224998474121094" y="613.4752426147461" type="line"/>
      <point x="41.224998474121094" y="186.5247573852539" type="line"/>
      <point x="127.74976348876953" y="100" type="line"/>
      <point x="321.2249984741211" y="100" type="line"/>
      <point x="321.2249984741211" y="153.4752426147461" type="line"/>
      <point x="234.7002410888672" y="240" type="line"/>
      <point x="181.2249984741211" y="240" type="line"/>
      <point x="181.2249984741211" y="560" type="line"/>
      <point x="234.7002410888672" y="560" type="line"/>
      <point x="321.2249984741211" y="646.5247573852539" type="line"/>
      <point x="321.2249984741211" y="700" type="line"/>
      <point x="127.74976348876953" y="700" type="line"/>
    </contour>
  </outline>
</glyph>
<glyph name="equal" format="2">
  <advance width="587.45"/>
  <unicode hex="003D"/>
  <outline>
    <contour>
      <point x="83.7249984741211" y="450" type="line"/>
      <point x="503.7249984741211" y="450" type="line"/>
      <point x="503.7249984741211" y="590" type="line"/>
      <point x="83.7249984741211" y="590" type="line"/>
    </contour>
    <contour>
      <point x="83.7249984741211" y="210" type="line"/>
      <point x="503.7249984741211" y="210" type="line"/>
      <point x="503.7249984741211" y="350" type="line"/>
      <point x="83.7249984741211" y="350" type="line"/>
    </contour>
  </outline>
</glyph>
<glyph name="greater" format="2">
  <advance width="362.45"/>
  <unicode hex="003E"/>
  <outline>
    <contour>
      <point x="181.2249984741211" y="240" type="line"/>
      <point x="127.74976348876953" y="240" type="line"/>
      <point x="41.224998474121094" y="153.4752426147461" type="line"/>
      <point x="41.224998474121094" y="100" type="line"/>
      <point x="234.7002410888672" y="100" type="line"/>
      <point x="321.2249984741211" y="186.5247573852539" type="line"/>
      <point x="321.2249984741211" y="613.4752426147461" type="line"/>
      <point x="234.7002410888672" y="700" type="line"/>
      <point x="41.224998474121094" y="700" type="line"/>
      <point x="41.224998474121094" y="646.5247573852539" type="line"/>
      <point x="127.74976348876953" y="560" type="line"/>
      <point x="181.2249984741211" y="560" type="line"/>
    </contour>
  </outline>
</glyph>
<glyph name="question" format="2">
  <advance width="404.95"/>
  <unicode hex="003F"/>
  <outline>
    <contour>
      <point x="41.225" y="805.0" type="line"/>
      <point x="41.225" y="665.0" type="line"/>
      <point x="94.70024000000001" y="665.0" type="line"/>
      <point x="181.225" y="751.52476" type="line"/>
      <point x="181.225" y="805.0" type="line"/>
    </contour>
    <contour>
      <point x="277.2002410888672" y="405" type="line"/>
      <point x="363.7249984741211" y="491.5247573852539" type="line"/>
      <point x="363.7249984741211" y="718.4752426147461" type="line"/>
      <point x="277.2002410888672" y="805" type="line"/>
      <point x="223.7249984741211" y="805" type="line"/>
      <point x="223.7249984741211" y="405" type="line"/>
    </contour>
    <contour>
      <point x="41.224998474121094" y="221.25" type="line"/>
      <point x="181.2249984741211" y="221.25" type="line"/>
      <point x="181.2249984741211" y="535" type="line"/>
      <point x="127.74976348876953" y="535" type="line"/>
      <point x="41.224998474121094" y="448.4752426147461" type="line"/>
    </contour>
    <contour>
      <point x="41.225" y="0" type="line"/>
      <point x="181.225" y="0" type="line"/>
      <point x="181.225" y="140.0" type="line"/>
      <point x="41.225" y="140.0" type="line"/>
    </contour>
  </outline>
</glyph>
<glyph name="at" format="2">
  <advance width="954.8433400000001"/>
  <unicode hex="0040"/>
  <outline>
    <contour>
      <point x="843.6183400000001" y="551.68363" type="line"/>
      <point x="629.1053" y="766.19667" type="line"/>
      <point x="325.73804" y="766.19667" type="line"/>
      <point x="111.225" y="551.68363" type="line"/>
      <point x="111.225" y="248.31637" type="line"/>
      <point x="325.73804" y="33.80333" type="line"/>
      <point x="629.1053" y="33.80333" type="line"/>
      <point x="843.6183400000001" y="248.31637" type="line"/>
    </contour>
    <contour>
      <point x="393.94642639160156" y="200" type="line"/>
      <point x="307.42166900634766" y="286.5247573852539" type="line"/>
      <point x="307.42166900634766" y="513.4752426147461" type="line"/>
      <point x="393.94642639160156" y="600" type="line"/>
      <point x="447.42166900634766" y="600" type="line"/>
      <point x="447.42166900634766" y="200" type="line"/>
    </contour>
    <contour>
      <point x="576.4464263916016" y="200" type="line"/>
      <point x="489.92166900634766" y="286.5247573852539" type="line"/>
      <point x="489.92166900634766" y="600" type="line"/>
      <point x="629.9216690063477" y="600" type="line"/>
      <point x="629.9216690063477" y="200" type="line"/>
    </contour>
  </outline>
</glyph>
<glyph name="E" format="2">
  <advance width="404.95"/>
  <unicode hex="0045"/>
  <outline>
    <contour>
      <point x="41.224998474121094" y="0" type="line"/>
      <point x="181.2249984741211" y="0" type="line"/>
      <point x="181.2249984741211" y="800" type="line"/>
      <point x="41.224998474121094" y="800" type="line"/>
    </contour>
    <contour>
      <point x="363.725" y="800.0" type="line"/>
      <point x="223.725" y="800.0" type="line"/>
      <point x="223.725" y="746.52476" type="line"/>
      <point x="310.24976000000004" y="660.0" type="line"/>
      <point x="363.725" y="660.0" type="line"/>
    </contour>
    <contour>
      <point x="363.725" y="470.0" type="line"/>
      <point x="223.725" y="470.0" type="line"/>
      <point x="223.725" y="416.52476" type="line"/>
      <point x="310.24976000000004" y="330.0" type="line"/>
      <point x="363.725" y="330.0" type="line"/>
    </contour>
    <contour>
      <point x="363.725" y="0.0" type="line"/>
      <point x="363.725" y="140.0" type="line"/>
      <point x="310.24976000000004" y="140.0" type="line"/>
      <point x="223.725" y="53.47524" type="line"/>
      <point x="223.725" y="0.0" type="line"/>
    </contour>
  </outline>
</glyph>
<glyph name="G" format="2">
  <advance width="404.95"/>
  <unicode hex="0047"/>
  <outline>
    <contour>
      <point x="127.74976348876953" y="0" type="line"/>
      <point x="181.2249984741211" y="0" type="line"/>
      <point x="181.2249984741211" y="800" type="line"/>
      <point x="127.74976348876953" y="800" type="line"/>
      <point x="41.224998474121094" y="713.4752426147461" type="line"/>
      <point x="41.224998474121094" y="86.5247573852539" type="line"/>
    </contour>
    <contour>
      <point x="363.725" y="800.0" type="line"/>
      <point x="223.725" y="800.0" type="line"/>
      <point x="223.725" y="746.52476" type="line"/>
      <point x="310.24976000000004" y="660.0" type="line"/>
      <point x="363.725" y="660.0" type="line"/>
    </contour>
    <contour>
      <point x="310.24976348876953" y="0" type="line"/>
      <point x="363.7249984741211" y="0" type="line"/>
      <point x="363.7249984741211" y="400" type="line"/>
      <point x="223.7249984741211" y="400" type="line"/>
      <point x="223.7249984741211" y="86.5247573852539" type="line"/>
    </contour>
  </outline>
</glyph>
<glyph name="H" format="2">
  <advance width="587.45"/>
  <unicode hex="0048"/>
  <outline>
    <contour>
      <point x="41.224998474121094" y="0" type="line"/>
      <point x="181.2249984741211" y="0" type="line"/>
      <point x="181.2249984741211" y="800" type="line"/>
      <point x="41.224998474121094" y="800" type="line"/>
    </contour>
    <contour>
      <point x="406.2249984741211" y="0" type="line"/>
      <point x="546.2249984741211" y="0" type="line"/>
      <point x="546.2249984741211" y="800" type="line"/>
      <point x="406.2249984741211" y="800" type="line"/>
    </contour>
    <contour>
      <point x="363.725" y="470.0" type="line"/>
      <point x="223.725" y="470.0" type="line"/>
      <point x="223.725" y="416.52476" type="line"/>
      <point x="310.24976000000004" y="330.0" type="line"/>
      <point x="363.725" y="330.0" type="line"/>
    </contour>
  </outline>
</glyph>
<glyph name="J" format="2">
  <advance width="404.95"/>
  <unicode hex="004A"/>
  <outline>
    <contour>
      <point x="277.2002410888672" y="-5" type="line"/>
      <point x="363.7249984741211" y="81.5247573852539" type="line"/>
      <point x="363.7249984741211" y="800" type="line"/>
      <point x="223.7249984741211" y="800" type="line"/>
      <point x="223.7249984741211" y="-5" type="line"/>
    </contour>
    <contour>
      <point x="181.225" y="135.0" type="line"/>
      <point x="41.225" y="135.0" type="line"/>
      <point x="41.225" y="81.52476" type="line"/>
      <point x="127.74976000000001" y="-5.0" type="line"/>
      <point x="181.225" y="-5.0" type="line"/>
    </contour>
  </outline>
</glyph>
<glyph name="O" format="2">
  <advance width="404.95"/>
  <unicode hex="004F"/>
  <outline>
    <contour>
      <point x="127.74976348876953" y="-5" type="line"/>
      <point x="181.2249984741211" y="-5" type="line"/>
      <point x="181.2249984741211" y="805" type="line"/>
      <point x="127.74976348876953" y="805" type="line"/>
      <point x="41.224998474121094" y="718.4752426147461" type="line"/>
      <point x="41.224998474121094" y="81.5247573852539" type="line"/>
    </contour>
    <contour>
      <point x="277.2002410888672" y="-5" type="line"/>
      <point x="363.7249984741211" y="81.5247573852539" type="line"/>
      <point x="363.7249984741211" y="718.4752426147461" type="line"/>
      <point x="277.2002410888672" y="805" type="line"/>
      <point x="223.7249984741211" y="805" type="line"/>
      <point x="223.7249984741211" y="-5" type="line"/>
    </contour>
  </outline>
</glyph>
<glyph name="P" format="2">
  <advance width="404.95"/>
  <unicode hex="0050"/>
  <outline>
    <contour>
      <point x="41.224998474121094" y="0" type="line"/>
      <point x="181.2249984741211" y="0" type="line"/>
      <point x="181.2249984741211" y="800" type="line"/>
      <point x="41.224998474121094" y="800" type="line"/>
    </contour>
    <contour>
      <point x="277.2002410888672" y="200" type="line"/>
      <point x="363.7249984741211" y="286.5247573852539" type="line"/>
      <point x="363.7249984741211" y="713.4752426147461" type="line"/>
      <point x="277.2002410888672" y="800" type="line"/>
      <point x="223.7249984741211" y="800" type="line"/>
      <point x="223.7249984741211" y="200" type="line"/>
    </contour>
  </outline>
</glyph>
<glyph name="T" format="2">
  <advance width="587.45"/>
  <unicode hex="0054"/>
  <outline>
    <contour>
      <point x="41.225" y="800.0" type="line"/>
      <point x="41.225" y="660.0" type="line"/>
      <point x="94.70024000000001" y="660.0" type="line"/>
      <point x="181.225" y="746.52476" type="line"/>
      <point x="181.225" y="800.0" type="line"/>
    </contour>
    <contour>
      <point x="223.7249984741211" y="0" type="line"/>
      <point x="363.7249984741211" y="0" type="line"/>
      <point x="363.7249984741211" y="800" type="line"/>
      <point x="223.7249984741211" y="800" type="line"/>
    </contour>
    <contour>
      <point x="546.225" y="800.0" type="line"/>
      <point x="406.225" y="800.0" type="line"/>
      <point x="406.225" y="746.52476" type="line"/>
      <point x="492.74976000000004" y="660.0" type="line"/>
      <point x="546.225" y="660.0" type="line"/>
    </contour>
  </outline>
</glyph>
<glyph name="W" format="2">
  <advance width="587.45"/>
  <unicode hex="0057"/>
  <outline>
    <contour>
      <point x="127.74976348876953" y="0" type="line"/>
      <point x="181.2249984741211" y="0" type="line"/>
      <point x="181.2249984741211" y="713.4752426147461" type="line"/>
      <point x="94.70024108886719" y="800" type="line"/>
      <point x="41.224998474121094" y="800" type="line"/>
      <point x="41.224998474121094" y="86.5247573852539" type="line"/>
    </contour>
    <contour>
      <point x="223.7249984741211" y="0" type="line"/>
      <point x="363.7249984741211" y="0" type="line"/>
      <point x="363.7249984741211" y="713.4752426147461" type="line"/>
      <point x="277.2002410888672" y="800" type="line"/>
      <point x="223.7249984741211" y="800" type="line"/>
    </contour>
    <contour>
      <point x="459.7002410888672" y="0" type="line"/>
      <point x="546.2249984741211" y="86.5247573852539" type="line"/>
      <point x="546.2249984741211" y="800" type="line"/>
      <point x="406.2249984741211" y="800" type="line"/>
      <point x="406.2249984741211" y="0" type="line"/>
    </contour>
  </outline>
</glyph>
<glyph name="bracketleft" format="2">
  <advance width="362.45"/>
  <unicode hex="005B"/>
  <outline>
    <contour>
      <point x="41.224998474121094" y="-100" type="line"/>
      <point x="321.2249984741211" y="-100" type="line"/>
      <point x="321.2249984741211" y="-46.524757385253906" type="line"/>
      <point x="234.7002410888672" y="40" type="line"/>
      <point x="181.2249984741211" y="40" type="line"/>
      <point x="181.2249984741211" y="760" type="line"/>
      <point x="234.7002410888672" y="760" type="line"/>
      <point x="321.2249984741211" y="846.5247573852539" type="line"/>
      <point x="321.2249984741211" y="900" type="line"/>
      <point x="41.224998474121094" y="900" type="line"/>
    </contour>
  </outline>
</glyph>
<glyph name="bracketright" format="2">
  <advance width="362.45"/>
  <unicode hex="005D"/>
  <outline>
    <contour>
      <point x="41.224998474121094" y="846.5247573852539" type="line"/>
      <point x="127.74976348876953" y="760" type="line"/>
      <point x="181.2249984741211" y="760" type="line"/>
      <point x="181.2249984741211" y="40" type="line"/>
      <point x="127.74976348876953" y="40" type="line"/>
      <point x="41.224998474121094" y="-46.524757385253906" type="line"/>
      <point x="41.224998474121094" y="-100" type="line"/>
      <point x="321.2249984741211" y="-100" type="line"/>
      <point x="321.2249984741211" y="900" type="line"/>
      <point x="41.224998474121094" y="900" type="line"/>
    </contour>
  </outline>
</glyph>
<glyph name="asciicircum" format="2">
  <advance width="362.45"/>
  <unicode hex="005E"/>
  <outline>
    <contour>
      <point x="41.224998474121094" y="840" type="line"/>
      <point x="41.224998474121094" y="700" type="line"/>
      <point x="94.70024108886719" y="700" type="line"/>
      <point x="181.2249984741211" y="786.5247573852539" type="line"/>
      <point x="267.74976348876953" y="700" type="line"/>
      <point x="321.2249984741211" y="700" type="line"/>
      <point x="321.2249984741211" y="840" type="line"/>
    </contour>
  </outline>
</glyph>
<glyph name="underscore" format="2">
  <advance width="404.95"/>
  <unicode hex="005F"/>
  <outline>
    <contour>
      <point x="41.224998474121094" y="-170" type="line"/>
      <point x="363.7249984741211" y="-170" type="line"/>
      <point x="363.7249984741211" y="-30" type="line"/>
      <point x="41.224998474121094" y="-30" type="line"/>
    </contour>
  </outline>
</glyph>
<glyph name="grave" format="2">
  <advance width="222.45"/>
  <unicode hex="0060"/>
  <outline>
    <contour>
      <point x="119.975" y="940.0" type="line"/>
      <point x="-20.025" y="940.0" type="line"/>
      <point x="-20.025" y="886.52476" type="line"/>
      <point x="66.49976000000001" y="800.0" type="line"/>
      <point x="119.975" y="800.0" type="line"/>
    </contour>
  </outline>
</glyph>
<glyph name="c" format="2">
  <advance width="404.95"/>
  <unicode hex="0063"/>
  <outline>
    <contour>
      <point x="127.74976348876953" y="0" type="line"/>
      <point x="181.2249984741211" y="0" type="line"/>
      <point x="181.2249984741211" y="600" type="line"/>
      <point x="127.74976348876953" y="600" type="line"/>
      <point x="41.224998474121094" y="513.4752426147461" type="line"/>
      <point x="41.224998474121094" y="86.5247573852539" type="line"/>
    </contour>
    <contour>
      <point x="363.725" y="600.0" type="line"/>
      <point x="223.725" y="600.0" type="line"/>
      <point x="223.725" y="546.52476" type="line"/>
      <point x="310.24976000000004" y="460.0" type="line"/>
      <point x="363.725" y="460.0" type="line"/>
    </contour>
    <contour>
      <point x="361.5375" y="0.0" type="line"/>
      <point x="361.5375" y="140.0" type="line"/>
      <point x="308.06226000000004" y="140.0" type="line"/>
      <point x="221.5375" y="53.47524" type="line"/>
      <point x="221.5375" y="0.0" type="line"/>
    </contour>
  </outline>
</glyph>
<glyph name="d" format="2">
  <advance width="404.95"/>
  <unicode hex="0064"/>
  <outline>
    <contour>
      <point x="223.7249984741211" y="0" type="line"/>
      <point x="363.7249984741211" y="0" type="line"/>
      <point x="363.7249984741211" y="800" type="line"/>
      <point x="223.7249984741211" y="800" type="line"/>
    </contour>
    <contour>
      <point x="127.74976348876953" y="0" type="line"/>
      <point x="181.2249984741211" y="0" type="line"/>
      <point x="181.2249984741211" y="605" type="line"/>
      <point x="127.74976348876953" y="605" type="line"/>
      <point x="41.224998474121094" y="518.4752426147461" type="line"/>
      <point x="41.224998474121094" y="86.5247573852539" type="line"/>
    </contour>
  </outline>
</glyph>
<glyph name="e" format="2">
  <advance width="404.95"/>
  <unicode hex="0065"/>
  <outline>
    <contour>
      <point x="127.74976348876953" y="-5" type="line"/>
      <point x="181.2249984741211" y="-5" type="line"/>
      <point x="181.2249984741211" y="605" type="line"/>
      <point x="127.74976348876953" y="605" type="line"/>
      <point x="41.224998474121094" y="518.4752426147461" type="line"/>
      <point x="41.224998474121094" y="81.5247573852539" type="line"/>
    </contour>
    <contour>
      <point x="223.7249984741211" y="195" type="line"/>
      <point x="363.7249984741211" y="195" type="line"/>
      <point x="363.7249984741211" y="518.4752426147461" type="line"/>
      <point x="277.2002410888672" y="605" type="line"/>
      <point x="223.7249984741211" y="605" type="line"/>
    </contour>
  </outline>
</glyph>
<glyph name="f" format="2">
  <advance width="404.95"/>
  <unicode hex="0066"/>
  <outline>
    <contour>
      <point x="41.224998474121094" y="0" type="line"/>
      <point x="181.2249984741211" y="0" type="line"/>
      <point x="181.2249984741211" y="800" type="line"/>
      <point x="127.74976348876953" y="800" type="line"/>
      <point x="41.224998474121094" y="713.4752426147461" type="line"/>
    </contour>
    <contour>
      <point x="363.725" y="800.0" type="line"/>
      <point x="223.725" y="800.0" type="line"/>
      <point x="223.725" y="746.52476" type="line"/>
      <point x="310.24976000000004" y="660.0" type="line"/>
      <point x="363.725" y="660.0" type="line"/>
    </contour>
    <contour>
      <point x="363.725" y="587.5" type="line"/>
      <point x="223.725" y="587.5" type="line"/>
      <point x="223.725" y="534.02476" type="line"/>
      <point x="310.24976000000004" y="447.5" type="line"/>
      <point x="363.725" y="447.5" type="line"/>
    </contour>
  </outline>
</glyph>
<glyph name="h" format="2">
  <advance width="404.95"/>
  <unicode hex="0068"/>
  <outline>
    <contour>
      <point x="41.224998474121094" y="0" type="line"/>
      <point x="181.2249984741211" y="0" type="line"/>
      <point x="181.2249984741211" y="800" type="line"/>
      <point x="41.224998474121094" y="800" type="line"/>
    </contour>
    <contour>
      <point x="223.7249984741211" y="0" type="line"/>
      <point x="363.7249984741211" y="0" type="line"/>
      <point x="363.7249984741211" y="513.4752426147461" type="line"/>
      <point x="277.2002410888672" y="600" type="line"/>
      <point x="223.7249984741211" y="600" type="line"/>
    </contour>
  </outline>
</glyph>
<glyph name="i" format="2">
  <advance width="222.45"/>
  <unicode hex="0069"/>
  <outline>
    <contour>
      <point x="41.225" y="641.66667" type="line"/>
      <point x="181.225" y="641.66667" type="line"/>
      <point x="181.225" y="781.66667" type="line"/>
      <point x="41.225" y="781.66667" type="line"/>
    </contour>
    <contour>
      <point x="41.224998474121094" y="0" type="line"/>
      <point x="181.2249984741211" y="0" type="line"/>
      <point x="181.2249984741211" y="600" type="line"/>
      <point x="41.224998474121094" y="600" type="line"/>
    </contour>
  </outline>
</glyph>
<glyph name="j" format="2">
  <advance width="404.95"/>
  <unicode hex="006A"/>
  <outline>
    <contour>
      <point x="223.725" y="641.66667" type="line"/>
      <point x="363.725" y="641.66667" type="line"/>
      <point x="363.725" y="781.66667" type="line"/>
      <point x="223.725" y="781.66667" type="line"/>
    </contour>
    <contour>
      <point x="277.2002410888672" y="-210" type="line"/>
      <point x="363.7249984741211" y="-123.4752426147461" type="line"/>
      <point x="363.7249984741211" y="600" type="line"/>
      <point x="223.7249984741211" y="600" type="line"/>
      <point x="223.7249984741211" y="-210" type="line"/>
    </contour>
    <contour>
      <point x="181.225" y="-70.0" type="line"/>
      <point x="41.225" y="-70.0" type="line"/>
      <point x="41.225" y="-123.47524" type="line"/>
      <point x="127.74976000000001" y="-210.0" type="line"/>
      <point x="181.225" y="-210.0" type="line"/>
    </contour>
  </outline>
</glyph>
<glyph name="l" format="2">
  <advance width="222.45"/>
  <unicode hex="006C"/>
  <outline>
    <contour>
      <point x="127.74976348876953" y="-5" type="line"/>
      <point x="181.2249984741211" y="-5" type="line"/>
      <point x="181.2249984741211" y="800" type="line"/>
      <point x="41.224998474121094" y="800" type="line"/>
      <point x="41.224998474121094" y="81.5247573852539" type="line"/>
    </contour>
  </outline>
</glyph>
<glyph name="m" format="2">
  <advance width="587.45"/>
  <unicode hex="006D"/>
  <outline>
    <contour>
      <point x="41.224998474121094" y="0" type="line"/>
      <point x="181.2249984741211" y="0" type="line"/>
      <point x="181.2249984741211" y="600" type="line"/>
      <point x="41.224998474121094" y="600" type="line"/>
    </contour>
    <contour>
      <point x="223.7249984741211" y="0" type="line"/>
      <point x="363.7249984741211" y="0" type="line"/>
      <point x="363.7249984741211" y="600" type="line"/>
      <point x="223.7249984741211" y="600" type="line"/>
    </contour>
    <contour>
      <point x="406.2249984741211" y="0" type="line"/>
      <point x="546.2249984741211" y="0" type="line"/>
      <point x="546.2249984741211" y="513.4752426147461" type="line"/>
      <point x="459.7002410888672" y="600" type="line"/>
      <point x="406.2249984741211" y="600" type="line"/>
    </contour>
  </outline>
</glyph>
<glyph name="q" format="2">
  <advance width="404.95"/>
  <unicode hex="0071"/>
  <outline>
    <contour>
      <point x="127.74976348876953" y="0" type="line"/>
      <point x="181.2249984741211" y="0" type="line"/>
      <point x="181.2249984741211" y="600" type="line"/>
      <point x="127.74976348876953" y="600" type="line"/>
      <point x="41.224998474121094" y="513.4752426147461" type="line"/>
      <point x="41.224998474121094" y="86.5247573852539" type="line"/>
    </contour>
    <contour>
      <point x="223.7249984741211" y="-200" type="line"/>
      <point x="363.7249984741211" y="-200" type="line"/>
      <point x="363.7249984741211" y="600" type="line"/>
      <point x="223.7249984741211" y="600" type="line"/>
    </contour>
  </outline>
</glyph>
<glyph name="r" format="2">
  <advance width="404.95"/>
  <unicode hex="0072"/>
  <outline>
    <contour>
      <point x="41.224998474121094" y="0" type="line"/>
      <point x="181.2249984741211" y="0" type="line"/>
      <point x="181.2249984741211" y="600" type="line"/>
      <point x="41.224998474121094" y="600" type="line"/>
    </contour>
    <contour>
      <point x="363.725" y="600.0" type="line"/>
      <point x="223.725" y="600.0" type="line"/>
      <point x="223.725" y="546.52476" type="line"/>
      <point x="310.24976000000004" y="460.0" type="line"/>
      <point x="363.725" y="460.0" type="line"/>
    </contour>
  </outline>
</glyph>
<glyph name="t" format="2">
  <advance width="404.95"/>
  <unicode hex="0074"/>
  <outline>
    <contour>
      <point x="41.224998474121094" y="0" type="line"/>
      <point x="181.2249984741211" y="0" type="line"/>
      <point x="181.2249984741211" y="800" type="line"/>
      <point x="127.74976348876953" y="800" type="line"/>
      <point x="41.224998474121094" y="713.4752426147461" type="line"/>
    </contour>
    <contour>
      <point x="223.725" y="600.0" type="line"/>
      <point x="223.725" y="460.0" type="line"/>
      <point x="277.20024" y="460.0" type="line"/>
      <point x="363.725" y="546.52476" type="line"/>
      <point x="363.725" y="600.0" type="line"/>
    </contour>
  </outline>
</glyph>
<glyph name="x" format="2">
  <advance width="404.95"/>
  <unicode hex="0078"/>
  <outline>
    <contour>
      <point x="41.224998474121094" y="0" type="line"/>
      <point x="181.2249984741211" y="0" type="line"/>
      <point x="181.2249984741211" y="600" type="line"/>
      <point x="41.224998474121094" y="600" type="line"/>
      <point x="41.224998474121094" y="386.5247573852539" type="line"/>
      <point x="127.74976348876953" y="300" type="line"/>
      <point x="41.224998474121094" y="213.4752426147461" type="line"/>
    </contour>
    <contour>
      <point x="223.7249984741211" y="0" type="line"/>
      <point x="363.7249984741211" y="0" type="line"/>
      <point x="363.7249984741211" y="213.4752426147461" type="line"/>
      <point x="277.2002410888672" y="300" type="line"/>
      <point x="363.7249984741211" y="386.5247573852539" type="line"/>
      <point x="363.7249984741211" y="600" type="line"/>
      <point x="223.7249984741211" y="600" type="line"/>
    </contour>
  </outline>
</glyph>
<glyph name="braceleft" format="2">
  <advance width="222.45"/>
  <unicode hex="007B"/>
  <outline>
    <contour>
      <point x="127.74976348876953" y="-100" type="line"/>
      <point x="181.2249984741211" y="-100" type="line"/>
      <point x="181.2249984741211" y="313.4752426147461" type="line"/>
      <point x="94.70024108886719" y="400" type="line"/>
      <point x="181.2249984741211" y="486.5247573852539" type="line"/>
      <point x="181.2249984741211" y="900" type="line"/>
      <point x="127.74976348876953" y="900" type="line"/>
      <point x="41.224998474121094" y="813.4752426147461" type="line"/>
      <point x="41.224998474121094" y="-13.475242614746094" type="line"/>
    </contour>
  </outline>
</glyph>
<glyph name="bar" format="2">
  <advance width="222.45"/>
  <unicode hex="007C"/>
  <outline>
    <contour>
      <point x="41.224998474121094" y="-100" type="line"/>
      <point x="181.2249984741211" y="-100" type="line"/>
      <point x="181.2249984741211" y="900" type="line"/>
      <point x="41.224998474121094" y="900" type="line"/>
    </contour>
  </outline>
</glyph>
<glyph name="tilde" format="2">
  <advance width="404.95"/>
  <unicode hex="007E"/>
  <outline>
    <contour>
      <point x="41.224998474121094" y="383.4752426147461" type="line"/>
      <point x="41.224998474121094" y="330" type="line"/>
      <point x="277.2002410888672" y="330" type="line"/>
      <point x="363.7249984741211" y="416.5247573852539" type="line"/>
      <point x="363.7249984741211" y="470" type="line"/>
      <point x="127.74976348876953" y="470" type="line"/>
    </contour>
  </outline>
</glyph>
<glyph name="invexclamation" format="2">
  <advance width="222.45"/>
  <unicode hex="00A1"/>
  <outline>
    <contour>
      <point x="41.225" y="460.0" type="line"/>
      <point x="181.225" y="460.0" type="line"/>
      <point x="181.225" y="600.0" type="line"/>
      <point x="41.225" y="600.0" type="line"/>
    </contour>
    <contour>
      <point x="41.224998474121094" y="-200" type="line"/>
      <point x="181.2249984741211" y="-200" type="line"/>
      <point x="181.2249984741211" y="378.75" type="line"/>
      <point x="41.224998474121094" y="378.75" type="line"/>
    </contour>
  </outline>
</glyph>
<glyph name="cent" format="2">
  <advance width="404.95"/>
  <unicode hex="00A2"/>
  <outline>
    <contour>
      <point x="111.2249984741211" y="0" type="line"/>
      <point x="181.2249984741211" y="0" type="line"/>
      <point x="181.2249984741211" y="600" type="line"/>
      <point x="111.2249984741211" y="600" type="line"/>
      <point x="111.2249984741211" y="488.47523498535156" type="line"/>
      <point x="41.224998474121094" y="418.4752426147461" type="line"/>
      <point x="41.224998474121094" y="181.5247573852539" type="line"/>
      <point x="111.2249984741211" y="111.52476501464844" type="line"/>
    </contour>
    <contour>
      <point x="363.7249984741211" y="510" type="line"/>
      <point x="293.7249984741211" y="510" type="line"/>
      <point x="293.7249984741211" y="600" type="line"/>
      <point x="223.7249984741211" y="600" type="line"/>
      <point x="223.7249984741211" y="456.5247573852539" type="line"/>
      <point x="310.24976348876953" y="370" type="line"/>
      <point x="363.7249984741211" y="370" type="line"/>
    </contour>
    <contour>
      <point x="223.7249984741211" y="0" type="line"/>
      <point x="293.7249984741211" y="0" type="line"/>
      <point x="293.7249984741211" y="90" type="line"/>
      <point x="363.7249984741211" y="90" type="line"/>
      <point x="363.7249984741211" y="230" type="line"/>
      <point x="310.24976348876953" y="230" type="line"/>
      <point x="223.7249984741211" y="143.4752426147461" type="line"/>
    </contour>
  </outline>
</glyph>
<glyph name="pound" format="2">
  <advance width="522.45"/>
  <unicode hex="00A3"/>
  <outline>
    <contour>
      <point x="153.7249984741211" y="0" type="line"/>
      <point x="293.7249984741211" y="0" type="line"/>
      <point x="293.7249984741211" y="805" type="line"/>
      <point x="240.24976348876953" y="805" type="line"/>
      <point x="153.7249984741211" y="718.4752426147461" type="line"/>
    </contour>
    <contour>
      <point x="481.225" y="758.64745" type="line"/>
      <point x="434.87245" y="805.0" type="line"/>
      <point x="377.57755000000003" y="805.0" type="line"/>
      <point x="331.225" y="758.64745" type="line"/>
      <point x="331.225" y="701.35255" type="line"/>
      <point x="377.57755000000003" y="655.0" type="line"/>
      <point x="434.87245" y="655.0" type="line"/>
      <point x="481.225" y="701.35255" type="line"/>
    </contour>
    <contour>
      <point x="41.225" y="365.0" type="line"/>
      <point x="111.225" y="365.0" type="line"/>
      <point x="111.225" y="435.0" type="line"/>
      <point x="41.225" y="435.0" type="line"/>
    </contour>
    <contour>
      <point x="336.2249984741211" y="365" type="line"/>
      <point x="441.2249984741211" y="365" type="line"/>
      <point x="441.2249984741211" y="435" type="line"/>
      <point x="336.2249984741211" y="435" type="line"/>
    </contour>
    <contour>
      <point x="476.225" y="0.0" type="line"/>
      <point x="476.225" y="140.0" type="line"/>
      <point x="422.74976000000004" y="140.0" type="line"/>
      <point x="336.225" y="53.47524" type="line"/>
      <point x="336.225" y="0.0" type="line"/>
    </contour>
    <contour>
      <point x="41.225" y="0" type="line"/>
      <point x="111.225" y="0" type="line"/>
      <point x="111.225" y="70.0" type="line"/>
      <point x="41.225" y="70.0" type="line"/>
    </contour>
  </outline>
</glyph>
<glyph name="currency" format="2">
  <advance width="404.95"/>
  <unicode hex="00A4"/>
  <outline>
    <contour>
      <point x="41.224998474121094" y="215" type="line"/>
      <point x="111.2249984741211" y="215" type="line"/>
      <point x="111.2249984741211" y="246.52476501464844" type="line"/>
      <point x="127.74976348876953" y="230" type="line"/>
      <point x="181.2249984741211" y="230" type="line"/>
      <point x="181.2249984741211" y="570" type="line"/>
      <point x="127.74976348876953" y="570" type="line"/>
      <point x="111.2249984741211" y="553.4752349853516" type="line"/>
      <point x="111.2249984741211" y="585" type="line"/>
      <point x="41.224998474121094" y="585" type="line"/>
      <point x="41.224998474121094" y="515" type="line"/>
      <point x="72.749755859375" y="515" type="line"/>
      <point x="41.224998474121094" y="483.4752426147461" type="line"/>
      <point x="41.224998474121094" y="316.5247573852539" type="line"/>
      <point x="72.749755859375" y="285" type="line"/>
      <point x="41.224998474121094" y="285" type="line"/>
    </contour>
    <contour>
      <point x="293.7249984741211" y="215" type="line"/>
      <point x="363.7249984741211" y="215" type="line"/>
      <point x="363.7249984741211" y="285" type="line"/>
      <point x="332.2002410888672" y="285" type="line"/>
      <point x="363.7249984741211" y="316.5247573852539" type="line"/>
      <point x="363.7249984741211" y="483.4752426147461" type="line"/>
      <point x="332.2002410888672" y="515" type="line"/>
      <point x="363.7249984741211" y="515" type="line"/>
      <point x="363.7249984741211" y="585" type="line"/>
      <point x="293.7249984741211" y="585" type="line"/>
      <point x="293.7249984741211" y="553.4752426147461" type="line"/>
      <point x="277.2002410888672" y="570" type="line"/>
      <point x="223.7249984741211" y="570" type="line"/>
      <point x="223.7249984741211" y="230" type="line"/>
      <point x="277.2002410888672" y="230" type="line"/>
      <point x="293.7249984741211" y="246.5247573852539" type="line"/>
    </contour>
  </outline>
</glyph>
<glyph name="yen" format="2">
  <advance width="629.95"/>
  <unicode hex="00A5"/>
  <outline>
    <contour>
      <point x="240.24976348876953" y="200" type="line"/>
      <point x="293.7249984741211" y="200" type="line"/>
      <point x="293.7249984741211" y="718.4752426147461" type="line"/>
      <point x="207.2002410888672" y="805" type="line"/>
      <point x="153.7249984741211" y="805" type="line"/>
      <point x="153.7249984741211" y="286.5247573852539" type="line"/>
    </contour>
    <contour>
      <point x="389.7002410888672" y="-5" type="line"/>
      <point x="476.2249984741211" y="81.5247573852539" type="line"/>
      <point x="476.2249984741211" y="800" type="line"/>
      <point x="336.2249984741211" y="800" type="line"/>
      <point x="336.2249984741211" y="-5" type="line"/>
    </contour>
    <contour>
      <point x="41.225" y="540.0" type="line"/>
      <point x="111.225" y="540.0" type="line"/>
      <point x="111.225" y="610.0" type="line"/>
      <point x="41.225" y="610.0" type="line"/>
    </contour>
    <contour>
      <point x="518.725" y="540.0" type="line"/>
      <point x="588.725" y="540.0" type="line"/>
      <point x="588.725" y="610.0" type="line"/>
      <point x="518.725" y="610.0" type="line"/>
    </contour>
    <contour>
      <point x="41.225" y="390.0" type="line"/>
      <point x="111.225" y="390.0" type="line"/>
      <point x="111.225" y="460.0" type="line"/>
      <point x="41.225" y="460.0" type="line"/>
    </contour>
    <contour>
      <point x="518.725" y="390.0" type="line"/>
      <point x="588.725" y="390.0" type="line"/>
      <point x="588.725" y="460.0" type="line"/>
      <point x="518.725" y="460.0" type="line"/>
    </contour>
  </outline>
</glyph>
<glyph name="section" format="2">
  <advance width="404.95"/>
  <unicode hex="00A7"/>
  <outline>
    <contour>
      <point x="41.224998474121094" y="413.4752426147461" type="line"/>
      <point x="41.224998474121094" y="186.5247573852539" type="line"/>
      <point x="127.74976348876953" y="100" type="line"/>
      <point x="181.2249984741211" y="100" type="line"/>
      <point x="181.2249984741211" y="800" type="line"/>
      <point x="127.74976348876953" y="800" type="line"/>
      <point x="41.224998474121094" y="713.4752426147461" type="line"/>
      <point x="41.224998474121094" y="516.5247573852539" type="line"/>
      <point x="92.74976348876953" y="465" type="line"/>
    </contour>
    <contour>
      <point x="363.725" y="800.0" type="line"/>
      <point x="223.725" y="800.0" type="line"/>
      <point x="223.725" y="746.52476" type="line"/>
      <point x="310.24976000000004" y="660.0" type="line"/>
      <point x="363.725" y="660.0" type="line"/>
    </contour>
    <contour>
      <point x="277.2002410888672" y="-200" type="line"/>
      <point x="363.7249984741211" y="-113.4752426147461" type="line"/>
      <point x="363.7249984741211" y="83.4752426147461" type="line"/>
      <point x="312.2002410888672" y="135" type="line"/>
      <point x="363.7249984741211" y="186.5247573852539" type="line"/>
      <point x="363.7249984741211" y="413.4752426147461" type="line"/>
      <point x="277.2002410888672" y="500" type="line"/>
      <point x="223.7249984741211" y="500" type="line"/>
      <point x="223.7249984741211" y="-200" type="line"/>
    </contour>
    <contour>
      <point x="41.225" y="-200" type="line"/>
      <point x="181.225" y="-200" type="line"/>
      <point x="181.225" y="-146.52476" type="line"/>
      <point x="94.70024000000001" y="-60.0" type="line"/>
      <point x="41.225" y="-60.0" type="line"/>
    </contour>
  </outline>
</glyph>
<glyph name="diaeresis" format="2">
  <advance width="404.95"/>
  <unicode hex="00A8"/>
  <outline>
    <contour>
      <point x="41.225" y="860.0" type="line"/>
      <point x="181.225" y="860.0" type="line"/>
      <point x="181.225" y="1000.0" type="line"/>
      <point x="41.225" y="1000.0" type="line"/>
    </contour>
    <contour>
      <point x="223.725" y="860.0" type="line"/>
      <point x="363.725" y="860.0" type="line"/>
      <point x="363.725" y="1000.0" type="line"/>
      <point x="223.725" y="1000.0" type="line"/>
    </contour>
  </outline>
</glyph>
<glyph name="copyright" format="2">
  <advance width="954.8433400000001"/>
  <unicode hex="00A9"/>
  <outline>
    <contour>
      <point x="843.6183400000001" y="551.68363" type="line"/>
      <point x="629.1053" y="766.19667" type="line"/>
      <point x="325.73804" y="766.19667" type="line"/>
      <point x="111.225" y="551.68363" type="line"/>
      <point x="111.225" y="248.31637" type="line"/>
      <point x="325.73804" y="33.80333" type="line"/>
      <point x="629.1053" y="33.80333" type="line"/>
      <point x="843.6183400000001" y="248.31637" type="line"/>
    </contour>
    <contour>
      <point x="393.94642639160156" y="190" type="line"/>
      <point x="307.42166900634766" y="276.5247573852539" type="line"/>
      <point x="307.42166900634766" y="523.4752426147461" type="line"/>
      <point x="393.94642639160156" y="610" type="line"/>
      <point x="447.42166900634766" y="610" type="line"/>
      <point x="447.42166900634766" y="190" type="line"/>
    </contour>
    <contour>
      <point x="629.9216700000001" y="610.0" type="line"/>
      <point x="629.9216700000001" y="470.0" type="line"/>
      <point x="576.4464300000001" y="470.0" type="line"/>
      <point x="489.92167000000006" y="556.52476" type="line"/>
      <point x="489.92167000000006" y="610.0" type="line"/>
    </contour>
    <contour>
      <point x="629.9216700000001" y="190.0" type="line"/>
      <point x="489.92167000000006" y="190.0" type="line"/>
      <point x="489.92167000000006" y="243.47524" type="line"/>
      <point x="576.4464300000001" y="330.0" type="line"/>
      <point x="629.9216700000001" y="330.0" type="line"/>
    </contour>
  </outline>
</glyph>
<glyph name="ordinalfeminine" format="2">
  <advance width="404.95"/>
  <unicode hex="00AA"/>
  <outline>
    <contour>
      <point x="127.74976348876953" y="400" type="line"/>
      <point x="181.2249984741211" y="400" type="line"/>
      <point x="181.2249984741211" y="800" type="line"/>
      <point x="127.74976348876953" y="800" type="line"/>
      <point x="41.224998474121094" y="713.4752426147461" type="line"/>
      <point x="41.224998474121094" y="486.5247573852539" type="line"/>
    </contour>
    <contour>
      <point x="310.24976348876953" y="400" type="line"/>
      <point x="363.7249984741211" y="400" type="line"/>
      <point x="363.7249984741211" y="800" type="line"/>
      <point x="223.7249984741211" y="800" type="line"/>
      <point x="223.7249984741211" y="486.5247573852539" type="line"/>
    </contour>
  </outline>
</glyph>
<glyph name="angledblleft" format="2">
  <advance width="404.95"/>
  <unicode hex="00AB"/>
  <outline>
    <contour>
      <point x="127.74976348876953" y="260" type="line"/>
      <point x="181.2249984741211" y="260" type="line"/>
      <point x="181.2249984741211" y="540" type="line"/>
      <point x="127.74976348876953" y="540" type="line"/>
      <point x="41.224998474121094" y="453.4752426147461" type="line"/>
      <point x="41.224998474121094" y="346.5247573852539" type="line"/>
    </contour>
    <contour>
      <point x="310.24976348876953" y="260" type="line"/>
      <point x="363.7249984741211" y="260" type="line"/>
      <point x="363.7249984741211" y="540" type="line"/>
      <point x="310.24976348876953" y="540" type="line"/>
      <point x="223.7249984741211" y="453.4752426147461" type="line"/>
      <point x="223.7249984741211" y="346.5247573852539" type="line"/>
    </contour>
  </outline>
</glyph>
<glyph name="registered" format="2">
  <advance width="954.8433399999999"/>
  <unicode hex="00AE"/>
  <outline>
    <contour>
      <point x="843.61834" y="551.68363" type="line"/>
      <point x="629.1053" y="766.19667" type="line"/>
      <point x="325.73804" y="766.19667" type="line"/>
      <point x="111.225" y="551.68363" type="line"/>
      <point x="111.225" y="248.31637" type="line"/>
      <point x="325.73804" y="33.80333" type="line"/>
      <point x="629.1053" y="33.80333" type="line"/>
      <point x="843.61834" y="248.31637" type="line"/>
    </contour>
    <contour>
      <point x="333.67166900634766" y="200" type="line"/>
      <point x="333.67166900634766" y="600" type="line"/>
      <point x="473.67166900634766" y="600" type="line"/>
      <point x="473.67166900634766" y="200" type="line"/>
    </contour>
    <contour>
      <point x="656.1716700000001" y="600.0" type="line"/>
      <point x="656.1716700000001" y="460.0" type="line"/>
      <point x="602.6964300000001" y="460.0" type="line"/>
      <point x="516.1716700000001" y="546.52476" type="line"/>
      <point x="516.1716700000001" y="600.0" type="line"/>
    </contour>
  </outline>
</glyph>
<glyph name="macron" format="2">
  <advance width="404.95"/>
  <unicode hex="00AF"/>
  <outline>
    <contour>
      <point x="62.474998474121094" y="800" type="line"/>
      <point x="342.4749984741211" y="800" type="line"/>
      <point x="342.4749984741211" y="940" type="line"/>
      <point x="62.474998474121094" y="940" type="line"/>
    </contour>
  </outline>
</glyph>
<glyph name="degree" format="2">
  <advance width="274.95"/>
  <unicode hex="00B0"/>
  <outline>
    <contour>
      <point x="116.225" y="805.0" type="line"/>
      <point x="87.57755" y="805.0" type="line"/>
      <point x="41.225" y="758.64745" type="line"/>
      <point x="41.225" y="701.35255" type="line"/>
      <point x="87.57755" y="655.0" type="line"/>
      <point x="116.225" y="655.0" type="line"/>
    </contour>
    <contour>
      <point x="158.725" y="655.0" type="line"/>
      <point x="187.37245" y="655.0" type="line"/>
      <point x="233.725" y="701.35255" type="line"/>
      <point x="233.725" y="758.64745" type="line"/>
      <point x="187.37245" y="805.0" type="line"/>
      <point x="158.725" y="805.0" type="line"/>
    </contour>
  </outline>
</glyph>
<glyph name="plus_minus" format="2">
  <advance width="587.45"/>
  <unicode hex="00B1"/>
  <outline>
    <contour>
      <point x="223.7249984741211" y="300" type="line"/>
      <point x="363.7249984741211" y="300" type="line"/>
      <point x="363.7249984741211" y="430" type="line"/>
      <point x="503.7249984741211" y="430" type="line"/>
      <point x="503.7249984741211" y="570" type="line"/>
      <point x="363.7249984741211" y="570" type="line"/>
      <point x="363.7249984741211" y="700" type="line"/>
      <point x="223.7249984741211" y="700" type="line"/>
      <point x="223.7249984741211" y="570" type="line"/>
      <point x="83.7249984741211" y="570" type="line"/>
      <point x="83.7249984741211" y="430" type="line"/>
      <point x="223.7249984741211" y="430" type="line"/>
    </contour>
    <contour>
      <point x="83.7249984741211" y="130" type="line"/>
      <point x="503.7249984741211" y="130" type="line"/>
      <point x="503.7249984741211" y="270" type="line"/>
      <point x="83.7249984741211" y="270" type="line"/>
    </contour>
  </outline>
</glyph>
<glyph name="sup_two" format="2">
  <advance width="404.95"/>
  <unicode hex="00B2"/>
  <outline>
    <contour>
      <point x="181.225" y="665.0" type="line"/>
      <point x="181.225" y="805.0" type="line"/>
      <point x="127.74976000000001" y="805.0" type="line"/>
      <point x="41.225" y="718.47524" type="line"/>
      <point x="41.225" y="665.0" type="line"/>
    </contour>
    <contour>
      <point x="277.2002410888672" y="369" type="line"/>
      <point x="363.7249984741211" y="455.5247573852539" type="line"/>
      <point x="363.7249984741211" y="718.4752426147461" type="line"/>
      <point x="277.2002410888672" y="805" type="line"/>
      <point x="223.7249984741211" y="805" type="line"/>
      <point x="223.7249984741211" y="369" type="line"/>
    </contour>
    <contour>
      <point x="41.224998474121094" y="253.4752426147461" type="line"/>
      <point x="41.224998474121094" y="200" type="line"/>
      <point x="363.7249984741211" y="200" type="line"/>
      <point x="363.7249984741211" y="340" type="line"/>
      <point x="127.74976348876953" y="340" type="line"/>
    </contour>
  </outline>
</glyph>
<glyph name="sup_three" format="2">
  <advance width="404.95"/>
  <unicode hex="00B3"/>
  <outline>
    <contour>
      <point x="41.225" y="800.0" type="line"/>
      <point x="41.225" y="660.0" type="line"/>
      <point x="94.70024000000001" y="660.0" type="line"/>
      <point x="181.225" y="746.52476" type="line"/>
      <point x="181.225" y="800.0" type="line"/>
    </contour>
    <contour>
      <point x="277.2002410888672" y="195" type="line"/>
      <point x="363.7249984741211" y="281.5247573852539" type="line"/>
      <point x="363.7249984741211" y="513.4752426147461" type="line"/>
      <point x="277.2002410888672" y="600" type="line"/>
      <point x="363.7249984741211" y="686.5247573852539" type="line"/>
      <point x="363.7249984741211" y="800" type="line"/>
      <point x="223.7249984741211" y="800" type="line"/>
      <point x="223.7249984741211" y="195" type="line"/>
    </contour>
    <contour>
      <point x="181.225" y="335.0" type="line"/>
      <point x="41.225" y="335.0" type="line"/>
      <point x="41.225" y="281.52476" type="line"/>
      <point x="127.74976000000001" y="195.0" type="line"/>
      <point x="181.225" y="195.0" type="line"/>
    </contour>
  </outline>
</glyph>
<glyph name="acute" format="2">
  <advance width="222.45"/>
  <unicode hex="00B4"/>
  <outline>
    <contour>
      <point x="102.475" y="940.0" type="line"/>
      <point x="102.475" y="800.0" type="line"/>
      <point x="155.95024" y="800.0" type="line"/>
      <point x="242.475" y="886.52476" type="line"/>
      <point x="242.475" y="940.0" type="line"/>
    </contour>
  </outline>
</glyph>
<glyph name="mu" format="2">
  <advance width="447.45"/>
  <unicode hex="00B5"/>
  <outline>
    <contour>
      <point x="41.224998474121094" y="-200" type="line"/>
      <point x="181.2249984741211" y="-200" type="line"/>
      <point x="181.2249984741211" y="600" type="line"/>
      <point x="41.224998474121094" y="600" type="line"/>
    </contour>
    <contour>
      <point x="310.24976348876953" y="0" type="line"/>
      <point x="406.2249984741211" y="0" type="line"/>
      <point x="406.2249984741211" y="140" type="line"/>
      <point x="363.7249984741211" y="140" type="line"/>
      <point x="363.7249984741211" y="600" type="line"/>
      <point x="223.7249984741211" y="600" type="line"/>
      <point x="223.7249984741211" y="86.5247573852539" type="line"/>
    </contour>
  </outline>
</glyph>
<glyph name="cedilla" format="2">
  <advance width="222.45"/>
  <unicode hex="00B8"/>
  <outline>
    <contour>
      <point x="102.475" y="-140.0" type="line"/>
      <point x="242.475" y="-140.0" type="line"/>
      <point x="242.475" y="-86.52476" type="line"/>
      <point x="155.95024" y="0.0" type="line"/>
      <point x="102.475" y="0.0" type="line"/>
    </contour>
  </outline>
</glyph>
<glyph name="sup_one" format="2">
  <advance width="222.45"/>
  <unicode hex="00B9"/>
  <outline>
    <contour>
      <point x="41.224998474121094" y="200" type="line"/>
      <point x="181.2249984741211" y="200" type="line"/>
      <point x="181.2249984741211" y="800" type="line"/>
      <point x="41.224998474121094" y="800" type="line"/>
    </contour>
  </outline>
</glyph>
<glyph name="angledblright" format="2">
  <advance width="404.95"/>
  <unicode hex="00BB"/>
  <outline>
    <contour>
      <point x="94.70024108886719" y="260" type="line"/>
      <point x="181.2249984741211" y="346.5247573852539" type="line"/>
      <point x="181.2249984741211" y="453.4752426147461" type="line"/>
      <point x="94.70024108886719" y="540" type="line"/>
      <point x="41.224998474121094" y="540" type="line"/>
      <point x="41.224998474121094" y="260" type="line"/>
    </contour>
    <contour>
      <point x="277.2002410888672" y="260" type="line"/>
      <point x="363.7249984741211" y="346.5247573852539" type="line"/>
      <point x="363.7249984741211" y="453.4752426147461" type="line"/>
      <point x="277.2002410888672" y="540" type="line"/>
      <point x="223.7249984741211" y="540" type="line"/>
      <point x="223.7249984741211" y="260" type="line"/>
    </contour>
  </outline>
</glyph>
<glyph name="one_over_two" format="2">
  <advance width="769.95"/>
  <unicode hex="00BD"/>
  <outline>
    <contour>
      <point x="19.974998474121094" y="200" type="line"/>
      <point x="159.9749984741211" y="200" type="line"/>
      <point x="159.9749984741211" y="800" type="line"/>
      <point x="19.974998474121094" y="800" type="line"/>
    </contour>
    <contour>
      <point x="277.2002410888672" y="-200" type="line"/>
      <point x="363.7249984741211" y="-113.4752426147461" type="line"/>
      <point x="363.7249984741211" y="800" type="line"/>
      <point x="310.24976348876953" y="800" type="line"/>
      <point x="223.7249984741211" y="713.4752426147461" type="line"/>
      <point x="223.7249984741211" y="-200" type="line"/>
    </contour>
    <contour>
      <point x="567.475" y="265.0" type="line"/>
      <point x="567.475" y="405.0" type="line"/>
      <point x="513.99976" y="405.0" type="line"/>
      <point x="427.475" y="318.47524" type="line"/>
      <point x="427.475" y="265.0" type="line"/>
    </contour>
    <contour>
      <point x="663.4502410888672" y="-31" type="line"/>
      <point x="749.9749984741211" y="55.524757385253906" type="line"/>
      <point x="749.9749984741211" y="318.4752426147461" type="line"/>
      <point x="663.4502410888672" y="405" type="line"/>
      <point x="609.9749984741211" y="405" type="line"/>
      <point x="609.9749984741211" y="-31" type="line"/>
    </contour>
    <contour>
      <point x="427.4749984741211" y="-146.5247573852539" type="line"/>
      <point x="427.4749984741211" y="-200" type="line"/>
      <point x="749.9749984741211" y="-200" type="line"/>
      <point x="749.9749984741211" y="-60" type="line"/>
      <point x="513.9997634887695" y="-60" type="line"/>
    </contour>
  </outline>
</glyph>
<glyph name="invquestion" format="2">
  <advance width="404.95"/>
  <unicode hex="00BF"/>
  <outline>
    <contour>
      <point x="223.725" y="460.0" type="line"/>
      <point x="363.725" y="460.0" type="line"/>
      <point x="363.725" y="600.0" type="line"/>
      <point x="223.725" y="600.0" type="line"/>
    </contour>
    <contour>
      <point x="223.7249984741211" y="378.75" type="line"/>
      <point x="223.7249984741211" y="65" type="line"/>
      <point x="277.2002410888672" y="65" type="line"/>
      <point x="363.7249984741211" y="151.5247573852539" type="line"/>
      <point x="363.7249984741211" y="378.75" type="line"/>
    </contour>
    <contour>
      <point x="127.74976348876953" y="-205" type="line"/>
      <point x="181.2249984741211" y="-205" type="line"/>
      <point x="181.2249984741211" y="195" type="line"/>
      <point x="127.74976348876953" y="195" type="line"/>
      <point x="41.224998474121094" y="108.4752426147461" type="line"/>
      <point x="41.224998474121094" y="-118.4752426147461" type="line"/>
    </contour>
    <contour>
      <point x="363.725" y="-205.0" type="line"/>
      <point x="363.725" y="-65.0" type="line"/>
      <point x="310.24976000000004" y="-65.0" type="line"/>
      <point x="223.725" y="-151.52476" type="line"/>
      <point x="223.725" y="-205.0" type="line"/>
    </contour>
  </outline>
</glyph>
<glyph name="A_with_grave" format="2">
  <advance width="404.95"/>
  <unicode hex="00C0"/>
  <outline>
    <contour>
      <point x="211.225" y="981.6666666666666" type="line"/>
      <point x="71.225" y="981.6666666666666" type="line"/>
      <point x="71.225" y="928.1914266666666" type="line"/>
      <point x="157.74975999999998" y="841.6666666666666" type="line"/>
      <point x="211.225" y="841.6666666666666" type="line"/>
    </contour>
    <contour>
      <point x="41.224998474121094" y="0" type="line"/>
      <point x="181.2249984741211" y="0" type="line"/>
      <point x="181.2249984741211" y="805" type="line"/>
      <point x="127.74976348876953" y="805" type="line"/>
      <point x="41.224998474121094" y="718.4752426147461" type="line"/>
    </contour>
    <contour>
      <point x="223.7249984741211" y="0" type="line"/>
      <point x="363.7249984741211" y="0" type="line"/>
      <point x="363.7249984741211" y="718.4752426147461" type="line"/>
      <point x="277.2002410888672" y="805" type="line"/>
      <point x="223.7249984741211" y="805" type="line"/>
    </contour>
  </outline>
</glyph>
<glyph name="A_with_circumflex" format="2">
  <advance width="404.95"/>
  <unicode hex="00C2"/>
  <outline>
    <contour>
      <point x="58.099999999999994" y="981.6666666666666" type="line"/>
      <point x="58.099999999999994" y="841.6666666666666" type="line"/>
      <point x="111.57524" y="841.6666666666666" type="line"/>
      <point x="198.1" y="928.1914266666666" type="line"/>
      <point x="198.1" y="981.6666666666666" type="line"/>
    </contour>
    <contour>
      <point x="346.85" y="981.6666666666666" type="line"/>
      <point x="206.85" y="981.6666666666666" type="line"/>
      <point x="206.85" y="928.1914266666666" type="line"/>
      <point x="293.37476" y="841.6666666666666" type="line"/>
      <point x="346.85" y="841.6666666666666" type="line"/>
    </contour>
    <contour>
      <point x="41.224998474121094" y="0" type="line"/>
      <point x="181.2249984741211" y="0" type="line"/>
      <point x="181.2249984741211" y="805" type="line"/>
      <point x="127.74976348876953" y="805" type="line"/>
      <point x="41.224998474121094" y="718.4752426147461" type="line"/>
    </contour>
    <contour>
      <point x="223.7249984741211" y="0" type="line"/>
      <point x="363.7249984741211" y="0" type="line"/>
      <point x="363.7249984741211" y="718.4752426147461" type="line"/>
      <point x="277.2002410888672" y="805" type="line"/>
      <point x="223.7249984741211" y="805" type="line"/>
    </contour>
  </outline>
</glyph>
<glyph name="A_with_ring" format="2">
  <advance width="404.95"/>
  <unicode hex="00C5"/>
  <outline>
    <contour>
      <point x="181.225" y="986.6666666666666" type="line"/>
      <point x="152.57754999999997" y="986.6666666666666" type="line"/>
      <point x="106.225" y="940.3141166666667" type="line"/>
      <point x="106.225" y="883.0192166666666" type="line"/>
      <point x="152.57754999999997" y="836.6666666666666" type="line"/>
      <point x="181.225" y="836.6666666666666" type="line"/>
    </contour>
    <contour>
      <point x="223.725" y="836.6666666666666" type="line"/>
      <point x="252.37245" y="836.6666666666666" type="line"/>
      <point x="298.725" y="883.0192166666666" type="line"/>
      <point x="298.725" y="940.3141166666667" type="line"/>
      <point x="252.37245" y="986.6666666666666" type="line"/>
      <point x="223.725" y="986.6666666666666" type="line"/>
    </contour>
    <contour>
      <point x="41.224998474121094" y="0" type="line"/>
      <point x="181.2249984741211" y="0" type="line"/>
      <point x="181.2249984741211" y="805" type="line"/>
      <point x="127.74976348876953" y="805" type="line"/>
      <point x="41.224998474121094" y="718.4752426147461" type="line"/>
    </contour>
    <contour>
      <point x="223.7249984741211" y="0" type="line"/>
      <point x="363.7249984741211" y="0" type="line"/>
      <point x="363.7249984741211" y="718.4752426147461" type="line"/>
      <point x="277.2002410888672" y="805" type="line"/>
      <point x="223.7249984741211" y="805" type="line"/>
    </contour>
  </outline>
</glyph>
<glyph name="AE" format="2">
  <advance width="769.95"/>
  <unicode hex="00C6"/>
  <outline>
    <contour>
      <point x="41.224998474121094" y="0" type="line"/>
      <point x="181.2249984741211" y="0" type="line"/>
      <point x="181.2249984741211" y="805" type="line"/>
      <point x="127.74976348876953" y="805" type="line"/>
      <point x="41.224998474121094" y="718.4752426147461" type="line"/>
    </contour>
    <contour>
      <point x="223.7249984741211" y="0" type="line"/>
      <point x="363.7249984741211" y="0" type="line"/>
      <point x="363.7249984741211" y="718.4752426147461" type="line"/>
      <point x="277.2002410888672" y="805" type="line"/>
      <point x="223.7249984741211" y="805" type="line"/>
    </contour>
    <contour>
      <point x="406.2249984741211" y="0" type="line"/>
      <point x="546.2249984741211" y="0" type="line"/>
      <point x="546.2249984741211" y="800" type="line"/>
      <point x="406.2249984741211" y="800" type="line"/>
    </contour>
    <contour>
      <point x="728.725" y="800.0" type="line"/>
      <point x="588.725" y="800.0" type="line"/>
      <point x="588.725" y="746.52476" type="line"/>
      <point x="675.24976" y="660.0" type="line"/>
      <point x="728.725" y="660.0" type="line"/>
    </contour>
    <contour>
      <point x="728.725" y="500.0" type="line"/>
      <point x="588.725" y="500.0" type="line"/>
      <point x="588.725" y="446.52476" type="line"/>
      <point x="675.24976" y="360.0" type="line"/>
      <point x="728.725" y="360.0" type="line"/>
    </contour>
    <contour>
      <point x="728.725" y="0.0" type="line"/>
      <point x="728.725" y="140.0" type="line"/>
      <point x="675.24976" y="140.0" type="line"/>
      <point x="588.725" y="53.47524" type="line"/>
      <point x="588.725" y="0.0" type="line"/>
    </contour>
  </outline>
</glyph>
<glyph name="C_with_cedilla" format="2">
  <advance width="404.95"/>
  <unicode hex="00C7"/>
  <outline>
    <contour>
      <point x="127.74976348876953" y="0" type="line"/>
      <point x="181.2249984741211" y="0" type="line"/>
      <point x="181.2249984741211" y="800" type="line"/>
      <point x="127.74976348876953" y="800" type="line"/>
      <point x="41.224998474121094" y="713.4752426147461" type="line"/>
      <point x="41.224998474121094" y="86.5247573852539" type="line"/>
    </contour>
    <contour>
      <point x="310.24976348876953" y="460" type="line"/>
      <point x="363.7249984741211" y="460" type="line"/>
      <point x="363.7249984741211" y="800" type="line"/>
      <point x="223.7249984741211" y="800" type="line"/>
      <point x="223.7249984741211" y="546.5247573852539" type="line"/>
    </contour>
    <contour>
      <point x="363.725" y="0.0" type="line"/>
      <point x="363.725" y="140.0" type="line"/>
      <point x="310.24976000000004" y="140.0" type="line"/>
      <point x="223.725" y="53.47524" type="line"/>
      <point x="223.725" y="0.0" type="line"/>
    </contour>
    <contour>
      <point x="193.725" y="-165.0" type="line"/>
      <point x="333.725" y="-165.0" type="line"/>
      <point x="333.725" y="-111.52476" type="line"/>
      <point x="247.20024" y="-25.0" type="line"/>
      <point x="193.725" y="-25.0" type="line"/>
    </contour>
  </outline>
</glyph>
<glyph name="E_with_diaeresis" format="2">
  <advance width="404.95"/>
  <unicode hex="00CB"/>
  <outline>
    <contour>
      <point x="41.224999999999994" y="901.6666666666666" type="line"/>
      <point x="181.225" y="901.6666666666666" type="line"/>
      <point x="181.225" y="1041.6666666666665" type="line"/>
      <point x="41.224999999999994" y="1041.6666666666665" type="line"/>
    </contour>
    <contour>
      <point x="223.725" y="901.6666666666666" type="line"/>
      <point x="363.725" y="901.6666666666666" type="line"/>
      <point x="363.725" y="1041.6666666666665" type="line"/>
      <point x="223.725" y="1041.6666666666665" type="line"/>
    </contour>
    <contour>
      <point x="41.224998474121094" y="0" type="line"/>
      <point x="181.2249984741211" y="0" type="line"/>
      <point x="181.2249984741211" y="800" type="line"/>
      <point x="41.224998474121094" y="800" type="line"/>
    </contour>
    <contour>
      <point x="363.725" y="800.0" type="line"/>
      <point x="223.725" y="800.0" type="line"/>
      <point x="223.725" y="746.52476" type="line"/>
      <point x="310.24976000000004" y="660.0" type="line"/>
      <point x="363.725" y="660.0" type="line"/>
    </contour>
    <contour>
      <point x="363.725" y="470.0" type="line"/>
      <point x="223.725" y="470.0" type="line"/>
      <point x="223.725" y="416.52476" type="line"/>
      <point x="310.24976000000004" y="330.0" type="line"/>
      <point x="363.725" y="330.0" type="line"/>
    </contour>
    <contour>
      <point x="363.725" y="0.0" type="line"/>
      <point x="363.725" y="140.0" type="line"/>
      <point x="310.24976000000004" y="140.0" type="line"/>
      <point x="223.725" y="53.47524" type="line"/>
      <point x="223.725" y="0.0" type="line"/>
    </contour>
  </outline>
</glyph>
<glyph name="I_with_circumflex" format="2">
  <advance width="222.45"/>
  <unicode hex="00CE"/>
  <outline>
    <contour>
      <point x="-33.150000000000006" y="981.6666666666666" type="line"/>
      <point x="-33.150000000000006" y="841.6666666666666" type="line"/>
      <point x="20.325239999999994" y="841.6666666666666" type="line"/>
      <point x="106.85" y="928.1914266666666" type="line"/>
      <point x="106.85" y="981.6666666666666" type="line"/>
    </contour>
    <contour>
      <point x="255.6" y="981.6666666666666" type="line"/>
      <point x="115.6" y="981.6666666666666" type="line"/>
      <point x="115.6" y="928.1914266666666" type="line"/>
      <point x="202.12475999999998" y="841.6666666666666" type="line"/>
      <point x="255.6" y="841.6666666666666" type="line"/>
    </contour>
    <contour>
      <point x="41.224998474121094" y="0" type="line"/>
      <point x="181.2249984741211" y="0" type="line"/>
      <point x="181.2249984741211" y="800" type="line"/>
      <point x="41.224998474121094" y="800" type="line"/>
    </contour>
  </outline>
</glyph>
<glyph name="I_with_diaeresis" format="2">
  <advance width="222.45"/>
  <unicode hex="00CF"/>
  <outline>
    <contour>
      <point x="-50.025000000000006" y="901.6666666666666" type="line"/>
      <point x="89.975" y="901.6666666666666" type="line"/>
      <point x="89.975" y="1041.6666666666665" type="line"/>
      <point x="-50.025000000000006" y="1041.6666666666665" type="line"/>
    </contour>
    <contour>
      <point x="132.475" y="901.6666666666666" type="line"/>
      <point x="272.475" y="901.6666666666666" type="line"/>
      <point x="272.475" y="1041.6666666666665" type="line"/>
      <point x="132.475" y="1041.6666666666665" type="line"/>
    </contour>
    <contour>
      <point x="41.224998474121094" y="0" type="line"/>
      <point x="181.2249984741211" y="0" type="line"/>
      <point x="181.2249984741211" y="800" type="line"/>
      <point x="41.224998474121094" y="800" type="line"/>
    </contour>
  </outline>
</glyph>
<glyph name="ETH" format="2">
  <advance width="587.45"/>
  <unicode hex="00D0"/>
  <outline>
    <contour>
      <point x="223.7249984741211" y="0" type="line"/>
      <point x="363.7249984741211" y="0" type="line"/>
      <point x="363.7249984741211" y="800" type="line"/>
      <point x="223.7249984741211" y="800" type="line"/>
      <point x="223.7249984741211" y="470" type="line"/>
      <point x="215.24976348876953" y="470" type="line"/>
      <point x="128.7249984741211" y="383.4752426147461" type="line"/>
      <point x="128.7249984741211" y="330" type="line"/>
      <point x="223.7249984741211" y="330" type="line"/>
    </contour>
    <contour>
      <point x="459.7002410888672" y="0" type="line"/>
      <point x="546.2249984741211" y="86.5247573852539" type="line"/>
      <point x="546.2249984741211" y="713.4752426147461" type="line"/>
      <point x="459.7002410888672" y="800" type="line"/>
      <point x="406.2249984741211" y="800" type="line"/>
      <point x="406.2249984741211" y="0" type="line"/>
    </contour>
  </outline>
</glyph>
<glyph name="O_with_acute" format="2">
  <advance width="404.95"/>
  <unicode hex="00D3"/>
  <outline>
    <contour>
      <point x="193.725" y="981.6666666666666" type="line"/>
      <point x="193.725" y="841.6666666666666" type="line"/>
      <point x="247.20024" y="841.6666666666666" type="line"/>
      <point x="333.725" y="928.1914266666666" type="line"/>
      <point x="333.725" y="981.6666666666666" type="line"/>
    </contour>
    <contour>
      <point x="127.74976348876953" y="-5" type="line"/>
      <point x="181.2249984741211" y="-5" type="line"/>
      <point x="181.2249984741211" y="805" type="line"/>
      <point x="127.74976348876953" y="805" type="line"/>
      <point x="41.224998474121094" y="718.4752426147461" type="line"/>
      <point x="41.224998474121094" y="81.5247573852539" type="line"/>
    </contour>
    <contour>
      <point x="277.2002410888672" y="-5" type="line"/>
      <point x="363.7249984741211" y="81.5247573852539" type="line"/>
      <point x="363.7249984741211" y="718.4752426147461" type="line"/>
      <point x="277.2002410888672" y="805" type="line"/>
      <point x="223.7249984741211" y="805" type="line"/>
      <point x="223.7249984741211" y="-5" type="line"/>
    </contour>
  </outline>
</glyph>
<glyph name="O_with_circumflex" format="2">
  <advance width="404.95"/>
  <unicode hex="00D4"/>
  <outline>
    <contour>
      <point x="58.099999999999994" y="981.6666666666666" type="line"/>
      <point x="58.099999999999994" y="841.6666666666666" type="line"/>
      <point x="111.57524" y="841.6666666666666" type="line"/>
      <point x="198.1" y="928.1914266666666" type="line"/>
      <point x="198.1" y="981.6666666666666" type="line"/>
    </contour>
    <contour>
      <point x="346.85" y="981.6666666666666" type="line"/>
      <point x="206.85" y="981.6666666666666" type="line"/>
      <point x="206.85" y="928.1914266666666" type="line"/>
      <point x="293.37476" y="841.6666666666666" type="line"/>
      <point x="346.85" y="841.6666666666666" type="line"/>
    </contour>
    <contour>
      <point x="127.74976348876953" y="-5" type="line"/>
      <point x="181.2249984741211" y="-5" type="line"/>
      <point x="181.2249984741211" y="805" type="line"/>
      <point x="127.74976348876953" y="805" type="line"/>
      <point x="41.224998474121094" y="718.4752426147461" type="line"/>
      <point x="41.224998474121094" y="81.5247573852539" type="line"/>
    </contour>
    <contour>
      <point x="277.2002410888672" y="-5" type="line"/>
      <point x="363.7249984741211" y="81.5247573852539" type="line"/>
      <point x="363.7249984741211" y="718.4752426147461" type="line"/>
      <point x="277.2002410888672" y="805" type="line"/>
      <point x="223.7249984741211" y="805" type="line"/>
      <point x="223.7249984741211" y="-5" type="line"/>
    </contour>
  </outline>
</glyph>
<glyph name="O_with_smalltilde" format="2">
  <advance width="404.95"/>
  <unicode hex="00D5"/>
  <outline>
    <contour>
      <point x="62.474998474121094" y="895.1419067382812" type="line"/>
      <point x="62.474998474121094" y="841.6666641235352" type="line"/>
      <point x="255.9502410888672" y="841.6666641235352" type="line"/>
      <point x="342.4749984741211" y="928.1914291381836" type="line"/>
      <point x="342.4749984741211" y="981.6666641235352" type="line"/>
      <point x="148.99976348876953" y="981.6666641235352" type="line"/>
    </contour>
    <contour>
      <point x="127.74976348876953" y="-5" type="line"/>
      <point x="181.2249984741211" y="-5" type="line"/>
      <point x="181.2249984741211" y="805" type="line"/>
      <point x="127.74976348876953" y="805" type="line"/>
      <point x="41.224998474121094" y="718.4752426147461" type="line"/>
      <point x="41.224998474121094" y="81.5247573852539" type="line"/>
    </contour>
    <contour>
      <point x="277.2002410888672" y="-5" type="line"/>
      <point x="363.7249984741211" y="81.5247573852539" type="line"/>
      <point x="363.7249984741211" y="718.4752426147461" type="line"/>
      <point x="277.2002410888672" y="805" type="line"/>
      <point x="223.7249984741211" y="805" type="line"/>
      <point x="223.7249984741211" y="-5" type="line"/>
    </contour>
  </outline>
</glyph>
<glyph name="O_with_diaeresis" format="2">
  <advance width="404.95"/>
  <unicode hex="00D6"/>
  <outline>
    <contour>
      <point x="41.224999999999994" y="901.6666666666666" type="line"/>
      <point x="181.225" y="901.6666666666666" type="line"/>
      <point x="181.225" y="1041.6666666666665" type="line"/>
      <point x="41.224999999999994" y="1041.6666666666665" type="line"/>
    </contour>
    <contour>
      <point x="223.725" y="901.6666666666666" type="line"/>
      <point x="363.725" y="901.6666666666666" type="line"/>
      <point x="363.725" y="1041.6666666666665" type="line"/>
      <point x="223.725" y="1041.6666666666665" type="line"/>
    </contour>
    <contour>
      <point x="127.74976348876953" y="-5" type="line"/>
      <point x="181.2249984741211" y="-5" type="line"/>
      <point x="181.2249984741211" y="805" type="line"/>
      <point x="127.74976348876953" y="805" type="line"/>
      <point x="41.224998474121094" y="718.4752426147461" type="line"/>
      <point x="41.224998474121094" y="81.5247573852539" type="line"/>
    </contour>
    <contour>
      <point x="277.2002410888672" y="-5" type="line"/>
      <point x="363.7249984741211" y="81.5247573852539" type="line"/>
      <point x="363.7249984741211" y="718.4752426147461" type="line"/>
      <point x="277.2002410888672" y="805" type="line"/>
      <point x="223.7249984741211" y="805" type="line"/>
      <point x="223.7249984741211" y="-5" type="line"/>
    </contour>
  </outline>
</glyph>
<glyph name="a_with_acute" format="2">
  <advance width="404.95"/>
  <unicode hex="00E1"/>
  <outline>
    <contour>
      <point x="193.725" y="781.6666666666666" type="line"/>
      <point x="193.725" y="641.6666666666666" type="line"/>
      <point x="247.20024" y="641.6666666666666" type="line"/>
      <point x="333.725" y="728.1914266666666" type="line"/>
      <point x="333.725" y="781.6666666666666" type="line"/>
    </contour>
    <contour>
      <point x="41.225" y="600.0" type="line"/>
      <point x="41.225" y="460.0" type="line"/>
      <point x="94.70024000000001" y="460.0" type="line"/>
      <point x="181.225" y="546.52476" type="line"/>
      <point x="181.225" y="600.0" type="line"/>
    </contour>
    <contour>
      <point x="310.24976348876953" y="-5" type="line"/>
      <point x="363.7249984741211" y="-5" type="line"/>
      <point x="363.7249984741211" y="513.4752426147461" type="line"/>
      <point x="277.2002410888672" y="600" type="line"/>
      <point x="223.7249984741211" y="600" type="line"/>
      <point x="223.7249984741211" y="81.5247573852539" type="line"/>
    </contour>
    <contour>
      <point x="127.74976348876953" y="0" type="line"/>
      <point x="181.2249984741211" y="0" type="line"/>
      <point x="181.2249984741211" y="400" type="line"/>
      <point x="127.74976348876953" y="400" type="line"/>
      <point x="41.224998474121094" y="313.4752426147461" type="line"/>
      <point x="41.224998474121094" y="86.5247573852539" type="line"/>
    </contour>
  </outline>
</glyph>
<glyph name="ae" format="2">
  <advance width="769.95"/>
  <unicode hex="00E6"/>
  <outline>
    <contour>
      <point x="277.2002410888672" y="-5" type="line"/>
      <point x="363.7249984741211" y="81.5247573852539" type="line"/>
      <point x="363.7249984741211" y="518.4752426147461" type="line"/>
      <point x="277.2002410888672" y="605" type="line"/>
      <point x="223.7249984741211" y="605" type="line"/>
      <point x="223.7249984741211" y="-5" type="line"/>
    </contour>
    <contour>
      <point x="492.74976348876953" y="-5" type="line"/>
      <point x="546.2249984741211" y="-5" type="line"/>
      <point x="546.2249984741211" y="605" type="line"/>
      <point x="492.74976348876953" y="605" type="line"/>
      <point x="406.2249984741211" y="518.4752426147461" type="line"/>
      <point x="406.2249984741211" y="81.5247573852539" type="line"/>
    </contour>
    <contour>
      <point x="588.7249984741211" y="195" type="line"/>
      <point x="728.7249984741211" y="195" type="line"/>
      <point x="728.7249984741211" y="518.4752426147461" type="line"/>
      <point x="642.2002410888672" y="605" type="line"/>
      <point x="588.7249984741211" y="605" type="line"/>
    </contour>
    <contour>
      <point x="43.4125" y="600.0" type="line"/>
      <point x="43.4125" y="460.0" type="line"/>
      <point x="96.88774000000001" y="460.0" type="line"/>
      <point x="183.4125" y="546.52476" type="line"/>
      <point x="183.4125" y="600.0" type="line"/>
    </contour>
    <contour>
      <point x="127.74976348876953" y="-5" type="line"/>
      <point x="181.2249984741211" y="-5" type="line"/>
      <point x="181.2249984741211" y="395" type="line"/>
      <point x="127.74976348876953" y="395" type="line"/>
      <point x="41.224998474121094" y="308.4752426147461" type="line"/>
      <point x="41.224998474121094" y="81.5247573852539" type="line"/>
    </contour>
  </outline>
</glyph>
<glyph name="e_with_acute" format="2">
  <advance width="404.95"/>
  <unicode hex="00E9"/>
  <outline>
    <contour>
      <point x="193.725" y="781.6666666666666" type="line"/>
      <point x="193.725" y="641.6666666666666" type="line"/>
      <point x="247.20024" y="641.6666666666666" type="line"/>
      <point x="333.725" y="728.1914266666666" type="line"/>
      <point x="333.725" y="781.6666666666666" type="line"/>
    </contour>
    <contour>
      <point x="127.74976348876953" y="-5" type="line"/>
      <point x="181.2249984741211" y="-5" type="line"/>
      <point x="181.2249984741211" y="605" type="line"/>
      <point x="127.74976348876953" y="605" type="line"/>
      <point x="41.224998474121094" y="518.4752426147461" type="line"/>
      <point x="41.224998474121094" y="81.5247573852539" type="line"/>
    </contour>
    <contour>
      <point x="223.7249984741211" y="195" type="line"/>
      <point x="363.7249984741211" y="195" type="line"/>
      <point x="363.7249984741211" y="518.4752426147461" type="line"/>
      <point x="277.2002410888672" y="605" type="line"/>
      <point x="223.7249984741211" y="605" type="line"/>
    </contour>
  </outline>
</glyph>
<glyph name="i_with_grave" format="2">
  <advance width="222.45"/>
  <unicode hex="00EC"/>
  <outline>
    <contour>
      <point x="119.975" y="781.6666666666666" type="line"/>
      <point x="-20.025000000000006" y="781.6666666666666" type="line"/>
      <point x="-20.025000000000006" y="728.1914266666666" type="line"/>
      <point x="66.49976" y="641.6666666666666" type="line"/>
      <point x="119.975" y="641.6666666666666" type="line"/>
    </contour>
    <contour>
      <point x="41.224998474121094" y="0" type="line"/>
      <point x="181.2249984741211" y="0" type="line"/>
      <point x="181.2249984741211" y="600" type="line"/>
      <point x="41.224998474121094" y="600" type="line"/>
    </contour>
  </outline>
</glyph>
<glyph name="i_with_circumflex" format="2">
  <advance width="222.45"/>
  <unicode hex="00EE"/>
  <outline>
    <contour>
      <point x="-33.150000000000006" y="781.6666666666666" type="line"/>
      <point x="-33.150000000000006" y="641.6666666666666" type="line"/>
      <point x="20.325239999999994" y="641.6666666666666" type="line"/>
      <point x="106.85" y="728.1914266666666" type="line"/>
      <point x="106.85" y="781.6666666666666" type="line"/>
    </contour>
    <contour>
      <point x="255.6" y="781.6666666666666" type="line"/>
      <point x="115.6" y="781.6666666666666" type="line"/>
      <point x="115.6" y="728.1914266666666" type="line"/>
      <point x="202.12475999999998" y="641.6666666666666" type="line"/>
      <point x="255.6" y="641.6666666666666" type="line"/>
    </contour>
    <contour>
      <point x="41.224998474121094" y="0" type="line"/>
      <point x="181.2249984741211" y="0" type="line"/>
      <point x="181.2249984741211" y="600" type="line"/>
      <point x="41.224998474121094" y="600" type="line"/>
    </contour>
  </outline>
</glyph>
<glyph name="i_with_diaeresis" format="2">
  <advance width="222.45"/>
  <unicode hex="00EF"/>
  <outline>
    <contour>
      <point x="-50.025000000000006" y="701.6666666666666" type="line"/>
      <point x="89.975" y="701.6666666666666" type="line"/>
      <point x="89.975" y="841.6666666666666" type="line"/>
      <point x="-50.025000000000006" y="841.6666666666666" type="line"/>
    </contour>
    <contour>
      <point x="132.475" y="701.6666666666666" type="line"/>
      <point x="272.475" y="701.6666666666666" type="line"/>
      <point x="272.475" y="841.6666666666666" type="line"/>
      <point x="132.475" y="841.6666666666666" type="line"/>
    </contour>
    <contour>
      <point x="41.224998474121094" y="0" type="line"/>
      <point x="181.2249984741211" y="0" type="line"/>
      <point x="181.2249984741211" y="600" type="line"/>
      <point x="41.224998474121094" y="600" type="line"/>
    </contour>
  </outline>
</glyph>
<glyph name="n_with_smalltilde" format="2">
  <advance width="404.95"/>
  <unicode hex="00F1"/>
  <outline>
    <contour>
      <point x="62.474998474121094" y="695.1419067382812" type="line"/>
      <point x="62.474998474121094" y="641.6666641235352" type="line"/>
      <point x="255.9502410888672" y="641.6666641235352" type="line"/>
      <point x="342.4749984741211" y="728.1914291381836" type="line"/>
      <point x="342.4749984741211" y="781.6666641235352" type="line"/>
      <point x="148.99976348876953" y="781.6666641235352" type="line"/>
    </contour>
    <contour>
      <point x="41.224998474121094" y="0" type="line"/>
      <point x="181.2249984741211" y="0" type="line"/>
      <point x="181.2249984741211" y="600" type="line"/>
      <point x="41.224998474121094" y="600" type="line"/>
    </contour>
    <contour>
      <point x="223.7249984741211" y="0" type="line"/>
      <point x="363.7249984741211" y="0" type="line"/>
      <point x="363.7249984741211" y="513.4752426147461" type="line"/>
      <point x="277.2002410888672" y="600" type="line"/>
      <point x="223.7249984741211" y="600" type="line"/>
    </contour>
  </outline>
</glyph>
<glyph name="divide" format="2">
  <advance width="587.45"/>
  <unicode hex="00F7"/>
  <outline>
    <contour>
      <point x="223.725" y="550.0" type="line"/>
      <point x="363.725" y="550.0" type="line"/>
      <point x="363.725" y="690.0" type="line"/>
      <point x="223.725" y="690.0" type="line"/>
    </contour>
    <contour>
      <point x="83.7249984741211" y="330" type="line"/>
      <point x="503.7249984741211" y="330" type="line"/>
      <point x="503.7249984741211" y="470" type="line"/>
      <point x="83.7249984741211" y="470" type="line"/>
    </contour>
    <contour>
      <point x="223.725" y="110.0" type="line"/>
      <point x="363.725" y="110.0" type="line"/>
      <point x="363.725" y="250.0" type="line"/>
      <point x="223.725" y="250.0" type="line"/>
    </contour>
  </outline>
</glyph>
<glyph name="o_with_stroke" format="2">
  <advance width="404.95"/>
  <unicode hex="00F8"/>
  <outline>
    <contour>
      <point x="258.7249984741211" y="670" type="line"/>
      <point x="258.7249984741211" y="605" type="line"/>
      <point x="223.7249984741211" y="605" type="line"/>
      <point x="223.7249984741211" y="-5" type="line"/>
      <point x="277.2002410888672" y="-5" type="line"/>
      <point x="363.7249984741211" y="81.5247573852539" type="line"/>
      <point x="363.7249984741211" y="518.4752426147461" type="line"/>
      <point x="332.2002410888672" y="550" type="line"/>
      <point x="398.7249984741211" y="616.5247573852539" type="line"/>
      <point x="398.7249984741211" y="670" type="line"/>
    </contour>
    <contour>
      <point x="146.2249984741211" y="-70" type="line"/>
      <point x="146.2249984741211" y="-5" type="line"/>
      <point x="181.2249984741211" y="-5" type="line"/>
      <point x="181.2249984741211" y="605" type="line"/>
      <point x="127.74976348876953" y="605" type="line"/>
      <point x="41.224998474121094" y="518.4752426147461" type="line"/>
      <point x="41.224998474121094" y="81.5247573852539" type="line"/>
      <point x="72.74976348876953" y="50" type="line"/>
      <point x="6.224998474121094" y="-16.524757385253906" type="line"/>
      <point x="6.224998474121094" y="-70" type="line"/>
    </contour>
  </outline>
</glyph>
<glyph name="y_with_diaeresis" format="2">
  <advance width="404.95"/>
  <unicode hex="00FF"/>
  <outline>
    <contour>
      <point x="41.224999999999994" y="701.6666666666666" type="line"/>
      <point x="181.225" y="701.6666666666666" type="line"/>
      <point x="181.225" y="841.6666666666666" type="line"/>
      <point x="41.224999999999994" y="841.6666666666666" type="line"/>
    </contour>
    <contour>
      <point x="223.725" y="701.6666666666666" type="line"/>
      <point x="363.725" y="701.6666666666666" type="line"/>
      <point x="363.725" y="841.6666666666666" type="line"/>
      <point x="223.725" y="841.6666666666666" type="line"/>
    </contour>
    <contour>
      <point x="127.74976348876953" y="5" type="line"/>
      <point x="181.2249984741211" y="5" type="line"/>
      <point x="181.2249984741211" y="513.4752426147461" type="line"/>
      <point x="94.70024108886719" y="600" type="line"/>
      <point x="41.224998474121094" y="600" type="line"/>
      <point x="41.224998474121094" y="91.5247573852539" type="line"/>
    </contour>
    <contour>
      <point x="277.2002410888672" y="-210" type="line"/>
      <point x="363.7249984741211" y="-123.4752426147461" type="line"/>
      <point x="363.7249984741211" y="600" type="line"/>
      <point x="223.7249984741211" y="600" type="line"/>
      <point x="223.7249984741211" y="-210" type="line"/>
    </contour>
    <contour>
      <point x="181.225" y="-70.0" type="line"/>
      <point x="41.225" y="-70.0" type="line"/>
      <point x="41.225" y="-123.47524" type="line"/>
      <point x="127.74976000000001" y="-210.0" type="line"/>
      <point x="181.225" y="-210.0" type="line"/>
    </contour>
  </outline>
</glyph>
<glyph name="A_with_breve" format="2">
  <advance width="404.95"/>
  <unicode hex="0102"/>
  <outline>
    <contour>
      <point x="62.474998474121094" y="928.1914291381836" type="line"/>
      <point x="148.99976348876953" y="841.6666641235352" type="line"/>
      <point x="255.9502410888672" y="841.6666641235352" type="line"/>
      <point x="342.4749984741211" y="928.1914291381836" type="line"/>
      <point x="342.4749984741211" y="981.6666641235352" type="line"/>
      <point x="62.474998474121094" y="981.6666641235352" type="line"/>
    </contour>
    <contour>
      <point x="41.224998474121094" y="0" type="line"/>
      <point x="181.2249984741211" y="0" type="line"/>
      <point x="181.2249984741211" y="805" type="line"/>
      <point x="127.74976348876953" y="805" type="line"/>
      <point x="41.224998474121094" y="718.4752426147461" type="line"/>
    </contour>
    <contour>
      <point x="223.7249984741211" y="0" type="line"/>
      <point x="363.7249984741211" y="0" type="line"/>
      <point x="363.7249984741211" y="718.4752426147461" type="line"/>
      <point x="277.2002410888672" y="805" type="line"/>
      <point x="223.7249984741211" y="805" type="line"/>
    </contour>
  </outline>
</glyph>
<glyph name="a_with_ogonek" format="2">
  <advance width="404.95"/>
  <unicode hex="0105"/>
  <outline>
    <contour>
      <point x="41.225" y="600.0" type="line"/>
      <point x="41.225" y="460.0" type="line"/>
      <point x="94.70024000000001" y="460.0" type="line"/>
      <point x="181.225" y="546.52476" type="line"/>
      <point x="181.225" y="600.0" type="line"/>
    </contour>
    <contour>
      <point x="310.24976348876953" y="-5" type="line"/>
      <point x="363.7249984741211" y="-5" type="line"/>
      <point x="363.7249984741211" y="513.4752426147461" type="line"/>
      <point x="277.2002410888672" y="600" type="line"/>
      <point x="223.7249984741211" y="600" type="line"/>
      <point x="223.7249984741211" y="81.5247573852539" type="line"/>
    </contour>
    <contour>
      <point x="127.74976348876953" y="0" type="line"/>
      <point x="181.2249984741211" y="0" type="line"/>
      <point x="181.2249984741211" y="400" type="line"/>
      <point x="127.74976348876953" y="400" type="line"/>
      <point x="41.224998474121094" y="313.4752426147461" type="line"/>
      <point x="41.224998474121094" y="86.5247573852539" type="line"/>
    </contour>
    <contour>
      <point x="363.725" y="-170.0" type="line"/>
      <point x="363.725" y="-30.0" type="line"/>
      <point x="310.24976000000004" y="-30.0" type="line"/>
      <point x="223.72500000000002" y="-116.52476" type="line"/>
      <point x="223.72500000000002" y="-170.0" type="line"/>
    </contour>
  </outline>
</glyph>
<glyph name="C_with_acute" format="2">
  <advance width="404.95"/>
  <unicode hex="0106"/>
  <outline>
    <contour>
      <point x="193.725" y="981.6666666666666" type="line"/>
      <point x="193.725" y="841.6666666666666" type="line"/>
      <point x="247.20024" y="841.6666666666666" type="line"/>
      <point x="333.725" y="928.1914266666666" type="line"/>
      <point x="333.725" y="981.6666666666666" type="line"/>
    </contour>
    <contour>
      <point x="127.74976348876953" y="0" type="line"/>
      <point x="181.2249984741211" y="0" type="line"/>
      <point x="181.2249984741211" y="800" type="line"/>
      <point x="127.74976348876953" y="800" type="line"/>
      <point x="41.224998474121094" y="713.4752426147461" type="line"/>
      <point x="41.224998474121094" y="86.5247573852539" type="line"/>
    </contour>
    <contour>
      <point x="310.24976348876953" y="460" type="line"/>
      <point x="363.7249984741211" y="460" type="line"/>
      <point x="363.7249984741211" y="800" type="line"/>
      <point x="223.7249984741211" y="800" type="line"/>
      <point x="223.7249984741211" y="546.5247573852539" type="line"/>
    </contour>
    <contour>
      <point x="363.725" y="0.0" type="line"/>
      <point x="363.725" y="140.0" type="line"/>
      <point x="310.24976000000004" y="140.0" type="line"/>
      <point x="223.725" y="53.47524" type="line"/>
      <point x="223.725" y="0.0" type="line"/>
    </contour>
  </outline>
</glyph>
<glyph name="C_with_dotabove" format="2">
  <advance width="404.95"/>
  <unicode hex="010A"/>
  <outline>
    <contour>
      <point x="132.475" y="901.6666666666666" type="line"/>
      <point x="272.475" y="901.6666666666666" type="line"/>
      <point x="272.475" y="1041.6666666666665" type="line"/>
      <point x="132.475" y="1041.6666666666665" type="line"/>
    </contour>
    <contour>
      <point x="127.74976348876953" y="0" type="line"/>
      <point x="181.2249984741211" y="0" type="line"/>
      <point x="181.2249984741211" y="800" type="line"/>
      <point x="127.74976348876953" y="800" type="line"/>
      <point x="41.224998474121094" y="713.4752426147461" type="line"/>
      <point x="41.224998474121094" y="86.5247573852539" type="line"/>
    </contour>
    <contour>
      <point x="310.24976348876953" y="460" type="line"/>
      <point x="363.7249984741211" y="460" type="line"/>
      <point x="363.7249984741211" y="800" type="line"/>
      <point x="223.7249984741211" y="800" type="line"/>
      <point x="223.7249984741211" y="546.5247573852539" type="line"/>
    </contour>
    <contour>
      <point x="363.725" y="0.0" type="line"/>
      <point x="363.725" y="140.0" type="line"/>
      <point x="310.24976000000004" y="140.0" type="line"/>
      <point x="223.725" y="53.47524" type="line"/>
      <point x="223.725" y="0.0" type="line"/>
    </contour>
  </outline>
</glyph>
<glyph name="c_with_caron" format="2">
  <advance width="404.95"/>
  <unicode hex="010D"/>
  <outline>
    <contour>
      <point x="58.099999999999994" y="641.6666666666666" type="line"/>
      <point x="198.1" y="641.6666666666666" type="line"/>
      <point x="198.1" y="695.1419066666666" type="line"/>
      <point x="111.57524" y="781.6666666666666" type="line"/>
      <point x="58.099999999999994" y="781.6666666666666" type="line"/>
    </contour>
    <contour>
      <point x="346.85" y="641.6666666666666" type="line"/>
      <point x="346.85" y="781.6666666666666" type="line"/>
      <point x="293.37476" y="781.6666666666666" type="line"/>
      <point x="206.85" y="695.1419066666666" type="line"/>
      <point x="206.85" y="641.6666666666666" type="line"/>
    </contour>
    <contour>
      <point x="127.74976348876953" y="0" type="line"/>
      <point x="181.2249984741211" y="0" type="line"/>
      <point x="181.2249984741211" y="600" type="line"/>
      <point x="127.74976348876953" y="600" type="line"/>
      <point x="41.224998474121094" y="513.4752426147461" type="line"/>
      <point x="41.224998474121094" y="86.5247573852539" type="line"/>
    </contour>
    <contour>
      <point x="363.725" y="600.0" type="line"/>
      <point x="223.725" y="600.0" type="line"/>
      <point x="223.725" y="546.52476" type="line"/>
      <point x="310.24976000000004" y="460.0" type="line"/>
      <point x="363.725" y="460.0" type="line"/>
    </contour>
    <contour>
      <point x="361.5375" y="0.0" type="line"/>
      <point x="361.5375" y="140.0" type="line"/>
      <point x="308.06226000000004" y="140.0" type="line"/>
      <point x="221.5375" y="53.47524" type="line"/>
      <point x="221.5375" y="0.0" type="line"/>
    </contour>
  </outline>
</glyph>
<glyph name="e_with_macron" format="2">
  <advance width="404.95"/>
  <unicode hex="0113"/>
  <outline>
    <contour>
      <point x="62.474998474121094" y="641.6666641235352" type="line"/>
      <point x="342.4749984741211" y="641.6666641235352" type="line"/>
      <point x="342.4749984741211" y="781.6666641235352" type="line"/>
      <point x="62.474998474121094" y="781.6666641235352" type="line"/>
    </contour>
    <contour>
      <point x="127.74976348876953" y="-5" type="line"/>
      <point x="181.2249984741211" y="-5" type="line"/>
      <point x="181.2249984741211" y="605" type="line"/>
      <point x="127.74976348876953" y="605" type="line"/>
      <point x="41.224998474121094" y="518.4752426147461" type="line"/>
      <point x="41.224998474121094" y="81.5247573852539" type="line"/>
    </contour>
    <contour>
      <point x="223.7249984741211" y="195" type="line"/>
      <point x="363.7249984741211" y="195" type="line"/>
      <point x="363.7249984741211" y="518.4752426147461" type="line"/>
      <point x="277.2002410888672" y="605" type="line"/>
      <point x="223.7249984741211" y="605" type="line"/>
    </contour>
  </outline>
</glyph>
<glyph name="E_with_ogonek" format="2">
  <advance width="404.95"/>
  <unicode hex="0118"/>
  <outline>
    <contour>
      <point x="41.224998474121094" y="0" type="line"/>
      <point x="181.2249984741211" y="0" type="line"/>
      <point x="181.2249984741211" y="800" type="line"/>
      <point x="41.224998474121094" y="800" type="line"/>
    </contour>
    <contour>
      <point x="363.725" y="800.0" type="line"/>
      <point x="223.725" y="800.0" type="line"/>
      <point x="223.725" y="746.52476" type="line"/>
      <point x="310.24976000000004" y="660.0" type="line"/>
      <point x="363.725" y="660.0" type="line"/>
    </contour>
    <contour>
      <point x="363.725" y="470.0" type="line"/>
      <point x="223.725" y="470.0" type="line"/>
      <point x="223.725" y="416.52476" type="line"/>
      <point x="310.24976000000004" y="330.0" type="line"/>
      <point x="363.725" y="330.0" type="line"/>
    </contour>
    <contour>
      <point x="363.725" y="0.0" type="line"/>
      <point x="363.725" y="140.0" type="line"/>
      <point x="310.24976000000004" y="140.0" type="line"/>
      <point x="223.725" y="53.47524" type="line"/>
      <point x="223.725" y="0.0" type="line"/>
    </contour>
    <contour>
      <point x="363.725" y="-165.0" type="line"/>
      <point x="363.725" y="-25.0" type="line"/>
      <point x="310.24976000000004" y="-25.0" type="line"/>
      <point x="223.72500000000002" y="-111.52476" type="line"/>
      <point x="223.72500000000002" y="-165.0" type="line"/>
    </contour>
  </outline>
</glyph>
<glyph name="e_with_caron" format="2">
  <advance width="404.95"/>
  <unicode hex="011B"/>
  <outline>
    <contour>
      <point x="58.099999999999994" y="641.6666666666666" type="line"/>
      <point x="198.1" y="641.6666666666666" type="line"/>
      <point x="198.1" y="695.1419066666666" type="line"/>
      <point x="111.57524" y="781.6666666666666" type="line"/>
      <point x="58.099999999999994" y="781.6666666666666" type="line"/>
    </contour>
    <contour>
      <point x="346.85" y="641.6666666666666" type="line"/>
      <point x="346.85" y="781.6666666666666" type="line"/>
      <point x="293.37476" y="781.6666666666666" type="line"/>
      <point x="206.85" y="695.1419066666666" type="line"/>
      <point x="206.85" y="641.6666666666666" type="line"/>
    </contour>
    <contour>
      <point x="127.74976348876953" y="-5" type="line"/>
      <point x="181.2249984741211" y="-5" type="line"/>
      <point x="181.2249984741211" y="605" type="line"/>
      <point x="127.74976348876953" y="605" type="line"/>
      <point x="41.224998474121094" y="518.4752426147461" type="line"/>
      <point x="41.224998474121094" y="81.5247573852539" type="line"/>
    </contour>
    <contour>
      <point x="223.7249984741211" y="195" type="line"/>
      <point x="363.7249984741211" y="195" type="line"/>
      <point x="363.7249984741211" y="518.4752426147461" type="line"/>
      <point x="277.2002410888672" y="605" type="line"/>
      <point x="223.7249984741211" y="605" type="line"/>
    </contour>
  </outline>
</glyph>
<glyph name="G_with_breve" format="2">
  <advance width="404.95"/>
  <unicode hex="011E"/>
  <outline>
    <contour>
      <point x="62.474998474121094" y="928.1914291381836" type="line"/>
      <point x="148.99976348876953" y="841.6666641235352" type="line"/>
      <point x="255.9502410888672" y="841.6666641235352" type="line"/>
      <point x="342.4749984741211" y="928.1914291381836" type="line"/>
      <point x="342.4749984741211" y="981.6666641235352" type="line"/>
      <point x="62.474998474121094" y="981.6666641235352" type="line"/>
    </contour>
    <contour>
      <point x="127.74976348876953" y="0" type="line"/>
      <point x="181.2249984741211" y="0" type="line"/>
      <point x="181.2249984741211" y="800" type="line"/>
      <point x="127.74976348876953" y="800" type="line"/>
      <point x="41.224998474121094" y="713.4752426147461" type="line"/>
      <point x="41.224998474121094" y="86.5247573852539" type="line"/>
    </contour>
    <contour>
      <point x="363.725" y="800.0" type="line"/>
      <point x="223.725" y="800.0" type="line"/>
      <point x="223.725" y="746.52476" type="line"/>
      <point x="310.24976000000004" y="660.0" type="line"/>
      <point x="363.725" y="660.0" type="line"/>
    </contour>
    <contour>
      <point x="310.24976348876953" y="0" type="line"/>
      <point x="363.7249984741211" y="0" type="line"/>
      <point x="363.7249984741211" y="400" type="line"/>
      <point x="223.7249984741211" y="400" type="line"/>
      <point x="223.7249984741211" y="86.5247573852539" type="line"/>
    </contour>
  </outline>
</glyph>
<glyph name="I_with_smalltilde" format="2">
  <advance width="222.45"/>
  <unicode hex="0128"/>
  <outline>
    <contour>
      <point x="-28.775001525878906" y="895.1419067382812" type="line"/>
      <point x="-28.775001525878906" y="841.6666641235352" type="line"/>
      <point x="164.7002410888672" y="841.6666641235352" type="line"/>
      <point x="251.2249984741211" y="928.1914291381836" type="line"/>
      <point x="251.2249984741211" y="981.6666641235352" type="line"/>
      <point x="57.74976348876953" y="981.6666641235352" type="line"/>
    </contour>
    <contour>
      <point x="41.224998474121094" y="0" type="line"/>
      <point x="181.2249984741211" y="0" type="line"/>
      <point x="181.2249984741211" y="800" type="line"/>
      <point x="41.224998474121094" y="800" type="line"/>
    </contour>
  </outline>
</glyph>
<glyph name="i_with_smalltilde" format="2">
  <advance width="222.45"/>
  <unicode hex="0129"/>
  <outline>
    <contour>
      <point x="-28.775001525878906" y="695.1419067382812" type="line"/>
      <point x="-28.775001525878906" y="641.6666641235352" type="line"/>
      <point x="164.7002410888672" y="641.6666641235352" type="line"/>
      <point x="251.2249984741211" y="728.1914291381836" type="line"/>
      <point x="251.2249984741211" y="781.6666641235352" type="line"/>
      <point x="57.74976348876953" y="781.6666641235352" type="line"/>
    </contour>
    <contour>
      <point x="41.224998474121094" y="0" type="line"/>
      <point x="181.2249984741211" y="0" type="line"/>
      <point x="181.2249984741211" y="600" type="line"/>
      <point x="41.224998474121094" y="600" type="line"/>
    </contour>
  </outline>
</glyph>
<glyph name="I_with_macron" format="2">
  <advance width="222.45"/>
  <unicode hex="012A"/>
  <outline>
    <contour>
      <point x="-28.775001525878906" y="841.6666641235352" type="line"/>
      <point x="251.2249984741211" y="841.6666641235352" type="line"/>
      <point x="251.2249984741211" y="981.6666641235352" type="line"/>
      <point x="-28.775001525878906" y="981.6666641235352" type="line"/>
    </contour>
    <contour>
      <point x="41.224998474121094" y="0" type="line"/>
      <point x="181.2249984741211" y="0" type="line"/>
      <point x="181.2249984741211" y="800" type="line"/>
      <point x="41.224998474121094" y="800" type="line"/>
    </contour>
  </outline>
</glyph>
<glyph name="i_with_macron" format="2">
  <advance width="222.45"/>
  <unicode hex="012B"/>
  <outline>
    <contour>
      <point x="-28.775001525878906" y="641.6666641235352" type="line"/>
      <point x="251.2249984741211" y="641.6666641235352" type="line"/>
      <point x="251.2249984741211" y="781.6666641235352" type="line"/>
      <point x="-28.775001525878906" y="781.6666641235352" type="line"/>
    </contour>
    <contour>
      <point x="41.224998474121094" y="0" type="line"/>
      <point x="181.2249984741211" y="0" type="line"/>
      <point x="181.2249984741211" y="600" type="line"/>
      <point x="41.224998474121094" y="600" type="line"/>
    </contour>
  </outline>
</glyph>
<glyph name="I_with_ogonek" format="2">
  <advance width="222.45"/>
  <unicode hex="012E"/>
  <outline>
    <contour>
      <point x="41.224998474121094" y="0" type="line"/>
      <point x="181.2249984741211" y="0" type="line"/>
      <point x="181.2249984741211" y="800" type="line"/>
      <point x="41.224998474121094" y="800" type="line"/>
    </contour>
    <contour>
      <point x="181.225" y="-165.0" type="line"/>
      <point x="181.225" y="-25.0" type="line"/>
      <point x="127.74976" y="-25.0" type="line"/>
      <point x="41.224999999999994" y="-111.52476" type="line"/>
      <point x="41.224999999999994" y="-165.0" type="line"/>
    </contour>
  </outline>
</glyph>
<glyph name="i_with_ogonek" format="2">
  <advance width="222.45"/>
  <unicode hex="012F"/>
  <outline>
    <contour>
      <point x="41.225" y="641.66667" type="line"/>
      <point x="181.225" y="641.66667" type="line"/>
      <point x="181.225" y="781.66667" type="line"/>
      <point x="41.225" y="781.66667" type="line"/>
    </contour>
    <contour>
      <point x="41.224998474121094" y="0" type="line"/>
      <point x="181.2249984741211" y="0" type="line"/>
      <point x="181.2249984741211" y="600" type="line"/>
      <point x="41.224998474121094" y="600" type="line"/>
    </contour>
    <contour>
      <point x="181.225" y="-165.0" type="line"/>
      <point x="181.225" y="-25.0" type="line"/>
      <point x="127.74976" y="-25.0" type="line"/>
      <point x="41.224999999999994" y="-111.52476" type="line"/>
      <point x="41.224999999999994" y="-165.0" type="line"/>
    </contour>
  </outline>
</glyph>
<glyph name="IJ" format="2">
  <advance width="404.95"/>
  <unicode hex="0132"/>
  <outline>
    <contour>
      <point x="32.474998474121094" y="230" type="line"/>
      <point x="172.4749984741211" y="230" type="line"/>
      <point x="172.4749984741211" y="800" type="line"/>
      <point x="32.474998474121094" y="800" type="line"/>
    </contour>
    <contour>
      <point x="277.2002410888672" y="-5" type="line"/>
      <point x="363.7249984741211" y="81.5247573852539" type="line"/>
      <point x="363.7249984741211" y="800" type="line"/>
      <point x="223.7249984741211" y="800" type="line"/>
      <point x="223.7249984741211" y="-5" type="line"/>
    </contour>
    <contour>
      <point x="181.225" y="135.0" type="line"/>
      <point x="41.225" y="135.0" type="line"/>
      <point x="41.225" y="81.52476" type="line"/>
      <point x="127.74976000000001" y="-5.0" type="line"/>
      <point x="181.225" y="-5.0" type="line"/>
    </contour>
  </outline>
</glyph>
<glyph name="ij" format="2">
  <advance width="404.95"/>
  <unicode hex="0133"/>
  <outline>
    <contour>
      <point x="32.475" y="641.66667" type="line"/>
      <point x="172.475" y="641.66667" type="line"/>
      <point x="172.475" y="781.66667" type="line"/>
      <point x="32.475" y="781.66667" type="line"/>
    </contour>
    <contour>
      <point x="223.725" y="641.66667" type="line"/>
      <point x="363.725" y="641.66667" type="line"/>
      <point x="363.725" y="781.66667" type="line"/>
      <point x="223.725" y="781.66667" type="line"/>
    </contour>
    <contour>
      <point x="32.474998474121094" y="0" type="line"/>
      <point x="172.4749984741211" y="0" type="line"/>
      <point x="172.4749984741211" y="600" type="line"/>
      <point x="32.474998474121094" y="600" type="line"/>
    </contour>
    <contour>
      <point x="277.2002410888672" y="-210" type="line"/>
      <point x="363.7249984741211" y="-123.4752426147461" type="line"/>
      <point x="363.7249984741211" y="600" type="line"/>
      <point x="223.7249984741211" y="600" type="line"/>
      <point x="223.7249984741211" y="-210" type="line"/>
    </contour>
    <contour>
      <point x="185.6" y="-70.0" type="line"/>
      <point x="45.6" y="-70.0" type="line"/>
      <point x="45.6" y="-123.47524" type="line"/>
      <point x="132.12476" y="-210.0" type="line"/>
      <point x="185.6" y="-210.0" type="line"/>
    </contour>
  </outline>
</glyph>
<glyph name="J_with_circumflex" format="2">
  <advance width="404.95"/>
  <unicode hex="0134"/>
  <outline>
    <contour>
      <point x="146.85" y="981.6666666666666" type="line"/>
      <point x="146.85" y="841.6666666666666" type="line"/>
      <point x="200.32524" y="841.6666666666666" type="line"/>
      <point x="286.85" y="928.1914266666666" type="line"/>
      <point x="286.85" y="981.6666666666666" type="line"/>
    </contour>
    <contour>
      <point x="435.6" y="981.6666666666666" type="line"/>
      <point x="295.6" y="981.6666666666666" type="line"/>
      <point x="295.6" y="928.1914266666666" type="line"/>
      <point x="382.12476" y="841.6666666666666" type="line"/>
      <point x="435.6" y="841.6666666666666" type="line"/>
    </contour>
    <contour>
      <point x="277.2002410888672" y="-5" type="line"/>
      <point x="363.7249984741211" y="81.5247573852539" type="line"/>
      <point x="363.7249984741211" y="800" type="line"/>
      <point x="223.7249984741211" y="800" type="line"/>
      <point x="223.7249984741211" y="-5" type="line"/>
    </contour>
    <contour>
      <point x="181.225" y="135.0" type="line"/>
      <point x="41.225" y="135.0" type="line"/>
      <point x="41.225" y="81.52476" type="line"/>
      <point x="127.74976000000001" y="-5.0" type="line"/>
      <point x="181.225" y="-5.0" type="line"/>
    </contour>
  </outline>
</glyph>
<glyph name="j_with_circumflex" format="2">
  <advance width="404.95"/>
  <unicode hex="0135"/>
  <outline>
    <contour>
      <point x="149.0375" y="781.6666666666666" type="line"/>
      <point x="149.0375" y="641.6666666666666" type="line"/>
      <point x="202.51274" y="641.6666666666666" type="line"/>
      <point x="289.0375" y="728.1914266666666" type="line"/>
      <point x="289.0375" y="781.6666666666666" type="line"/>
    </contour>
    <contour>
      <point x="437.7875" y="781.6666666666666" type="line"/>
      <point x="297.7875" y="781.6666666666666" type="line"/>
      <point x="297.7875" y="728.1914266666666" type="line"/>
      <point x="384.31226" y="641.6666666666666" type="line"/>
      <point x="437.7875" y="641.6666666666666" type="line"/>
    </contour>
    <contour>
      <point x="277.2002410888672" y="-210" type="line"/>
      <point x="363.7249984741211" y="-123.4752426147461" type="line"/>
      <point x="363.7249984741211" y="600" type="line"/>
      <point x="223.7249984741211" y="600" type="line"/>
      <point x="223.7249984741211" y="-210" type="line"/>
    </contour>
    <contour>
      <point x="185.6" y="-70.0" type="line"/>
      <point x="45.6" y="-70.0" type="line"/>
      <point x="45.6" y="-123.47524" type="line"/>
      <point x="132.12476" y="-210.0" type="line"/>
      <point x="185.6" y="-210.0" type="line"/>
    </contour>
  </outline>
</glyph>
<glyph name="k_with_cedilla" format="2">
  <advance width="404.95"/>
  <unicode hex="0137"/>
  <outline>
    <contour>
      <point x="41.224998474121094" y="0" type="line"/>
      <point x="181.2249984741211" y="0" type="line"/>
      <point x="181.2249984741211" y="800" type="line"/>
      <point x="41.224998474121094" y="800" type="line"/>
    </contour>
    <contour>
      <point x="223.7249984741211" y="0" type="line"/>
      <point x="363.7249984741211" y="0" type="line"/>
      <point x="363.7249984741211" y="213.4752426147461" type="line"/>
      <point x="277.2002410888672" y="300" type="line"/>
      <point x="363.7249984741211" y="386.5247573852539" type="line"/>
      <point x="363.7249984741211" y="600" type="line"/>
      <point x="223.7249984741211" y="600" type="line"/>
    </contour>
    <contour>
      <point x="193.725" y="-165.0" type="line"/>
      <point x="333.725" y="-165.0" type="line"/>
      <point x="333.725" y="-111.52476" type="line"/>
      <point x="247.20024" y="-25.0" type="line"/>
      <point x="193.725" y="-25.0" type="line"/>
    </contour>
  </outline>
</glyph>
<glyph name="L_with_acute" format="2">
  <advance width="404.95"/>
  <unicode hex="0139"/>
  <outline>
    <contour>
      <point x="193.725" y="981.6666666666666" type="line"/>
      <point x="193.725" y="841.6666666666666" type="line"/>
      <point x="247.20024" y="841.6666666666666" type="line"/>
      <point x="333.725" y="928.1914266666666" type="line"/>
      <point x="333.725" y="981.6666666666666" type="line"/>
    </contour>
    <contour>
      <point x="41.224998474121094" y="0" type="line"/>
      <point x="181.2249984741211" y="0" type="line"/>
      <point x="181.2249984741211" y="800" type="line"/>
      <point x="41.224998474121094" y="800" type="line"/>
    </contour>
    <contour>
      <point x="363.725" y="0.0" type="line"/>
      <point x="363.725" y="140.0" type="line"/>
      <point x="310.24976000000004" y="140.0" type="line"/>
      <point x="223.725" y="53.47524" type="line"/>
      <point x="223.725" y="0.0" type="line"/>
    </contour>
  </outline>
</glyph>
<glyph name="l_with_acute" format="2">
  <advance width="222.45"/>
  <unicode hex="013A"/>
  <outline>
    <contour>
      <point x="102.475" y="981.6666666666666" type="line"/>
      <point x="102.475" y="841.6666666666666" type="line"/>
      <point x="155.95024" y="841.6666666666666" type="line"/>
      <point x="242.475" y="928.1914266666666" type="line"/>
      <point x="242.475" y="981.6666666666666" type="line"/>
    </contour>
    <contour>
      <point x="127.74976348876953" y="-5" type="line"/>
      <point x="181.2249984741211" y="-5" type="line"/>
      <point x="181.2249984741211" y="800" type="line"/>
      <point x="41.224998474121094" y="800" type="line"/>
      <point x="41.224998474121094" y="81.5247573852539" type="line"/>
    </contour>
  </outline>
</glyph>
<glyph name="L_with_cedilla" format="2">
  <advance width="404.95"/>
  <unicode hex="013B"/>
  <outline>
    <contour>
      <point x="41.224998474121094" y="0" type="line"/>
      <point x="181.2249984741211" y="0" type="line"/>
      <point x="181.2249984741211" y="800" type="line"/>
      <point x="41.224998474121094" y="800" type="line"/>
    </contour>
    <contour>
      <point x="363.725" y="0.0" type="line"/>
      <point x="363.725" y="140.0" type="line"/>
      <point x="310.24976000000004" y="140.0" type="line"/>
      <point x="223.725" y="53.47524" type="line"/>
      <point x="223.725" y="0.0" type="line"/>
    </contour>
    <contour>
      <point x="193.725" y="-165.0" type="line"/>
      <point x="333.725" y="-165.0" type="line"/>
      <point x="333.725" y="-111.52476" type="line"/>
      <point x="247.20024" y="-25.0" type="line"/>
      <point x="193.725" y="-25.0" type="line"/>
    </contour>
  </outline>
</glyph>
<glyph name="l_with_cedilla" format="2">
  <advance width="222.45"/>
  <unicode hex="013C"/>
  <outline>
    <contour>
      <point x="127.74976348876953" y="-5" type="line"/>
      <point x="181.2249984741211" y="-5" type="line"/>
      <point x="181.2249984741211" y="800" type="line"/>
      <point x="41.224998474121094" y="800" type="line"/>
      <point x="41.224998474121094" y="81.5247573852539" type="line"/>
    </contour>
    <contour>
      <point x="102.475" y="-170.0" type="line"/>
      <point x="242.475" y="-170.0" type="line"/>
      <point x="242.475" y="-116.52476" type="line"/>
      <point x="155.95024" y="-30.0" type="line"/>
      <point x="102.475" y="-30.0" type="line"/>
    </contour>
  </outline>
</glyph>
<glyph name="L_with_stroke" format="2">
  <advance width="422.45"/>
  <unicode hex="0141"/>
  <outline>
    <contour>
      <point x="58.724998474121094" y="0" type="line"/>
      <point x="198.7249984741211" y="0" type="line"/>
      <point x="198.7249984741211" y="460" type="line"/>
      <point x="199.7002410888672" y="460" type="line"/>
      <point x="286.2249984741211" y="546.5247573852539" type="line"/>
      <point x="286.2249984741211" y="600" type="line"/>
      <point x="198.7249984741211" y="600" type="line"/>
      <point x="198.7249984741211" y="800" type="line"/>
      <point x="58.724998474121094" y="800" type="line"/>
      <point x="58.724998474121094" y="500" type="line"/>
      <point x="57.74976348876953" y="500" type="line"/>
      <point x="-28.775001525878906" y="413.4752426147461" type="line"/>
      <point x="-28.775001525878906" y="360" type="line"/>
      <point x="58.724998474121094" y="360" type="line"/>
    </contour>
    <contour>
      <point x="381.225" y="0.0" type="line"/>
      <point x="381.225" y="140.0" type="line"/>
      <point x="327.74976000000004" y="140.0" type="line"/>
      <point x="241.225" y="53.47524" type="line"/>
      <point x="241.225" y="0.0" type="line"/>
    </contour>
  </outline>
</glyph>
<glyph name="l_with_stroke" format="2">
  <advance width="257.45"/>
  <unicode hex="0142"/>
  <outline>
    <contour>
      <point x="57.74976348876953" y="500" type="line"/>
      <point x="-28.775001525878906" y="413.4752426147461" type="line"/>
      <point x="-28.775001525878906" y="360" type="line"/>
      <point x="58.724998474121094" y="360" type="line"/>
      <point x="58.724998474121094" y="81.5247573852539" type="line"/>
      <point x="145.24976348876953" y="-5" type="line"/>
      <point x="198.7249984741211" y="-5" type="line"/>
      <point x="198.7249984741211" y="460" type="line"/>
      <point x="199.7002410888672" y="460" type="line"/>
      <point x="286.2249984741211" y="546.5247573852539" type="line"/>
      <point x="286.2249984741211" y="600" type="line"/>
      <point x="198.7249984741211" y="600" type="line"/>
      <point x="198.7249984741211" y="800" type="line"/>
      <point x="58.724998474121094" y="800" type="line"/>
      <point x="58.724998474121094" y="500" type="line"/>
    </contour>
  </outline>
</glyph>
<glyph name="n_with_acute" format="2">
  <advance width="404.95"/>
  <unicode hex="0144"/>
  <outline>
    <contour>
      <point x="193.725" y="781.6666666666666" type="line"/>
      <point x="193.725" y="641.6666666666666" type="line"/>
      <point x="247.20024" y="641.6666666666666" type="line"/>
      <point x="333.725" y="728.1914266666666" type="line"/>
      <point x="333.725" y="781.6666666666666" type="line"/>
    </contour>
    <contour>
      <point x="41.224998474121094" y="0" type="line"/>
      <point x="181.2249984741211" y="0" type="line"/>
      <point x="181.2249984741211" y="600" type="line"/>
      <point x="41.224998474121094" y="600" type="line"/>
    </contour>
    <contour>
      <point x="223.7249984741211" y="0" type="line"/>
      <point x="363.7249984741211" y="0" type="line"/>
      <point x="363.7249984741211" y="513.4752426147461" type="line"/>
      <point x="277.2002410888672" y="600" type="line"/>
      <point x="223.7249984741211" y="600" type="line"/>
    </contour>
  </outline>
</glyph>
<glyph name="o_with_breve" format="2">
  <advance width="404.95"/>
  <unicode hex="014F"/>
  <outline>
    <contour>
      <point x="62.474998474121094" y="728.1914291381836" type="line"/>
      <point x="148.99976348876953" y="641.6666641235352" type="line"/>
      <point x="255.9502410888672" y="641.6666641235352" type="line"/>
      <point x="342.4749984741211" y="728.1914291381836" type="line"/>
      <point x="342.4749984741211" y="781.6666641235352" type="line"/>
      <point x="62.474998474121094" y="781.6666641235352" type="line"/>
    </contour>
    <contour>
      <point x="127.74976348876953" y="-5" type="line"/>
      <point x="181.2249984741211" y="-5" type="line"/>
      <point x="181.2249984741211" y="605" type="line"/>
      <point x="127.74976348876953" y="605" type="line"/>
      <point x="41.224998474121094" y="518.4752426147461" type="line"/>
      <point x="41.224998474121094" y="81.5247573852539" type="line"/>
    </contour>
    <contour>
      <point x="277.2002410888672" y="-5" type="line"/>
      <point x="363.7249984741211" y="81.5247573852539" type="line"/>
      <point x="363.7249984741211" y="518.4752426147461" type="line"/>
      <point x="277.2002410888672" y="605" type="line"/>
      <point x="223.7249984741211" y="605" type="line"/>
      <point x="223.7249984741211" y="-5" type="line"/>
    </contour>
  </outline>
</glyph>
<glyph name="OE" format="2">
  <advance width="769.95"/>
  <unicode hex="0152"/>
  <outline>
    <contour>
      <point x="127.74976348876953" y="-5" type="line"/>
      <point x="181.2249984741211" y="-5" type="line"/>
      <point x="181.2249984741211" y="805" type="line"/>
      <point x="127.74976348876953" y="805" type="line"/>
      <point x="41.224998474121094" y="718.4752426147461" type="line"/>
      <point x="41.224998474121094" y="81.5247573852539" type="line"/>
    </contour>
    <contour>
      <point x="277.2002410888672" y="-5" type="line"/>
      <point x="363.7249984741211" y="81.5247573852539" type="line"/>
      <point x="363.7249984741211" y="718.4752426147461" type="line"/>
      <point x="277.2002410888672" y="805" type="line"/>
      <point x="223.7249984741211" y="805" type="line"/>
      <point x="223.7249984741211" y="-5" type="line"/>
    </contour>
    <contour>
      <point x="406.2249984741211" y="0" type="line"/>
      <point x="546.2249984741211" y="0" type="line"/>
      <point x="546.2249984741211" y="800" type="line"/>
      <point x="406.2249984741211" y="800" type="line"/>
    </contour>
    <contour>
      <point x="728.725" y="800.0" type="line"/>
      <point x="588.725" y="800.0" type="line"/>
      <point x="588.725" y="746.52476" type="line"/>
      <point x="675.24976" y="660.0" type="line"/>
      <point x="728.725" y="660.0" type="line"/>
    </contour>
    <contour>
      <point x="728.725" y="500.0" type="line"/>
      <point x="588.725" y="500.0" type="line"/>
      <point x="588.725" y="446.52476" type="line"/>
      <point x="675.24976" y="360.0" type="line"/>
      <point x="728.725" y="360.0" type="line"/>
    </contour>
    <contour>
      <point x="728.725" y="0.0" type="line"/>
      <point x="728.725" y="140.0" type="line"/>
      <point x="675.24976" y="140.0" type="line"/>
      <point x="588.725" y="53.47524" type="line"/>
      <point x="588.725" y="0.0" type="line"/>
    </contour>
  </outline>
</glyph>
<glyph name="S_with_circumflex" format="2">
  <advance width="404.95"/>
  <unicode hex="015C"/>
  <outline>
    <contour>
      <point x="58.099999999999994" y="981.6666666666666" type="line"/>
      <point x="58.099999999999994" y="841.6666666666666" type="line"/>
      <point x="111.57524" y="841.6666666666666" type="line"/>
      <point x="198.1" y="928.1914266666666" type="line"/>
      <point x="198.1" y="981.6666666666666" type="line"/>
    </contour>
    <contour>
      <point x="346.85" y="981.6666666666666" type="line"/>
      <point x="206.85" y="981.6666666666666" type="line"/>
      <point x="206.85" y="928.1914266666666" type="line"/>
      <point x="293.37476" y="841.6666666666666" type="line"/>
      <point x="346.85" y="841.6666666666666" type="line"/>
    </contour>
    <contour>
      <point x="127.74976348876953" y="330" type="line"/>
      <point x="181.2249984741211" y="330" type="line"/>
      <point x="181.2249984741211" y="800" type="line"/>
      <point x="127.74976348876953" y="800" type="line"/>
      <point x="41.224998474121094" y="713.4752426147461" type="line"/>
      <point x="41.224998474121094" y="416.5247573852539" type="line"/>
    </contour>
    <contour>
      <point x="359.35" y="800.0" type="line"/>
      <point x="219.35" y="800.0" type="line"/>
      <point x="219.35" y="746.52476" type="line"/>
      <point x="305.87476000000004" y="660.0" type="line"/>
      <point x="359.35" y="660.0" type="line"/>
    </contour>
    <contour>
      <point x="277.2002410888672" y="0" type="line"/>
      <point x="363.7249984741211" y="86.5247573852539" type="line"/>
      <point x="363.7249984741211" y="383.4752426147461" type="line"/>
      <point x="277.2002410888672" y="470" type="line"/>
      <point x="223.7249984741211" y="470" type="line"/>
      <point x="223.7249984741211" y="0" type="line"/>
    </contour>
    <contour>
      <point x="43.4125" y="0" type="line"/>
      <point x="183.4125" y="0" type="line"/>
      <point x="183.4125" y="53.47524" type="line"/>
      <point x="96.88774000000001" y="140.0" type="line"/>
      <point x="43.4125" y="140.0" type="line"/>
    </contour>
  </outline>
</glyph>
<glyph name="S_with_cedilla" format="2">
  <advance width="404.95"/>
  <unicode hex="015E"/>
  <outline>
    <contour>
      <point x="127.74976348876953" y="330" type="line"/>
      <point x="181.2249984741211" y="330" type="line"/>
      <point x="181.2249984741211" y="800" type="line"/>
      <point x="127.74976348876953" y="800" type="line"/>
      <point x="41.224998474121094" y="713.4752426147461" type="line"/>
      <point x="41.224998474121094" y="416.5247573852539" type="line"/>
    </contour>
    <contour>
      <point x="359.35" y="800.0" type="line"/>
      <point x="219.35" y="800.0" type="line"/>
      <point x="219.35" y="746.52476" type="line"/>
      <point x="305.87476000000004" y="660.0" type="line"/>
      <point x="359.35" y="660.0" type="line"/>
    </contour>
    <contour>
      <point x="277.2002410888672" y="0" type="line"/>
      <point x="363.7249984741211" y="86.5247573852539" type="line"/>
      <point x="363.7249984741211" y="383.4752426147461" type="line"/>
      <point x="277.2002410888672" y="470" type="line"/>
      <point x="223.7249984741211" y="470" type="line"/>
      <point x="223.7249984741211" y="0" type="line"/>
    </contour>
    <contour>
      <point x="43.4125" y="0" type="line"/>
      <point x="183.4125" y="0" type="line"/>
      <point x="183.4125" y="53.47524" type="line"/>
      <point x="96.88774000000001" y="140.0" type="line"/>
      <point x="43.4125" y="140.0" type="line"/>
    </contour>
    <contour>
      <point x="193.725" y="-165.0" type="line"/>
      <point x="333.725" y="-165.0" type="line"/>
      <point x="333.725" y="-111.52476" type="line"/>
      <point x="247.20024" y="-25.0" type="line"/>
      <point x="193.725" y="-25.0" type="line"/>
    </contour>
  </outline>
</glyph>
<glyph name="s_with_cedilla" format="2">
  <advance width="404.95"/>
  <unicode hex="015F"/>
  <outline>
    <contour>
      <point x="127.74976348876953" y="230" type="line"/>
      <point x="181.2249984741211" y="230" type="line"/>
      <point x="181.2249984741211" y="600" type="line"/>
      <point x="127.74976348876953" y="600" type="line"/>
      <point x="41.224998474121094" y="513.4752426147461" type="line"/>
      <point x="41.224998474121094" y="316.5247573852539" type="line"/>
    </contour>
    <contour>
      <point x="359.35" y="600.0" type="line"/>
      <point x="219.35" y="600.0" type="line"/>
      <point x="219.35" y="546.52476" type="line"/>
      <point x="305.87476000000004" y="460.0" type="line"/>
      <point x="359.35" y="460.0" type="line"/>
    </contour>
    <contour>
      <point x="277.2002410888672" y="-5" type="line"/>
      <point x="363.7249984741211" y="81.5247573852539" type="line"/>
      <point x="363.7249984741211" y="278.4752426147461" type="line"/>
      <point x="277.2002410888672" y="365" type="line"/>
      <point x="223.7249984741211" y="365" type="line"/>
      <point x="223.7249984741211" y="-5" type="line"/>
    </contour>
    <contour>
      <point x="43.4125" y="0" type="line"/>
      <point x="183.4125" y="0" type="line"/>
      <point x="183.4125" y="53.47524" type="line"/>
      <point x="96.88774000000001" y="140.0" type="line"/>
      <point x="43.4125" y="140.0" type="line"/>
    </contour>
    <contour>
      <point x="193.725" y="-170.0" type="line"/>
      <point x="333.725" y="-170.0" type="line"/>
      <point x="333.725" y="-116.52476" type="line"/>
      <point x="247.20024" y="-30.0" type="line"/>
      <point x="193.725" y="-30.0" type="line"/>
    </contour>
  </outline>
</glyph>
<glyph name="s_with_caron" format="2">
  <advance width="404.95"/>
  <unicode hex="0161"/>
  <outline>
    <contour>
      <point x="58.099999999999994" y="641.6666666666666" type="line"/>
      <point x="198.1" y="641.6666666666666" type="line"/>
      <point x="198.1" y="695.1419066666666" type="line"/>
      <point x="111.57524" y="781.6666666666666" type="line"/>
      <point x="58.099999999999994" y="781.6666666666666" type="line"/>
    </contour>
    <contour>
      <point x="346.85" y="641.6666666666666" type="line"/>
      <point x="346.85" y="781.6666666666666" type="line"/>
      <point x="293.37476" y="781.6666666666666" type="line"/>
      <point x="206.85" y="695.1419066666666" type="line"/>
      <point x="206.85" y="641.6666666666666" type="line"/>
    </contour>
    <contour>
      <point x="127.74976348876953" y="230" type="line"/>
      <point x="181.2249984741211" y="230" type="line"/>
      <point x="181.2249984741211" y="600" type="line"/>
      <point x="127.74976348876953" y="600" type="line"/>
      <point x="41.224998474121094" y="513.4752426147461" type="line"/>
      <point x="41.224998474121094" y="316.5247573852539" type="line"/>
    </contour>
    <contour>
      <point x="359.35" y="600.0" type="line"/>
      <point x="219.35" y="600.0" type="line"/>
      <point x="219.35" y="546.52476" type="line"/>
      <point x="305.87476000000004" y="460.0" type="line"/>
      <point x="359.35" y="460.0" type="line"/>
    </contour>
    <contour>
      <point x="277.2002410888672" y="-5" type="line"/>
      <point x="363.7249984741211" y="81.5247573852539" type="line"/>
      <point x="363.7249984741211" y="278.4752426147461" type="line"/>
      <point x="277.2002410888672" y="365" type="line"/>
      <point x="223.7249984741211" y="365" type="line"/>
      <point x="223.7249984741211" y="-5" type="line"/>
    </contour>
    <contour>
      <point x="43.4125" y="0" type="line"/>
      <point x="183.4125" y="0" type="line"/>
      <point x="183.4125" y="53.47524" type="line"/>
      <point x="96.88774000000001" y="140.0" type="line"/>
      <point x="43.4125" y="140.0" type="line"/>
    </contour>
  </outline>
</glyph>
<glyph name="T_with_cedilla" format="2">
  <advance width="587.45"/>
  <unicode hex="0162"/>
  <outline>
    <contour>
      <point x="41.225" y="800.0" type="line"/>
      <point x="41.225" y="660.0" type="line"/>
      <point x="94.70024000000001" y="660.0" type="line"/>
      <point x="181.225" y="746.52476" type="line"/>
      <point x="181.225" y="800.0" type="line"/>
    </contour>
    <contour>
      <point x="223.7249984741211" y="0" type="line"/>
      <point x="363.7249984741211" y="0" type="line"/>
      <point x="363.7249984741211" y="800" type="line"/>
      <point x="223.7249984741211" y="800" type="line"/>
    </contour>
    <contour>
      <point x="546.225" y="800.0" type="line"/>
      <point x="406.225" y="800.0" type="line"/>
      <point x="406.225" y="746.52476" type="line"/>
      <point x="492.74976000000004" y="660.0" type="line"/>
      <point x="546.225" y="660.0" type="line"/>
    </contour>
    <contour>
      <point x="284.975" y="-165.0" type="line"/>
      <point x="424.975" y="-165.0" type="line"/>
      <point x="424.975" y="-111.52476" type="line"/>
      <point x="338.45024" y="-25.0" type="line"/>
      <point x="284.975" y="-25.0" type="line"/>
    </contour>
  </outline>
</glyph>
<glyph name="t_with_cedilla" format="2">
  <advance width="404.95"/>
  <unicode hex="0163"/>
  <outline>
    <contour>
      <point x="41.224998474121094" y="0" type="line"/>
      <point x="181.2249984741211" y="0" type="line"/>
      <point x="181.2249984741211" y="800" type="line"/>
      <point x="127.74976348876953" y="800" type="line"/>
      <point x="41.224998474121094" y="713.4752426147461" type="line"/>
    </contour>
    <contour>
      <point x="223.725" y="600.0" type="line"/>
      <point x="223.725" y="460.0" type="line"/>
      <point x="277.20024" y="460.0" type="line"/>
      <point x="363.725" y="546.52476" type="line"/>
      <point x="363.725" y="600.0" type="line"/>
    </contour>
    <contour>
      <point x="113.1" y="-165.0" type="line"/>
      <point x="253.1" y="-165.0" type="line"/>
      <point x="253.1" y="-111.52476" type="line"/>
      <point x="166.57524" y="-25.0" type="line"/>
      <point x="113.1" y="-25.0" type="line"/>
    </contour>
  </outline>
</glyph>
<glyph name="U_with_macron" format="2">
  <advance width="404.95"/>
  <unicode hex="016A"/>
  <outline>
    <contour>
      <point x="62.474998474121094" y="841.6666641235352" type="line"/>
      <point x="342.4749984741211" y="841.6666641235352" type="line"/>
      <point x="342.4749984741211" y="981.6666641235352" type="line"/>
      <point x="62.474998474121094" y="981.6666641235352" type="line"/>
    </contour>
    <contour>
      <point x="127.74976348876953" y="-5" type="line"/>
      <point x="181.2249984741211" y="-5" type="line"/>
      <point x="181.2249984741211" y="800" type="line"/>
      <point x="41.224998474121094" y="800" type="line"/>
      <point x="41.224998474121094" y="81.5247573852539" type="line"/>
    </contour>
    <contour>
      <point x="277.2002410888672" y="-5" type="line"/>
      <point x="363.7249984741211" y="81.5247573852539" type="line"/>
      <point x="363.7249984741211" y="800" type="line"/>
      <point x="223.7249984741211" y="800" type="line"/>
      <point x="223.7249984741211" y="-5" type="line"/>
    </contour>
  </outline>
</glyph>
<glyph name="U_with_breve" format="2">
  <advance width="404.95"/>
  <unicode hex="016C"/>
  <outline>
    <contour>
      <point x="62.474998474121094" y="928.1914291381836" type="line"/>
      <point x="148.99976348876953" y="841.6666641235352" type="line"/>
      <point x="255.9502410888672" y="841.6666641235352" type="line"/>
      <point x="342.4749984741211" y="928.1914291381836" type="line"/>
      <point x="342.4749984741211" y="981.6666641235352" type="line"/>
      <point x="62.474998474121094" y="981.6666641235352" type="line"/>
    </contour>
    <contour>
      <point x="127.74976348876953" y="-5" type="line"/>
      <point x="181.2249984741211" y="-5" type="line"/>
      <point x="181.2249984741211" y="800" type="line"/>
      <point x="41.224998474121094" y="800" type="line"/>
      <point x="41.224998474121094" y="81.5247573852539" type="line"/>
    </contour>
    <contour>
      <point x="277.2002410888672" y="-5" type="line"/>
      <point x="363.7249984741211" y="81.5247573852539" type="line"/>
      <point x="363.7249984741211" y="800" type="line"/>
      <point x="223.7249984741211" y="800" type="line"/>
      <point x="223.7249984741211" y="-5" type="line"/>
    </contour>
  </outline>
</glyph>
<glyph name="U_with_ring" format="2">
  <advance width="404.95"/>
  <unicode hex="016E"/>
  <outline>
    <contour>
      <point x="181.225" y="986.6666666666666" type="line"/>
      <point x="152.57754999999997" y="986.6666666666666" type="line"/>
      <point x="106.225" y="940.3141166666667" type="line"/>
      <point x="106.225" y="883.0192166666666" type="line"/>
      <point x="152.57754999999997" y="836.6666666666666" type="line"/>
      <point x="181.225" y="836.6666666666666" type="line"/>
    </contour>
    <contour>
      <point x="223.725" y="836.6666666666666" type="line"/>
      <point x="252.37245" y="836.6666666666666" type="line"/>
      <point x="298.725" y="883.0192166666666" type="line"/>
      <point x="298.725" y="940.3141166666667" type="line"/>
      <point x="252.37245" y="986.6666666666666" type="line"/>
      <point x="223.725" y="986.6666666666666" type="line"/>
    </contour>
    <contour>
      <point x="127.74976348876953" y="-5" type="line"/>
      <point x="181.2249984741211" y="-5" type="line"/>
      <point x="181.2249984741211" y="800" type="line"/>
      <point x="41.224998474121094" y="800" type="line"/>
      <point x="41.224998474121094" y="81.5247573852539" type="line"/>
    </contour>
    <contour>
      <point x="277.2002410888672" y="-5" type="line"/>
      <point x="363.7249984741211" y="81.5247573852539" type="line"/>
      <point x="363.7249984741211" y="800" type="line"/>
      <point x="223.7249984741211" y="800" type="line"/>
      <point x="223.7249984741211" y="-5" type="line"/>
    </contour>
  </outline>
</glyph>
<glyph name="u_with_ring" format="2">
  <advance width="404.95"/>
  <unicode hex="016F"/>
  <outline>
    <contour>
      <point x="181.225" y="786.6666666666666" type="line"/>
      <point x="152.57754999999997" y="786.6666666666666" type="line"/>
      <point x="106.225" y="740.3141166666667" type="line"/>
      <point x="106.225" y="683.0192166666666" type="line"/>
      <point x="152.57754999999997" y="636.6666666666666" type="line"/>
      <point x="181.225" y="636.6666666666666" type="line"/>
    </contour>
    <contour>
      <point x="223.725" y="636.6666666666666" type="line"/>
      <point x="252.37245" y="636.6666666666666" type="line"/>
      <point x="298.725" y="683.0192166666666" type="line"/>
      <point x="298.725" y="740.3141166666667" type="line"/>
      <point x="252.37245" y="786.6666666666666" type="line"/>
      <point x="223.725" y="786.6666666666666" type="line"/>
    </contour>
    <contour>
      <point x="127.74976348876953" y="-5" type="line"/>
      <point x="181.2249984741211" y="-5" type="line"/>
      <point x="181.2249984741211" y="600" type="line"/>
      <point x="41.224998474121094" y="600" type="line"/>
      <point x="41.224998474121094" y="81.5247573852539" type="line"/>
    </contour>
    <contour>
      <point x="277.2002410888672" y="-5" type="line"/>
      <point x="363.7249984741211" y="81.5247573852539" type="line"/>
      <point x="363.7249984741211" y="600" type="line"/>
      <point x="223.7249984741211" y="600" type="line"/>
      <point x="223.7249984741211" y="-5" type="line"/>
    </contour>
  </outline>
</glyph>
<glyph name="u_with_ogonek" format="2">
  <advance width="404.95"/>
  <unicode hex="0173"/>
  <outline>
    <contour>
      <point x="127.74976348876953" y="-5" type="line"/>
      <point x="181.2249984741211" y="-5" type="line"/>
      <point x="181.2249984741211" y="600" type="line"/>
      <point x="41.224998474121094" y="600" type="line"/>
      <point x="41.224998474121094" y="81.5247573852539" type="line"/>
    </contour>
    <contour>
      <point x="277.2002410888672" y="-5" type="line"/>
      <point x="363.7249984741211" y="81.5247573852539" type="line"/>
      <point x="363.7249984741211" y="600" type="line"/>
      <point x="223.7249984741211" y="600" type="line"/>
      <point x="223.7249984741211" y="-5" type="line"/>
    </contour>
    <contour>
      <point x="202.47500000000002" y="-170.0" type="line"/>
      <point x="202.47500000000002" y="-30.0" type="line"/>
      <point x="148.99976000000004" y="-30.0" type="line"/>
      <point x="62.47500000000002" y="-116.52476" type="line"/>
      <point x="62.47500000000002" y="-170.0" type="line"/>
    </contour>
  </outline>
</glyph>
<glyph name="w_with_circumflex" format="2">
  <advance width="587.45"/>
  <unicode hex="0175"/>
  <outline>
    <contour>
      <point x="149.35000000000002" y="781.6666666666666" type="line"/>
      <point x="149.35000000000002" y="641.6666666666666" type="line"/>
      <point x="202.82524" y="641.6666666666666" type="line"/>
      <point x="289.35" y="728.1914266666666" type="line"/>
      <point x="289.35" y="781.6666666666666" type="line"/>
    </contour>
    <contour>
      <point x="438.1" y="781.6666666666666" type="line"/>
      <point x="298.1" y="781.6666666666666" type="line"/>
      <point x="298.1" y="728.1914266666666" type="line"/>
      <point x="384.62476000000004" y="641.6666666666666" type="line"/>
      <point x="438.1" y="641.6666666666666" type="line"/>
    </contour>
    <contour>
      <point x="127.74976348876953" y="0" type="line"/>
      <point x="181.2249984741211" y="0" type="line"/>
      <point x="181.2249984741211" y="513.4752426147461" type="line"/>
      <point x="94.70024108886719" y="600" type="line"/>
      <point x="41.224998474121094" y="600" type="line"/>
      <point x="41.224998474121094" y="86.5247573852539" type="line"/>
    </contour>
    <contour>
      <point x="223.7249984741211" y="0" type="line"/>
      <point x="363.7249984741211" y="0" type="line"/>
      <point x="363.7249984741211" y="513.4752426147461" type="line"/>
      <point x="277.2002410888672" y="600" type="line"/>
      <point x="223.7249984741211" y="600" type="line"/>
    </contour>
    <contour>
      <point x="459.7002410888672" y="0" type="line"/>
      <point x="546.2249984741211" y="86.5247573852539" type="line"/>
      <point x="546.2249984741211" y="600" type="line"/>
      <point x="406.2249984741211" y="600" type="line"/>
      <point x="406.2249984741211" y="0" type="line"/>
    </contour>
  </outline>
</glyph>
<glyph name="Y_with_circumflex" format="2">
  <advance width="404.95"/>
  <unicode hex="0176"/>
  <outline>
    <contour>
      <point x="58.099999999999994" y="981.6666666666666" type="line"/>
      <point x="58.099999999999994" y="841.6666666666666" type="line"/>
      <point x="111.57524" y="841.6666666666666" type="line"/>
      <point x="198.1" y="928.1914266666666" type="line"/>
      <point x="198.1" y="981.6666666666666" type="line"/>
    </contour>
    <contour>
      <point x="346.85" y="981.6666666666666" type="line"/>
      <point x="206.85" y="981.6666666666666" type="line"/>
      <point x="206.85" y="928.1914266666666" type="line"/>
      <point x="293.37476" y="841.6666666666666" type="line"/>
      <point x="346.85" y="841.6666666666666" type="line"/>
    </contour>
    <contour>
      <point x="127.74976348876953" y="202.5" type="line"/>
      <point x="181.2249984741211" y="202.5" type="line"/>
      <point x="181.2249984741211" y="718.4752426147461" type="line"/>
      <point x="94.70024108886719" y="805" type="line"/>
      <point x="41.224998474121094" y="805" type="line"/>
      <point x="41.224998474121094" y="289.0247573852539" type="line"/>
    </contour>
    <contour>
      <point x="277.2002410888672" y="-5" type="line"/>
      <point x="363.7249984741211" y="81.5247573852539" type="line"/>
      <point x="363.7249984741211" y="800" type="line"/>
      <point x="223.7249984741211" y="800" type="line"/>
      <point x="223.7249984741211" y="-5" type="line"/>
    </contour>
    <contour>
      <point x="181.225" y="135.0" type="line"/>
      <point x="41.225" y="135.0" type="line"/>
      <point x="41.225" y="81.52476" type="line"/>
      <point x="127.74976000000001" y="-5.0" type="line"/>
      <point x="181.225" y="-5.0" type="line"/>
    </contour>
  </outline>
</glyph>
<glyph name="Y_with_diaeresis" format="2">
  <advance width="404.95"/>
  <unicode hex="0178"/>
  <outline>
    <contour>
      <point x="41.224999999999994" y="901.6666666666666" type="line"/>
      <point x="181.225" y="901.6666666666666" type="line"/>
      <point x="181.225" y="1041.6666666666665" type="line"/>
      <point x="41.224999999999994" y="1041.6666666666665" type="line"/>
    </contour>
    <contour>
      <point x="223.725" y="901.6666666666666" type="line"/>
      <point x="363.725" y="901.6666666666666" type="line"/>
      <point x="363.725" y="1041.6666666666665" type="line"/>
      <point x="223.725" y="1041.6666666666665" type="line"/>
    </contour>
    <contour>
      <point x="127.74976348876953" y="202.5" type="line"/>
      <point x="181.2249984741211" y="202.5" type="line"/>
      <point x="181.2249984741211" y="718.4752426147461" type="line"/>
      <point x="94.70024108886719" y="805" type="line"/>
      <point x="41.224998474121094" y="805" type="line"/>
      <point x="41.224998474121094" y="289.0247573852539" type="line"/>
    </contour>
    <contour>
      <point x="277.2002410888672" y="-5" type="line"/>
      <point x="363.7249984741211" y="81.5247573852539" type="line"/>
      <point x="363.7249984741211" y="800" type="line"/>
      <point x="223.7249984741211" y="800" type="line"/>
      <point x="223.7249984741211" y="-5" type="line"/>
    </contour>
    <contour>
      <point x="181.225" y="135.0" type="line"/>
      <point x="41.225" y="135.0" type="line"/>
      <point x="41.225" y="81.52476" type="line"/>
      <point x="127.74976000000001" y="-5.0" type="line"/>
      <point x="181.225" y="-5.0" type="line"/>
    </contour>
  </outline>
</glyph>
<glyph name="Z_with_acute" format="2">
  <advance width="404.95"/>
  <unicode hex="0179"/>
  <outline>
    <contour>
      <point x="193.725" y="981.6666666666666" type="line"/>
      <point x="193.725" y="841.6666666666666" type="line"/>
      <point x="247.20024" y="841.6666666666666" type="line"/>
      <point x="333.725" y="928.1914266666666" type="line"/>
      <point x="333.725" y="981.6666666666666" type="line"/>
    </contour>
    <contour>
      <point x="41.225" y="800.0" type="line"/>
      <point x="41.225" y="660.0" type="line"/>
      <point x="94.70024000000001" y="660.0" type="line"/>
      <point x="181.225" y="746.52476" type="line"/>
      <point x="181.225" y="800.0" type="line"/>
    </contour>
    <contour>
      <point x="277.2002410888672" y="330" type="line"/>
      <point x="363.7249984741211" y="416.5247573852539" type="line"/>
      <point x="363.7249984741211" y="800" type="line"/>
      <point x="223.7249984741211" y="800" type="line"/>
      <point x="223.7249984741211" y="330" type="line"/>
    </contour>
    <contour>
      <point x="41.224998474121094" y="0" type="line"/>
      <point x="181.2249984741211" y="0" type="line"/>
      <point x="181.2249984741211" y="470" type="line"/>
      <point x="127.74976348876953" y="470" type="line"/>
      <point x="41.224998474121094" y="383.4752426147461" type="line"/>
    </contour>
    <contour>
      <point x="363.725" y="0.0" type="line"/>
      <point x="363.725" y="140.0" type="line"/>
      <point x="310.24976000000004" y="140.0" type="line"/>
      <point x="223.725" y="53.47524" type="line"/>
      <point x="223.725" y="0.0" type="line"/>
    </contour>
  </outline>
</glyph>
<glyph name="Z_with_dotabove" format="2">
  <advance width="404.95"/>
  <unicode hex="017B"/>
  <outline>
    <contour>
      <point x="132.475" y="901.6666666666666" type="line"/>
      <point x="272.475" y="901.6666666666666" type="line"/>
      <point x="272.475" y="1041.6666666666665" type="line"/>
      <point x="132.475" y="1041.6666666666665" type="line"/>
    </contour>
    <contour>
      <point x="41.225" y="800.0" type="line"/>
      <point x="41.225" y="660.0" type="line"/>
      <point x="94.70024000000001" y="660.0" type="line"/>
      <point x="181.225" y="746.52476" type="line"/>
      <point x="181.225" y="800.0" type="line"/>
    </contour>
    <contour>
      <point x="277.2002410888672" y="330" type="line"/>
      <point x="363.7249984741211" y="416.5247573852539" type="line"/>
      <point x="363.7249984741211" y="800" type="line"/>
      <point x="223.7249984741211" y="800" type="line"/>
      <point x="223.7249984741211" y="330" type="line"/>
    </contour>
    <contour>
      <point x="41.224998474121094" y="0" type="line"/>
      <point x="181.2249984741211" y="0" type="line"/>
      <point x="181.2249984741211" y="470" type="line"/>
      <point x="127.74976348876953" y="470" type="line"/>
      <point x="41.224998474121094" y="383.4752426147461" type="line"/>
    </contour>
    <contour>
      <point x="363.725" y="0.0" type="line"/>
      <point x="363.725" y="140.0" type="line"/>
      <point x="310.24976000000004" y="140.0" type="line"/>
      <point x="223.725" y="53.47524" type="line"/>
      <point x="223.725" y="0.0" type="line"/>
    </contour>
  </outline>
</glyph>
<glyph name="z_with_dotabove" format="2">
  <advance width="404.95"/>
  <unicode hex="017C"/>
  <outline>
    <contour>
      <point x="132.475" y="701.6666666666666" type="line"/>
      <point x="272.475" y="701.6666666666666" type="line"/>
      <point x="272.475" y="841.6666666666666" type="line"/>
      <point x="132.475" y="841.6666666666666" type="line"/>
    </contour>
    <contour>
      <point x="41.225" y="600.0" type="line"/>
      <point x="41.225" y="460.0" type="line"/>
      <point x="94.70024000000001" y="460.0" type="line"/>
      <point x="181.225" y="546.52476" type="line"/>
      <point x="181.225" y="600.0" type="line"/>
    </contour>
    <contour>
      <point x="277.2002410888672" y="230" type="line"/>
      <point x="363.7249984741211" y="316.5247573852539" type="line"/>
      <point x="363.7249984741211" y="600" type="line"/>
      <point x="223.7249984741211" y="600" type="line"/>
      <point x="223.7249984741211" y="230" type="line"/>
    </contour>
    <contour>
      <point x="41.224998474121094" y="0" type="line"/>
      <point x="181.2249984741211" y="0" type="line"/>
      <point x="181.2249984741211" y="370" type="line"/>
      <point x="127.74976348876953" y="370" type="line"/>
      <point x="41.224998474121094" y="283.4752426147461" type="line"/>
    </contour>
    <contour>
      <point x="363.725" y="0.0" type="line"/>
      <point x="363.725" y="140.0" type="line"/>
      <point x="310.24976000000004" y="140.0" type="line"/>
      <point x="223.725" y="53.47524" type="line"/>
      <point x="223.725" y="0.0" type="line"/>
    </contour>
  </outline>
</glyph>
<glyph name="Z_with_caron" format="2">
  <advance width="404.95"/>
  <unicode hex="017D"/>
  <outline>
    <contour>
      <point x="58.099999999999994" y="841.6666666666666" type="line"/>
      <point x="198.1" y="841.6666666666666" type="line"/>
      <point x="198.1" y="895.1419066666666" type="line"/>
      <point x="111.57524" y="981.6666666666666" type="line"/>
      <point x="58.099999999999994" y="981.6666666666666" type="line"/>
    </contour>
    <contour>
      <point x="346.85" y="841.6666666666666" type="line"/>
      <point x="346.85" y="981.6666666666666" type="line"/>
      <point x="293.37476" y="981.6666666666666" type="line"/>
      <point x="206.85" y="895.1419066666666" type="line"/>
      <point x="206.85" y="841.6666666666666" type="line"/>
    </contour>
    <contour>
      <point x="41.225" y="800.0" type="line"/>
      <point x="41.225" y="660.0" type="line"/>
      <point x="94.70024000000001" y="660.0" type="line"/>
      <point x="181.225" y="746.52476" type="line"/>
      <point x="181.225" y="800.0" type="line"/>
    </contour>
    <contour>
      <point x="277.2002410888672" y="330" type="line"/>
      <point x="363.7249984741211" y="416.5247573852539" type="line"/>
      <point x="363.7249984741211" y="800" type="line"/>
      <point x="223.7249984741211" y="800" type="line"/>
      <point x="223.7249984741211" y="330" type="line"/>
    </contour>
    <contour>
      <point x="41.224998474121094" y="0" type="line"/>
      <point x="181.2249984741211" y="0" type="line"/>
      <point x="181.2249984741211" y="470" type="line"/>
      <point x="127.74976348876953" y="470" type="line"/>
      <point x="41.224998474121094" y="383.4752426147461" type="line"/>
    </contour>
    <contour>
      <point x="363.725" y="0.0" type="line"/>
      <point x="363.725" y="140.0" type="line"/>
      <point x="310.24976000000004" y="140.0" type="line"/>
      <point x="223.725" y="53.47524" type="line"/>
      <point x="223.725" y="0.0" type="line"/>
    </contour>
  </outline>
</glyph>
<glyph name="z_with_caron" format="2">
  <advance width="404.95"/>
  <unicode hex="017E"/>
  <outline>
    <contour>
      <point x="58.099999999999994" y="641.6666666666666" type="line"/>
      <point x="198.1" y="641.6666666666666" type="line"/>
      <point x="198.1" y="695.1419066666666" type="line"/>
      <point x="111.57524" y="781.6666666666666" type="line"/>
      <point x="58.099999999999994" y="781.6666666666666" type="line"/>
    </contour>
    <contour>
      <point x="346.85" y="641.6666666666666" type="line"/>
      <point x="346.85" y="781.6666666666666" type="line"/>
      <point x="293.37476" y="781.6666666666666" type="line"/>
      <point x="206.85" y="695.1419066666666" type="line"/>
      <point x="206.85" y="641.6666666666666" type="line"/>
    </contour>
    <contour>
      <point x="41.225" y="600.0" type="line"/>
      <point x="41.225" y="460.0" type="line"/>
      <point x="94.70024000000001" y="460.0" type="line"/>
      <point x="181.225" y="546.52476" type="line"/>
      <point x="181.225" y="600.0" type="line"/>
    </contour>
    <contour>
      <point x="277.2002410888672" y="230" type="line"/>
      <point x="363.7249984741211" y="316.5247573852539" type="line"/>
      <point x="363.7249984741211" y="600" type="line"/>
      <point x="223.7249984741211" y="600" type="line"/>
      <point x="223.7249984741211" y="230" type="line"/>
    </contour>
    <contour>
      <point x="41.224998474121094" y="0" type="line"/>
      <point x="181.2249984741211" y="0" type="line"/>
      <point x="181.2249984741211" y="370" type="line"/>
      <point x="127.74976348876953" y="370" type="line"/>
      <point x="41.224998474121094" y="283.4752426147461" type="line"/>
    </contour>
    <contour>
      <point x="363.725" y="0.0" type="line"/>
      <point x="363.725" y="140.0" type="line"/>
      <point x="310.24976000000004" y="140.0" type="line"/>
      <point x="223.725" y="53.47524" type="line"/>
      <point x="223.725" y="0.0" type="line"/>
    </contour>
  </outline>
</glyph>
<glyph name="florin" format="2">
  <advance width="587.45"/>
  <unicode hex="0192"/>
  <outline>
    <contour>
      <point x="277.2002410888672" y="0" type="line"/>
      <point x="363.7249984741211" y="86.5247573852539" type="line"/>
      <point x="363.7249984741211" y="805" type="line"/>
      <point x="310.24976348876953" y="805" type="line"/>
      <point x="223.7249984741211" y="718.4752426147461" type="line"/>
      <point x="223.7249984741211" y="0" type="line"/>
    </contour>
    <contour>
      <point x="551.225" y="758.64745" type="line"/>
      <point x="504.87245" y="805.0" type="line"/>
      <point x="447.57755000000003" y="805.0" type="line"/>
      <point x="401.225" y="758.64745" type="line"/>
      <point x="401.225" y="701.35255" type="line"/>
      <point x="447.57755000000003" y="655.0" type="line"/>
      <point x="504.87245" y="655.0" type="line"/>
      <point x="551.225" y="701.35255" type="line"/>
    </contour>
    <contour>
      <point x="93.7249984741211" y="415" type="line"/>
      <point x="181.2249984741211" y="415" type="line"/>
      <point x="181.2249984741211" y="485" type="line"/>
      <point x="93.7249984741211" y="485" type="line"/>
    </contour>
    <contour>
      <point x="406.2249984741211" y="415" type="line"/>
      <point x="511.2249984741211" y="415" type="line"/>
      <point x="511.2249984741211" y="485" type="line"/>
      <point x="406.2249984741211" y="485" type="line"/>
    </contour>
    <contour>
      <point x="186.225" y="98.64745" type="line"/>
      <point x="139.87245000000001" y="145.0" type="line"/>
      <point x="82.57755" y="145.0" type="line"/>
      <point x="36.225" y="98.64745" type="line"/>
      <point x="36.225" y="41.35255" type="line"/>
      <point x="82.57755" y="-5.0" type="line"/>
      <point x="139.87245000000001" y="-5.0" type="line"/>
      <point x="186.225" y="41.35255" type="line"/>
    </contour>
  </outline>
</glyph>
<glyph name="I_with_gravedbl" format="2">
  <advance width="222.45"/>
  <unicode hex="0208"/>
  <outline>
    <contour>
      <point x="89.975" y="981.6666666666666" type="line"/>
      <point x="-50.025000000000006" y="981.6666666666666" type="line"/>
      <point x="-50.025000000000006" y="928.1914266666666" type="line"/>
      <point x="36.499759999999995" y="841.6666666666666" type="line"/>
      <point x="89.975" y="841.6666666666666" type="line"/>
    </contour>
    <contour>
      <point x="272.475" y="981.6666666666666" type="line"/>
      <point x="132.475" y="981.6666666666666" type="line"/>
      <point x="132.475" y="928.1914266666666" type="line"/>
      <point x="218.99976" y="841.6666666666666" type="line"/>
      <point x="272.475" y="841.6666666666666" type="line"/>
    </contour>
    <contour>
      <point x="41.224998474121094" y="0" type="line"/>
      <point x="181.2249984741211" y="0" type="line"/>
      <point x="181.2249984741211" y="800" type="line"/>
      <point x="41.224998474121094" y="800" type="line"/>
    </contour>
  </outline>
</glyph>
<glyph name="i_with_gravedbl" format="2">
  <advance width="222.45"/>
  <unicode hex="0209"/>
  <outline>
    <contour>
      <point x="89.975" y="781.6666666666666" type="line"/>
      <point x="-50.025000000000006" y="781.6666666666666" type="line"/>
      <point x="-50.025000000000006" y="728.1914266666666" type="line"/>
      <point x="36.499759999999995" y="641.6666666666666" type="line"/>
      <point x="89.975" y="641.6666666666666" type="line"/>
    </contour>
    <contour>
      <point x="272.475" y="781.6666666666666" type="line"/>
      <point x="132.475" y="781.6666666666666" type="line"/>
      <point x="132.475" y="728.1914266666666" type="line"/>
      <point x="218.99976" y="641.6666666666666" type="line"/>
      <point x="272.475" y="641.6666666666666" type="line"/>
    </contour>
    <contour>
      <point x="41.224998474121094" y="0" type="line"/>
      <point x="181.2249984741211" y="0" type="line"/>
      <point x="181.2249984741211" y="600" type="line"/>
      <point x="41.224998474121094" y="600" type="line"/>
    </contour>
  </outline>
</glyph>
<glyph name="R_with_gravedbl" format="2">
  <advance width="404.95"/>
  <unicode hex="0210"/>
  <outline>
    <contour>
      <point x="181.225" y="981.6666666666666" type="line"/>
      <point x="41.224999999999994" y="981.6666666666666" type="line"/>
      <point x="41.224999999999994" y="928.1914266666666" type="line"/>
      <point x="127.74976" y="841.6666666666666" type="line"/>
      <point x="181.225" y="841.6666666666666" type="line"/>
    </contour>
    <contour>
      <point x="363.725" y="981.6666666666666" type="line"/>
      <point x="223.725" y="981.6666666666666" type="line"/>
      <point x="223.725" y="928.1914266666666" type="line"/>
      <point x="310.24976000000004" y="841.6666666666666" type="line"/>
      <point x="363.725" y="841.6666666666666" type="line"/>
    </contour>
    <contour>
      <point x="41.224998474121094" y="0" type="line"/>
      <point x="181.2249984741211" y="0" type="line"/>
      <point x="181.2249984741211" y="800" type="line"/>
      <point x="41.224998474121094" y="800" type="line"/>
    </contour>
    <contour>
      <point x="223.7249984741211" y="0" type="line"/>
      <point x="363.7249984741211" y="0" type="line"/>
      <point x="363.7249984741211" y="113.4752426147461" type="line"/>
      <point x="277.2002410888672" y="200" type="line"/>
      <point x="363.7249984741211" y="286.5247573852539" type="line"/>
      <point x="363.7249984741211" y="713.4752426147461" type="line"/>
      <point x="277.2002410888672" y="800" type="line"/>
      <point x="223.7249984741211" y="800" type="line"/>
    </contour>
  </outline>
</glyph>
<glyph name="r_with_gravedbl" format="2">
  <advance width="404.95"/>
  <unicode hex="0211"/>
  <outline>
    <contour>
      <point x="181.225" y="781.6666666666666" type="line"/>
      <point x="41.224999999999994" y="781.6666666666666" type="line"/>
      <point x="41.224999999999994" y="728.1914266666666" type="line"/>
      <point x="127.74976" y="641.6666666666666" type="line"/>
      <point x="181.225" y="641.6666666666666" type="line"/>
    </contour>
    <contour>
      <point x="363.725" y="781.6666666666666" type="line"/>
      <point x="223.725" y="781.6666666666666" type="line"/>
      <point x="223.725" y="728.1914266666666" type="line"/>
      <point x="310.24976000000004" y="641.6666666666666" type="line"/>
      <point x="363.725" y="641.6666666666666" type="line"/>
    </contour>
    <contour>
      <point x="41.224998474121094" y="0" type="line"/>
      <point x="181.2249984741211" y="0" type="line"/>
      <point x="181.2249984741211" y="600" type="line"/>
      <point x="41.224998474121094" y="600" type="line"/>
    </contour>
    <contour>
      <point x="363.725" y="600.0" type="line"/>
      <point x="223.725" y="600.0" type="line"/>
      <point x="223.725" y="546.52476" type="line"/>
      <point x="310.24976000000004" y="460.0" type="line"/>
      <point x="363.725" y="460.0" type="line"/>
    </contour>
  </outline>
</glyph>
<glyph name="r_with_breveinv" format="2">
  <advance width="404.95"/>
  <unicode hex="0213"/>
  <outline>
    <contour>
      <point x="62.474998474121094" y="695.1419067382812" type="line"/>
      <point x="62.474998474121094" y="641.6666641235352" type="line"/>
      <point x="342.4749984741211" y="641.6666641235352" type="line"/>
      <point x="342.4749984741211" y="695.1419067382812" type="line"/>
      <point x="255.9502410888672" y="781.6666641235352" type="line"/>
      <point x="148.99976348876953" y="781.6666641235352" type="line"/>
    </contour>
    <contour>
      <point x="41.224998474121094" y="0" type="line"/>
      <point x="181.2249984741211" y="0" type="line"/>
      <point x="181.2249984741211" y="600" type="line"/>
      <point x="41.224998474121094" y="600" type="line"/>
    </contour>
    <contour>
      <point x="363.725" y="600.0" type="line"/>
      <point x="223.725" y="600.0" type="line"/>
      <point x="223.725" y="546.52476" type="line"/>
      <point x="310.24976000000004" y="460.0" type="line"/>
      <point x="363.725" y="460.0" type="line"/>
    </contour>
  </outline>
</glyph>
<glyph name="t_with_commabelow" format="2">
  <advance width="404.95"/>
  <unicode hex="021B"/>
  <outline>
    <contour>
      <point x="41.224998474121094" y="0" type="line"/>
      <point x="181.2249984741211" y="0" type="line"/>
      <point x="181.2249984741211" y="800" type="line"/>
      <point x="127.74976348876953" y="800" type="line"/>
      <point x="41.224998474121094" y="713.4752426147461" type="line"/>
    </contour>
    <contour>
      <point x="223.725" y="600.0" type="line"/>
      <point x="223.725" y="460.0" type="line"/>
      <point x="277.20024" y="460.0" type="line"/>
      <point x="363.725" y="546.52476" type="line"/>
      <point x="363.725" y="600.0" type="line"/>
    </contour>
    <contour>
      <point x="132.475" y="-55.0" type="line"/>
      <point x="132.475" y="-195.0" type="line"/>
      <point x="185.95024" y="-195.0" type="line"/>
      <point x="272.475" y="-108.47524" type="line"/>
      <point x="272.475" y="-55.0" type="line"/>
    </contour>
  </outline>
</glyph>
<glyph name="j_dotless" format="2">
  <advance width="404.95"/>
  <unicode hex="0237"/>
  <outline>
    <contour>
      <point x="277.2002410888672" y="-210" type="line"/>
      <point x="363.7249984741211" y="-123.4752426147461" type="line"/>
      <point x="363.7249984741211" y="600" type="line"/>
      <point x="223.7249984741211" y="600" type="line"/>
      <point x="223.7249984741211" y="-210" type="line"/>
    </contour>
    <contour>
      <point x="185.6" y="-70.0" type="line"/>
      <point x="45.6" y="-70.0" type="line"/>
      <point x="45.6" y="-123.47524" type="line"/>
      <point x="132.12476" y="-210.0" type="line"/>
      <point x="185.6" y="-210.0" type="line"/>
    </contour>
  </outline>
</glyph>
<glyph name="turnedcomma" format="2">
  <advance width="222.45"/>
  <unicode hex="02BB"/>
  <outline>
    <contour>
      <point x="41.224998474121094" y="560" type="line"/>
      <point x="181.2249984741211" y="560" type="line"/>
      <point x="181.2249984741211" y="800" type="line"/>
      <point x="127.74976348876953" y="800" type="line"/>
      <point x="41.224998474121094" y="713.4752426147461" type="line"/>
    </contour>
  </outline>
</glyph>
<glyph name="apostrophe" format="2">
  <advance width="222.45"/>
  <unicode hex="02BC"/>
  <outline>
    <contour>
      <point x="94.70024108886719" y="600" type="line"/>
      <point x="181.2249984741211" y="686.5247573852539" type="line"/>
      <point x="181.2249984741211" y="800" type="line"/>
      <point x="41.224998474121094" y="800" type="line"/>
      <point x="41.224998474121094" y="600" type="line"/>
    </contour>
  </outline>
</glyph>
<glyph name="circumflex" format="2">
  <advance width="404.95"/>
  <unicode hex="02C6"/>
  <outline>
    <contour>
      <point x="58.1" y="940.0" type="line"/>
      <point x="58.1" y="800.0" type="line"/>
      <point x="111.57524000000001" y="800.0" type="line"/>
      <point x="198.1" y="886.52476" type="line"/>
      <point x="198.1" y="940.0" type="line"/>
    </contour>
    <contour>
      <point x="346.85" y="940.0" type="line"/>
      <point x="206.85" y="940.0" type="line"/>
      <point x="206.85" y="886.52476" type="line"/>
      <point x="293.37476" y="800.0" type="line"/>
      <point x="346.85" y="800.0" type="line"/>
    </contour>
  </outline>
</glyph>
<glyph name="breve" format="2">
  <advance width="404.95"/>
  <unicode hex="02D8"/>
  <outline>
    <contour>
      <point x="62.474998474121094" y="886.5247573852539" type="line"/>
      <point x="148.99976348876953" y="800" type="line"/>
      <point x="255.9502410888672" y="800" type="line"/>
      <point x="342.4749984741211" y="886.5247573852539" type="line"/>
      <point x="342.4749984741211" y="940" type="line"/>
      <point x="62.474998474121094" y="940" type="line"/>
    </contour>
  </outline>
</glyph>
<glyph name="dotabove" format="2">
  <advance width="222.45"/>
  <unicode hex="02D9"/>
  <outline>
    <contour>
      <point x="41.225" y="860.0" type="line"/>
      <point x="181.225" y="860.0" type="line"/>
      <point x="181.225" y="1000.0" type="line"/>
      <point x="41.225" y="1000.0" type="line"/>
    </contour>
  </outline>
</glyph>
<glyph name="ring" format="2">
  <advance width="404.95"/>
  <unicode hex="02DA"/>
  <outline>
    <contour>
      <point x="181.225" y="945.0" type="line"/>
      <point x="152.57755" y="945.0" type="line"/>
      <point x="106.225" y="898.64745" type="line"/>
      <point x="106.225" y="841.35255" type="line"/>
      <point x="152.57755" y="795.0" type="line"/>
      <point x="181.225" y="795.0" type="line"/>
    </contour>
    <contour>
      <point x="223.725" y="795.0" type="line"/>
      <point x="252.37245" y="795.0" type="line"/>
      <point x="298.725" y="841.35255" type="line"/>
      <point x="298.725" y="898.64745" type="line"/>
      <point x="252.37245" y="945.0" type="line"/>
      <point x="223.725" y="945.0" type="line"/>
    </contour>
  </outline>
</glyph>
<glyph name="ogonek" format="2">
  <advance width="222.45"/>
  <unicode hex="02DB"/>
  <outline>
    <contour>
      <point x="111.225" y="-140.0" type="line"/>
      <point x="111.225" y="0.0" type="line"/>
      <point x="57.74976" y="0.0" type="line"/>
      <point x="-28.775" y="-86.52476" type="line"/>
      <point x="-28.775" y="-140.0" type="line"/>
    </contour>
  </outline>
</glyph>
<glyph name="acutedbl" format="2">
  <advance width="404.95"/>
  <unicode hex="02DD"/>
  <outline>
    <contour>
      <point x="41.225" y="940.0" type="line"/>
      <point x="41.225" y="800.0" type="line"/>
      <point x="94.70024000000001" y="800.0" type="line"/>
      <point x="181.225" y="886.52476" type="line"/>
      <point x="181.225" y="940.0" type="line"/>
    </contour>
    <contour>
      <point x="223.725" y="940.0" type="line"/>
      <point x="223.725" y="800.0" type="line"/>
      <point x="277.20024" y="800.0" type="line"/>
      <point x="363.725" y="886.52476" type="line"/>
      <point x="363.725" y="940.0" type="line"/>
    </contour>
  </outline>
</glyph>
<glyph name="combining_grave" format="2">
  <advance width="222.45"/>
  <unicode hex="0300"/>
  <outline>
    <contour>
      <point x="-284.97499999999997" y="781.66667" type="line"/>
      <point x="-424.97499999999997" y="781.66667" type="line"/>
      <point x="-424.97499999999997" y="728.19143" type="line"/>
      <point x="-338.45023999999995" y="641.6666700000001" type="line"/>
      <point x="-284.97499999999997" y="641.6666700000001" type="line"/>
    </contour>
  </outline>
</glyph>
<glyph name="combining_acute" format="2">
  <advance width="222.45"/>
  <unicode hex="0301"/>
  <outline>
    <contour>
      <point x="-302.47499999999997" y="781.66667" type="line"/>
      <point x="-302.47499999999997" y="641.6666700000001" type="line"/>
      <point x="-248.99976" y="641.6666700000001" type="line"/>
      <point x="-162.475" y="728.19143" type="line"/>
      <point x="-162.475" y="781.66667" type="line"/>
    </contour>
  </outline>
</glyph>
<glyph name="combining_circumflex" format="2">
  <advance width="404.95"/>
  <unicode hex="0302"/>
  <outline>
    <contour>
      <point x="-346.84999999999997" y="781.66667" type="line"/>
      <point x="-346.84999999999997" y="641.6666700000001" type="line"/>
      <point x="-293.37476" y="641.6666700000001" type="line"/>
      <point x="-206.85" y="728.19143" type="line"/>
      <point x="-206.85" y="781.66667" type="line"/>
    </contour>
    <contour>
      <point x="-58.1" y="781.66667" type="line"/>
      <point x="-198.1" y="781.66667" type="line"/>
      <point x="-198.1" y="728.19143" type="line"/>
      <point x="-111.57524000000001" y="641.6666700000001" type="line"/>
      <point x="-58.1" y="641.6666700000001" type="line"/>
    </contour>
  </outline>
</glyph>
<glyph name="combining_smalltilde" format="2">
  <advance width="404.95"/>
  <unicode hex="0303"/>
  <outline>
    <contour>
      <point x="-342.4749984741211" y="695.1419067382812" type="line"/>
      <point x="-342.4749984741211" y="641.6666717529297" type="line"/>
      <point x="-148.99976348876953" y="641.6666717529297" type="line"/>
      <point x="-62.474998474121094" y="728.1914291381836" type="line"/>
      <point x="-62.474998474121094" y="781.6666717529297" type="line"/>
      <point x="-255.9502410888672" y="781.6666717529297" type="line"/>
    </contour>
  </outline>
</glyph>
<glyph name="combining_macron" format="2">
  <advance width="404.95"/>
  <unicode hex="0304"/>
  <outline>
    <contour>
      <point x="-342.4749984741211" y="641.6666717529297" type="line"/>
      <point x="-62.474998474121094" y="641.6666717529297" type="line"/>
      <point x="-62.474998474121094" y="781.6666717529297" type="line"/>
      <point x="-342.4749984741211" y="781.6666717529297" type="line"/>
    </contour>
  </outline>
</glyph>
<glyph name="combining_dotabove" format="2">
  <advance width="222.45"/>
  <unicode hex="0307"/>
  <outline>
    <contour>
      <point x="-363.72499999999997" y="701.66667" type="line"/>
      <point x="-223.725" y="701.66667" type="line"/>
      <point x="-223.725" y="841.66667" type="line"/>
      <point x="-363.72499999999997" y="841.66667" type="line"/>
    </contour>
  </outline>
</glyph>
<glyph name="combining_diaeresis" format="2">
  <advance width="404.95"/>
  <unicode hex="0308"/>
  <outline>
    <contour>
      <point x="-363.72499999999997" y="701.66667" type="line"/>
      <point x="-223.725" y="701.66667" type="line"/>
      <point x="-223.725" y="841.66667" type="line"/>
      <point x="-363.72499999999997" y="841.66667" type="line"/>
    </contour>
    <contour>
      <point x="-181.225" y="701.66667" type="line"/>
      <point x="-41.225" y="701.66667" type="line"/>
      <point x="-41.225" y="841.66667" type="line"/>
      <point x="-181.225" y="841.66667" type="line"/>
    </contour>
  </outline>
</glyph>
<glyph name="combining_hook" format="2">
  <advance width="222.45"/>
  <unicode hex="0309"/>
  <outline>
    <contour>
      <point x="-302.47499999999997" y="641.6666700000001" type="line"/>
      <point x="-162.475" y="641.6666700000001" type="line"/>
      <point x="-162.475" y="695.14191" type="line"/>
      <point x="-248.99976" y="781.66667" type="line"/>
      <point x="-302.47499999999997" y="781.66667" type="line"/>
    </contour>
  </outline>
</glyph>
<glyph name="combining_ring" format="2">
  <advance width="404.95"/>
  <unicode hex="030A"/>
  <outline>
    <contour>
      <point x="-223.725" y="786.66667" type="line"/>
      <point x="-252.37245" y="786.66667" type="line"/>
      <point x="-298.72499999999997" y="740.31412" type="line"/>
      <point x="-298.72499999999997" y="683.01922" type="line"/>
      <point x="-252.37245" y="636.6666700000001" type="line"/>
      <point x="-223.725" y="636.6666700000001" type="line"/>
    </contour>
    <contour>
      <point x="-181.225" y="636.6666700000001" type="line"/>
      <point x="-152.57755" y="636.6666700000001" type="line"/>
      <point x="-106.225" y="683.01922" type="line"/>
      <point x="-106.225" y="740.31412" type="line"/>
      <point x="-152.57755" y="786.66667" type="line"/>
      <point x="-181.225" y="786.66667" type="line"/>
    </contour>
  </outline>
</glyph>
<glyph name="combining_acutedbl" format="2">
  <advance width="404.95"/>
  <unicode hex="030B"/>
  <outline>
    <contour>
      <point x="-363.72499999999997" y="781.66667" type="line"/>
      <point x="-363.72499999999997" y="641.6666700000001" type="line"/>
      <point x="-310.24976" y="641.6666700000001" type="line"/>
      <point x="-223.725" y="728.19143" type="line"/>
      <point x="-223.725" y="781.66667" type="line"/>
    </contour>
    <contour>
      <point x="-181.225" y="781.66667" type="line"/>
      <point x="-181.225" y="641.6666700000001" type="line"/>
      <point x="-127.74976000000001" y="641.6666700000001" type="line"/>
      <point x="-41.225" y="728.19143" type="line"/>
      <point x="-41.225" y="781.66667" type="line"/>
    </contour>
  </outline>
</glyph>
<glyph name="combining_gravedbl" format="2">
  <advance width="404.95"/>
  <unicode hex="030F"/>
  <outline>
    <contour>
      <point x="-223.725" y="781.66667" type="line"/>
      <point x="-363.72499999999997" y="781.66667" type="line"/>
      <point x="-363.72499999999997" y="728.19143" type="line"/>
      <point x="-277.20023999999995" y="641.6666700000001" type="line"/>
      <point x="-223.725" y="641.6666700000001" type="line"/>
    </contour>
    <contour>
      <point x="-41.225" y="781.66667" type="line"/>
      <point x="-181.225" y="781.66667" type="line"/>
      <point x="-181.225" y="728.19143" type="line"/>
      <point x="-94.70024000000001" y="641.6666700000001" type="line"/>
      <point x="-41.225" y="641.6666700000001" type="line"/>
    </contour>
  </outline>
</glyph>
<glyph name="combining_dotbelow" format="2">
  <advance width="222.45"/>
  <unicode hex="0323"/>
  <outline>
    <contour>
      <point x="-363.72499999999997" y="-170.0" type="line"/>
      <point x="-223.725" y="-170.0" type="line"/>
      <point x="-223.725" y="-30.0" type="line"/>
      <point x="-363.72499999999997" y="-30.0" type="line"/>
    </contour>
  </outline>
</glyph>
<glyph name="combining_diaeresisbelow" format="2">
  <advance width="404.95"/>
  <unicode hex="0324"/>
  <outline>
    <contour>
      <point x="-363.72499999999997" y="-170.0" type="line"/>
      <point x="-223.725" y="-170.0" type="line"/>
      <point x="-223.725" y="-30.0" type="line"/>
      <point x="-363.72499999999997" y="-30.0" type="line"/>
    </contour>
    <contour>
      <point x="-181.225" y="-170.0" type="line"/>
      <point x="-41.225" y="-170.0" type="line"/>
      <point x="-41.225" y="-30.0" type="line"/>
      <point x="-181.225" y="-30.0" type="line"/>
    </contour>
  </outline>
</glyph>
<glyph name="combining_commabelow" format="2">
  <advance width="222.45"/>
  <unicode hex="0326"/>
  <outline>
    <contour>
      <point x="-363.72499999999997" y="-30.0" type="line"/>
      <point x="-363.72499999999997" y="-170.0" type="line"/>
      <point x="-310.24976" y="-170.0" type="line"/>
      <point x="-223.725" y="-83.47524" type="line"/>
      <point x="-223.725" y="-30.0" type="line"/>
    </contour>
  </outline>
</glyph>
<glyph name="combining_cedilla" format="2">
  <advance width="222.45"/>
  <unicode hex="0327"/>
  <outline>
    <contour>
      <point x="-302.47499999999997" y="-140.0" type="line"/>
      <point x="-162.475" y="-140.0" type="line"/>
      <point x="-162.475" y="-86.52476" type="line"/>
      <point x="-248.99976" y="0.0" type="line"/>
      <point x="-302.47499999999997" y="0.0" type="line"/>
    </contour>
  </outline>
</glyph>
<glyph name="PI" format="2">
  <advance width="489.95"/>
  <unicode hex="03A0"/>
  <outline>
    <contour>
      <point x="41.224998474121094" y="660" type="line"/>
      <point x="448.7249984741211" y="660" type="line"/>
      <point x="448.7249984741211" y="800" type="line"/>
      <point x="41.224998474121094" y="800" type="line"/>
    </contour>
    <contour>
      <point x="83.7249984741211" y="0" type="line"/>
      <point x="223.7249984741211" y="0" type="line"/>
      <point x="223.7249984741211" y="627.5" type="line"/>
      <point x="83.7249984741211" y="627.5" type="line"/>
    </contour>
    <contour>
      <point x="266.2249984741211" y="0" type="line"/>
      <point x="406.2249984741211" y="0" type="line"/>
      <point x="406.2249984741211" y="627.5" type="line"/>
      <point x="266.2249984741211" y="627.5" type="line"/>
    </contour>
  </outline>
</glyph>
<glyph name="SIGMA" format="2">
  <advance width="404.95"/>
  <unicode hex="03A3"/>
  <outline>
    <contour>
      <point x="41.224998474121094" y="0" type="line"/>
      <point x="181.2249984741211" y="0" type="line"/>
      <point x="181.2249984741211" y="800" type="line"/>
      <point x="41.224998474121094" y="800" type="line"/>
      <point x="41.224998474121094" y="486.5247573852539" type="line"/>
      <point x="127.74976348876953" y="400" type="line"/>
      <point x="41.224998474121094" y="313.4752426147461" type="line"/>
    </contour>
    <contour>
      <point x="363.725" y="800.0" type="line"/>
      <point x="223.725" y="800.0" type="line"/>
      <point x="223.725" y="746.52476" type="line"/>
      <point x="310.24976000000004" y="660.0" type="line"/>
      <point x="363.725" y="660.0" type="line"/>
    </contour>
    <contour>
      <point x="363.725" y="0.0" type="line"/>
      <point x="363.725" y="140.0" type="line"/>
      <point x="310.24976000000004" y="140.0" type="line"/>
      <point x="223.725" y="53.47524" type="line"/>
      <point x="223.725" y="0.0" type="line"/>
    </contour>
  </outline>
</glyph>
<glyph name="pi" format="2">
  <advance width="562.45"/>
  <unicode hex="03C0"/>
  <outline>
    <contour>
      <point x="41.224998474121094" y="513.4752426147461" type="line"/>
      <point x="41.224998474121094" y="460" type="line"/>
      <point x="434.7002410888672" y="460" type="line"/>
      <point x="521.2249984741211" y="546.5247573852539" type="line"/>
      <point x="521.2249984741211" y="600" type="line"/>
      <point x="127.74976348876953" y="600" type="line"/>
    </contour>
    <contour>
      <point x="111.2249984741211" y="0" type="line"/>
      <point x="251.2249984741211" y="0" type="line"/>
      <point x="251.2249984741211" y="427.5" type="line"/>
      <point x="111.2249984741211" y="427.5" type="line"/>
    </contour>
    <contour>
      <point x="380.24976348876953" y="0" type="line"/>
      <point x="476.2249984741211" y="0" type="line"/>
      <point x="476.2249984741211" y="140" type="line"/>
      <point x="433.7249984741211" y="140" type="line"/>
      <point x="433.7249984741211" y="427.5" type="line"/>
      <point x="293.7249984741211" y="427.5" type="line"/>
      <point x="293.7249984741211" y="86.5247573852539" type="line"/>
    </contour>
  </outline>
</glyph>
<glyph name="w_with_acute" format="2">
  <advance width="587.45"/>
  <unicode hex="1E83"/>
  <outline>
    <contour>
      <point x="284.975" y="781.6666666666666" type="line"/>
      <point x="284.975" y="641.6666666666666" type="line"/>
      <point x="338.45024" y="641.6666666666666" type="line"/>
      <point x="424.975" y="728.1914266666666" type="line"/>
      <point x="424.975" y="781.6666666666666" type="line"/>
    </contour>
    <contour>
      <point x="127.74976348876953" y="0" type="line"/>
      <point x="181.2249984741211" y="0" type="line"/>
      <point x="181.2249984741211" y="513.4752426147461" type="line"/>
      <point x="94.70024108886719" y="600" type="line"/>
      <point x="41.224998474121094" y="600" type="line"/>
      <point x="41.224998474121094" y="86.5247573852539" type="line"/>
    </contour>
    <contour>
      <point x="223.7249984741211" y="0" type="line"/>
      <point x="363.7249984741211" y="0" type="line"/>
      <point x="363.7249984741211" y="513.4752426147461" type="line"/>
      <point x="277.2002410888672" y="600" type="line"/>
      <point x="223.7249984741211" y="600" type="line"/>
    </contour>
    <contour>
      <point x="459.7002410888672" y="0" type="line"/>
      <point x="546.2249984741211" y="86.5247573852539" type="line"/>
      <point x="546.2249984741211" y="600" type="line"/>
      <point x="406.2249984741211" y="600" type="line"/>
      <point x="406.2249984741211" y="0" type="line"/>
    </contour>
  </outline>
</glyph>
<glyph name="W_with_diaeresis" format="2">
  <advance width="587.45"/>
  <unicode hex="1E84"/>
  <outline>
    <contour>
      <point x="132.47500000000002" y="901.6666666666666" type="line"/>
      <point x="272.475" y="901.6666666666666" type="line"/>
      <point x="272.475" y="1041.6666666666665" type="line"/>
      <point x="132.47500000000002" y="1041.6666666666665" type="line"/>
    </contour>
    <contour>
      <point x="314.975" y="901.6666666666666" type="line"/>
      <point x="454.975" y="901.6666666666666" type="line"/>
      <point x="454.975" y="1041.6666666666665" type="line"/>
      <point x="314.975" y="1041.6666666666665" type="line"/>
    </contour>
    <contour>
      <point x="127.74976348876953" y="0" type="line"/>
      <point x="181.2249984741211" y="0" type="line"/>
      <point x="181.2249984741211" y="713.4752426147461" type="line"/>
      <point x="94.70024108886719" y="800" type="line"/>
      <point x="41.224998474121094" y="800" type="line"/>
      <point x="41.224998474121094" y="86.5247573852539" type="line"/>
    </contour>
    <contour>
      <point x="223.7249984741211" y="0" type="line"/>
      <point x="363.7249984741211" y="0" type="line"/>
      <point x="363.7249984741211" y="713.4752426147461" type="line"/>
      <point x="277.2002410888672" y="800" type="line"/>
      <point x="223.7249984741211" y="800" type="line"/>
    </contour>
    <contour>
      <point x="459.7002410888672" y="0" type="line"/>
      <point x="546.2249984741211" y="86.5247573852539" type="line"/>
      <point x="546.2249984741211" y="800" type="line"/>
      <point x="406.2249984741211" y="800" type="line"/>
      <point x="406.2249984741211" y="0" type="line"/>
    </contour>
  </outline>
</glyph>
